<svg xmlns="http://www.w3.org/2000/svg" width="30" height="30" viewBox="235 235 30 30"><path fill="#303C42" d="M250 261.25a.63.63 0 0 0-.62.63v2.5a.63.63 0 0 0 1.25.01v-2.5a.63.63 0 0 0-.63-.64zm-6.65-24.01a.62.62 0 1 0-1.08.62l.63 1.08c.11.2.33.31.54.31.11 0 .21-.03.31-.08.3-.17.4-.56.23-.85l-.63-1.08zm13.75 23.82a.62.62 0 0 0-1.08.62l.63 1.08a.63.63 0 0 0 .85.23c.3-.17.4-.56.23-.85l-.63-1.08zm-18.15-18.16l-1.08-.62a.62.62 0 1 0-.62 1.08l1.08.63c.1.06.2.08.31.08a.6.6 0 0 0 .54-.31.63.63 0 0 0-.23-.86zm23.81 13.75l-1.08-.62a.62.62 0 1 0-.62 1.08l1.08.63c.1.06.2.08.31.08a.6.6 0 0 0 .54-.31.63.63 0 0 0-.23-.86zM238.75 250a.62.62 0 0 0-.62-.62h-2.5a.63.63 0 0 0 0 1.25h2.5c.34 0 .62-.28.62-.63zm-.43 6.02l-1.08.63c-.3.17-.4.56-.23.85a.63.63 0 0 0 .85.23l1.08-.62c.3-.17.4-.56.23-.85a.62.62 0 0 0-.85-.24zm5.43 4.81a.62.62 0 0 0-.85.23l-.62 1.08a.62.62 0 0 0 .54.93.6.6 0 0 0 .54-.31l.63-1.08a.63.63 0 0 0-.24-.85zM250 235a.62.62 0 0 0-.62.62V250c0 .35.28.63.62.63h14.38c.35 0 .63-.28.63-.62A15.04 15.04 0 0 0 250 235z"/><path fill="#FBBE9D" d="M250.63 249.38v-13.11a13.77 13.77 0 0 1 13.11 13.11h-13.11z"/><linearGradient id="a" gradientUnits="userSpaceOnUse" x1="-32.19" y1="-127.3" x2="-30.89" y2="-126.7" gradientTransform="translate(907.07 2895.86) scale(20.8333)"><stop offset="0" stop-color="#fff" stop-opacity=".2"/><stop offset="1" stop-color="#fff" stop-opacity="0"/></linearGradient><path fill="url(#a)" d="M250 261.25a.63.63 0 0 0-.62.63v2.5a.63.63 0 0 0 1.25.01v-2.5a.63.63 0 0 0-.63-.64zm-6.65-24.01a.62.62 0 1 0-1.08.62l.63 1.08c.11.2.33.31.54.31.11 0 .21-.03.31-.08.3-.17.4-.56.23-.85l-.63-1.08zm13.75 23.82a.62.62 0 0 0-1.08.62l.63 1.08a.63.63 0 0 0 .85.23c.3-.17.4-.56.23-.85l-.63-1.08zm-18.15-18.16l-1.08-.62a.62.62 0 1 0-.62 1.08l1.08.63c.1.06.2.08.31.08a.6.6 0 0 0 .54-.31.63.63 0 0 0-.23-.86zm23.81 13.75l-1.08-.62a.62.62 0 1 0-.62 1.08l1.08.63c.1.06.2.08.31.08a.6.6 0 0 0 .54-.31.63.63 0 0 0-.23-.86zM238.75 250a.62.62 0 0 0-.62-.62h-2.5a.63.63 0 0 0 0 1.25h2.5c.34 0 .62-.28.62-.63zm-.43 6.02l-1.08.63c-.3.17-.4.56-.23.85a.63.63 0 0 0 .85.23l1.08-.62c.3-.17.4-.56.23-.85a.62.62 0 0 0-.85-.24zm5.43 4.81a.62.62 0 0 0-.85.23l-.62 1.08a.62.62 0 0 0 .54.93.6.6 0 0 0 .54-.31l.63-1.08a.63.63 0 0 0-.24-.85zM250 235a.62.62 0 0 0-.62.62V250c0 .35.28.63.62.63h14.38c.35 0 .63-.28.63-.62A15.04 15.04 0 0 0 250 235z"/></svg>