<svg xmlns="http://www.w3.org/2000/svg" width="30" height="30" viewBox="235 235 30 30"><path fill="#A9A9A9" d="M250 238.75c.35 0 .63-.28.63-.62v-2.5a.62.62 0 0 0-.62-.62.62.62 0 0 0-.62.62v2.5a.6.6 0 0 0 .61.62zm0 22.5a.63.63 0 0 0-.62.63v2.5a.63.63 0 0 0 1.25.01v-2.5a.63.63 0 0 0-.63-.64zm-6.65-24.01a.62.62 0 1 0-1.08.62l.63 1.08c.11.2.33.31.54.31.11 0 .21-.03.31-.08.3-.17.4-.56.23-.85l-.63-1.08zm13.75 23.82a.62.62 0 0 0-1.08.62l.63 1.08a.63.63 0 0 0 .85.23c.3-.17.4-.56.23-.85l-.63-1.08zm-18.15-18.16l-1.08-.62a.62.62 0 1 0-.62 1.08l1.08.63c.1.06.2.08.31.08a.6.6 0 0 0 .54-.31.63.63 0 0 0-.23-.86zm23.81 13.75l-1.08-.62a.62.62 0 1 0-.62 1.08l1.08.63c.1.06.2.08.31.08a.6.6 0 0 0 .54-.31.63.63 0 0 0-.23-.86zM238.75 250a.62.62 0 0 0-.62-.62h-2.5a.63.63 0 0 0 0 1.25h2.5c.34 0 .62-.28.62-.63zm25.63-.62h-2.5a.63.63 0 0 0 0 1.25h2.5c.35 0 .63-.28.63-.62a.64.64 0 0 0-.63-.63zm-26.06 6.64l-1.08.63c-.3.17-.4.56-.23.85a.63.63 0 0 0 .85.23l1.08-.62c.3-.17.4-.56.23-.85a.62.62 0 0 0-.85-.24zm23.05-11.96c.11 0 .22-.03.31-.08l1.08-.62a.62.62 0 0 0-.62-1.08l-1.08.63c-.3.17-.4.56-.23.85.11.18.31.3.54.3zm-17.62 16.77a.62.62 0 0 0-.85.23l-.62 1.08a.62.62 0 0 0 .54.93.6.6 0 0 0 .54-.31l.63-1.08a.63.63 0 0 0-.24-.85zm13.75-23.82a.62.62 0 0 0-.85.23l-.62 1.08a.62.62 0 0 0 .54.93.6.6 0 0 0 .54-.31l.63-1.08a.63.63 0 0 0-.24-.85zm-6.31 13.3c.03-.1.06-.2.06-.3 0-.46-.26-.84-.62-1.06v-8.32a.62.62 0 0 0-.62-.62.62.62 0 0 0-.62.62v7.87l-.18-.18c-.24-.24-.64-.24-.88 0s-.24.64 0 .88l.5.5c-.03.1-.06.2-.06.31 0 .46.26.84.63 1.06v2.07a.63.63 0 0 0 1.25.01v-1.62l3.93 3.93c.12.12.28.18.44.18s.32-.06.44-.18a.63.63 0 0 0 0-.88l-4.27-4.27z"/><linearGradient id="a" gradientUnits="userSpaceOnUse" x1="-32.19" y1="-127.3" x2="-30.89" y2="-126.7" gradientTransform="translate(907.07 2895.86) scale(20.8333)"><stop offset="0" stop-color="#fff" stop-opacity=".2"/><stop offset="1" stop-color="#fff" stop-opacity="0"/></linearGradient><path fill="url(#a)" d="M250 238.75c.35 0 .63-.28.63-.62v-2.5a.62.62 0 0 0-.62-.62.62.62 0 0 0-.62.62v2.5a.6.6 0 0 0 .61.62zm0 22.5a.63.63 0 0 0-.62.63v2.5a.63.63 0 0 0 1.25.01v-2.5a.63.63 0 0 0-.63-.64zm-6.65-24.01a.62.62 0 1 0-1.08.62l.63 1.08c.11.2.33.31.54.31.11 0 .21-.03.31-.08.3-.17.4-.56.23-.85l-.63-1.08zm13.75 23.82a.62.62 0 0 0-1.08.62l.63 1.08a.63.63 0 0 0 .85.23c.3-.17.4-.56.23-.85l-.63-1.08zm-18.15-18.16l-1.08-.62a.62.62 0 1 0-.62 1.08l1.08.63c.1.06.2.08.31.08a.6.6 0 0 0 .54-.31.63.63 0 0 0-.23-.86zm23.81 13.75l-1.08-.62a.62.62 0 1 0-.62 1.08l1.08.63c.1.06.2.08.31.08a.6.6 0 0 0 .54-.31.63.63 0 0 0-.23-.86zM238.75 250a.62.62 0 0 0-.62-.62h-2.5a.63.63 0 0 0 0 1.25h2.5c.34 0 .62-.28.62-.63zm25.63-.62h-2.5a.63.63 0 0 0 0 1.25h2.5c.35 0 .63-.28.63-.62a.64.64 0 0 0-.63-.63zm-26.06 6.64l-1.08.63c-.3.17-.4.56-.23.85a.63.63 0 0 0 .85.23l1.08-.62c.3-.17.4-.56.23-.85a.62.62 0 0 0-.85-.24zm23.05-11.96c.11 0 .22-.03.31-.08l1.08-.62a.62.62 0 0 0-.62-1.08l-1.08.63c-.3.17-.4.56-.23.85.11.18.31.3.54.3zm-17.62 16.77a.62.62 0 0 0-.85.23l-.62 1.08a.62.62 0 0 0 .54.93.6.6 0 0 0 .54-.31l.63-1.08a.63.63 0 0 0-.24-.85zm13.75-23.82a.62.62 0 0 0-.85.23l-.62 1.08a.62.62 0 0 0 .54.93.6.6 0 0 0 .54-.31l.63-1.08a.63.63 0 0 0-.24-.85zm-6.31 13.3c.03-.1.06-.2.06-.3 0-.46-.26-.84-.62-1.06v-8.32a.62.62 0 0 0-.62-.62.62.62 0 0 0-.62.62v7.87l-.18-.18c-.24-.24-.64-.24-.88 0s-.24.64 0 .88l.5.5c-.03.1-.06.2-.06.31 0 .46.26.84.63 1.06v2.07a.63.63 0 0 0 1.25.01v-1.62l3.93 3.93c.12.12.28.18.44.18s.32-.06.44-.18a.63.63 0 0 0 0-.88l-4.27-4.27z"/></svg>