<svg xmlns="http://www.w3.org/2000/svg" width="30" height="30" viewBox="235 235 30 30"><path fill="#303C42" d="M250 238.8c.3 0 .6-.3.6-.6v-2.5c0-.3-.3-.6-.6-.6s-.6.3-.6.6v2.5c0 .3.3.6.6.6zm0 22.5c-.3 0-.6.3-.6.6v2.5c0 .3.3.6.6.6s.6-.3.6-.6v-2.5c0-.4-.3-.6-.6-.6zm-6.6-24.1a.65.65 0 1 0-1.1.7l.6 1.1c.1.2.3.3.5.3.1 0 .2 0 .3-.1.3-.2.4-.6.2-.9l-.5-1.1zm13.7 23.9a.65.65 0 1 0-1.1.7l.6 1.1c.1.2.3.3.5.3.1 0 .2 0 .3-.1.3-.2.4-.6.2-.9l-.5-1.1zm-18.2-18.2l-1.1-.6a.65.65 0 1 0-.7 1.1l1.1.6c.1.1.2.1.3.1.2 0 .4-.1.5-.3.3-.3.2-.7-.1-.9zm23.9 13.7l-1.1-.6a.65.65 0 1 0-.7 1.1l1.1.6c.1.1.2.1.3.1.2 0 .4-.1.5-.3.3-.3.2-.7-.1-.9zm-24-6.6c0-.3-.3-.6-.6-.6h-2.5c-.3 0-.6.3-.6.6s.3.6.6.6h2.5c.3 0 .6-.3.6-.6zm25.6-.6h-2.5c-.3 0-.6.3-.6.6s.3.6.6.6h2.5c.3 0 .6-.3.6-.6s-.3-.6-.6-.6zm-26.1 6.6l-1.1.6c-.3.2-.4.6-.2.9.1.2.3.3.5.3.1 0 .2 0 .3-.1l1.1-.6c.3-.2.4-.6.2-.9-.1-.2-.5-.4-.8-.2zm23.1-11.9c.1 0 .2 0 .3-.1l1.1-.6a.65.65 0 1 0-.7-1.1l-1.1.6c-.3.2-.4.6-.2.9.1.1.3.3.6.3zm-17.6 16.7c-.3-.2-.7-.1-.9.2l-.6 1.1c-.2.3-.1.7.2.9.1.1.2.1.3.1.2 0 .4-.1.5-.3l.6-1.1c.3-.3.1-.7-.1-.9zm13.7-23.8c-.3-.2-.7-.1-.9.2l-.6 1.1c-.2.3-.1.7.2.9.1.1.2.1.3.1.2 0 .4-.1.5-.3l.6-1.1c.3-.3.2-.7-.1-.9zm-6.3 13.3c0-.1.1-.2.1-.3 0-.5-.3-.8-.6-1.1v-8.3c0-.3-.3-.6-.6-.6s-.6.3-.6.6v7.9l-.2-.2c-.2-.2-.6-.2-.9 0s-.2.6 0 .9l.5.5c0 .1-.1.2-.1.3 0 .5.3.8.6 1.1v2.1c0 .3.3.6.6.6s.6-.3.6-.6v-1.6l3.9 3.9c.1.1.3.2.4.2s.3-.1.4-.2c.2-.2.2-.6 0-.9l-4.1-4.3z"/></svg>