<?xml version="1.0" encoding="iso-8859-1"?><!--Generator: Adobe Illustrator 16.0.0, SVG Export Plug-In . SVG Version: 6.00 Build 0)--><!DOCTYPE svg PUBLIC "-//W3C//DTD SVG 1.1//EN" "http://www.w3.org/Graphics/SVG/1.1/DTD/svg11.dtd"><svg xmlns="http://www.w3.org/2000/svg" width="512" height="512" viewBox="0 0 32 32" style="enable-background:new 0 0 32 32"><g><g fill="#8c76a6"><path d="M28 4h-4V2a2 2 0 0 0-4 0v2h-8V2a2 2 0 0 0-4 0v2H4a4 4 0 0 0-4 4v20a4 4 0 0 0 4 4h24a4 4 0 0 0 4-4V8a4 4 0 0 0-4-4zm0 24H4V11h24v17z"/><path d="M14 25h4V14h-4l-4 4h4z"/></g></g><g/><g/><g/><g/><g/><g/><g/><g/><g/><g/><g/><g/><g/><g/><g/></svg>