<svg xmlns="http://www.w3.org/2000/svg" width="50" height="50"><path fill="#FED428" d="M25.4.5C4 4.9.2 16.1 0 25c-.9 13.9 12.6 25 25.4 24.5 13.4-.8 21.1-5.4 24.4-19.5C51.1 22.9 46.5 1.8 25.4.5z"/><path fill="#872C0C" stroke="#872C0C" stroke-width=".3" stroke-linejoin="round" stroke-miterlimit="10" d="M21.9 41.6c4.2-2.5 4.8-1.9 10-1.8-1.6-3.2-6.2-2.2-6.2-2.2s-5.5 1.5-3.8 4z"/><path opacity=".6" fill="#FEB21B" d="M9.2 23.4c-.5-.2 2.6-1.1 2.6-1.1s4.1-.8 3.6.5c.4.9 1.6 3.1 5.2 3 .3.2-.8.8-2.4.8-4.1-1-3.9-3.2-6.3-3.5-2.4.5-2.2.5-2.7.3z"/><path fill="#872E0C" stroke="#7B1B09" stroke-width=".3" stroke-linecap="round" stroke-linejoin="round" stroke-miterlimit="10" d="M18.9 25.8c-2.1 0-3.2-1.8-3.3-3.5.4-.6-4.4-1.1-6.7 1-1.1-.1-.9-.6-.3-1.7.7-1.1 6.2-3.1 8.8-3.1 1.8 0 3.9.8 4.5 2.4.7 2.6-.9 4.9-3 4.9z"/><path opacity=".6" fill="#FEB21B" d="M30.4 23.4c-.5-.2 2.6-1.1 2.6-1.1s4.1-.8 3.6.5c.4.9 1.6 3.1 5.2 3 .3.2-.8.8-2.4.8-3.7-.9-3.9-3.4-6.3-3.5-2.5.5-2.3.5-2.7.3z"/><path fill="#872E0C" stroke="#7B1B09" stroke-width=".3" stroke-linecap="round" stroke-linejoin="round" stroke-miterlimit="10" d="M40.1 25.8c-2.1 0-3.2-1.8-3.3-3.5.4-.6-4.3-1.1-6.7 1-1.1-.1-.9-.6-.3-1.7.7-1.1 6.2-3.1 8.8-3.1 1.8 0 3.9.8 4.5 2.4.7 2.6-1 4.9-3 4.9z"/></svg>