<svg xmlns="http://www.w3.org/2000/svg" version="1.1" baseProfile="tiny" x="0" y="0" width="25" height="25" viewBox="0 0 25 25" xml:space="preserve"><path fill="#FFFFFF" d="M11 16.2c0.8 0.2 2.5 0.1 3.2-0.1 2-0.7 3.5-2.3 4-4.3 0.3-1 0.2-2.3-0.1-3.3 -0.4-1-0.4-1.1-0.2-1.1 0.2 0 1.1 0.6 1.8 1.1 1.2 0.9 3.4 3.4 3.2 3.8 -0.1 0.3-1.2 1.7-1.9 2.4 -2.4 2.3-4.9 3.5-8 3.7 -2.2 0.1-3.8-0.2-5.7-1.2 -1-0.5-2.4-1.5-3.2-2.2 -0.6-0.5-1.8-2-2-2.4l-0.2-0.3 0.5-0.7c0.9-1.3 2.9-3.2 4.3-3.9 0.5-0.3 0.5-0.3 0.4 0.1 -0.9 2-0.9 3.6 0 5.3 0.3 0.7 0.5 1 1.2 1.6C9.1 15.5 9.9 16 11 16.2z"/><path fill="#00D44F" d="M13 6.4c-0.2-0.2-0.6-0.3-1.2-0.2C10 6.5 8.6 8 8.3 9.8c-0.1 0.6-0.1 0.7 0.1 0.9C8.5 10.9 8.7 11 8.9 11c0.4 0 0.6-0.2 0.8-0.9 0.2-1.3 1.2-2.3 2.5-2.5C13 7.5 13.4 7 13 6.4zM0.3 12.1c0-0.8 1-2.3 2.6-3.8 2.2-2.2 5.1-3.6 7.9-4 1.5-0.2 3.5-0.1 5 0.3 1.6 0.4 3.6 1.4 5 2.5 1.8 1.4 3.9 4.1 3.9 5 0 0.5-1.6 2.7-2.9 3.8 -1.9 1.8-4.3 3.1-6.8 3.6 -1.5 0.3-3.9 0.3-5.2 0 -2.7-0.6-4.9-1.8-6.9-3.7C1.3 14.4 0.3 12.9 0.3 12.1zM2.1 12.4c0.2 0.4 1.5 1.9 2 2.4 0.8 0.7 2.2 1.7 3.2 2.2 1.8 0.9 3.5 1.2 5.7 1.2 3-0.1 5.6-1.3 8-3.7 0.7-0.7 1.8-2.1 1.9-2.4 0.1-0.3-2.1-2.9-3.2-3.8 -0.7-0.5-1.6-1.1-1.8-1.1 -0.2 0-0.1 0.1 0.2 1.1 0.4 1 0.4 2.3 0.1 3.3 -0.5 2-2 3.6-4 4.3 -0.8 0.3-2.4 0.3-3.2 0.1 -1.1-0.3-1.9-0.8-2.8-1.6 -0.7-0.7-0.9-1-1.2-1.6 -0.9-1.7-0.8-3.3 0-5.3 0.2-0.4 0.1-0.4-0.4-0.1 -1.4 0.7-3.4 2.6-4.3 3.9l-0.5 0.7L2.1 12.4z"/></svg>