<svg xmlns="http://www.w3.org/2000/svg" viewBox="231 231 50 50">
  <path fill="#8C76A6" d="M231.8 248.5l23.7 10 .5.1.5-.1 23.7-10c.5-.2.8-.7.8-1.2s-.4-1-.9-1.2l-23.7-8.9h-.9l-23.7 8.9c-.5.2-.8.7-.9 1.2.1.5.4.9.9 1.2zm24.2-8.8l20.1 7.6-20.1 8.5-20.1-8.5 20.1-7.6zm-24.2 14.5l24.2 10.3 24.2-10.3c.7-.3 1-1.1.7-1.7-.3-.7-1.1-1-1.7-.7l-23.1 9.8-23.1-9.8c-.7-.3-1.5 0-1.7.7-.5.6-.2 1.4.5 1.7zm0 5.3l24.2 10.3 24.2-10.3c.7-.3 1-1.1.7-1.7-.3-.7-1.1-1-1.7-.7l-23.1 9.8-23.1-9.8c-.7-.3-1.5 0-1.7.7-.5.6-.2 1.4.5 1.7zm0 5.2L256 275l24.2-10.3c.7-.3 1-1.1.7-1.7-.3-.7-1.1-1-1.7-.7l-23.1 9.8-23.1-9.8c-.7-.3-1.5 0-1.7.7-.5.7-.2 1.5.5 1.7z"/>
</svg>
