<svg xmlns="http://www.w3.org/2000/svg" viewBox="225 225 50 50">
  <path fill="#1edea8" d="M274 259.2l-.3-.3a3.5 3.5 0 0 0-4.4.5l-1.1 1-.9 1.2-.6 1.2v-30.7c.1-1.7-1.1-3.1-2.8-3.5-1.8-.3-3.5 1-3.8 2.8v31.3l-.4-1c-.2-.5-.6-1-1-1.4l-1.1-1.1a3.5 3.5 0 0 0-4.4-.5 3.2 3.2 0 0 0-.7 4.6l.3.3 8.3 8.2a3.3 3.3 0 0 0 4.7 0l8.3-8.2c1.2-1.1 1.2-3.2-.1-4.4z"/>
  <path fill="#1edea8" d="M247.3 236.1l-8.2-8.1a3.3 3.3 0 0 0-4.7 0l-8.3 8.2a3.5 3.5 0 0 0-.5 4.4 3.4 3.4 0 0 0 4.7.7l.3-.3 1.1-1.1c.5-.5 1-1.2 1.2-1.9l.5-1v31.1a3.4 3.4 0 0 0 2.8 3.5c1.8.3 3.5-.9 3.8-2.7V237l.3.9c.3.7.7 1.3 1.2 1.8l1.2 1.2a3.3 3.3 0 0 0 4.7 0l.2-.2c1.2-1.4 1-3.4-.3-4.6z"/>
</svg>
