<svg xmlns="http://www.w3.org/2000/svg" viewBox="231 230 50 52">
  <path fill="#FF6A4D" d="M258 230c-5.2 0-10 1.2-14.1 3.5s-7.3 5.7-9.6 10c-2.2 4.3-3.3 9.1-3.3 14.5 0 7.4 2.1 13.4 6.3 17.7 4.2 4.3 10.2 6.4 17.6 6.4 5 0 9.5-.9 13.5-2.6.4-.2.7-.7.7-1.1v-4c0-.4-.2-.8-.5-1-.3-.2-.8-.3-1.1-.1-4.4 1.7-8.5 2.5-12.5 2.5-5.8 0-10-1.6-12.9-4.6-2.9-3-4.4-7.3-4.4-13.2 0-4.4.8-8.1 2.5-11.4 1.6-3.2 3.9-5.7 7-7.4 3.1-1.7 6.7-2.6 10.9-2.6 3.3 0 6.2.7 8.7 2.1 2.5 1.4 4.4 3.3 5.8 5.8 1.4 2.5 2.1 5.5 2.1 9 0 3.3-.5 5.9-1.6 7.8-1 1.9-2 2.6-3.3 2.6-1 0-1.6-.3-2-.8-.4-.6-.7-1.6-.7-3.3v-.7l.7-14.1c0-.5-.3-1.1-.8-1.2-1.4-.5-3-.8-4.8-1.1-1.7-.3-3.3-.4-4.8-.4-4.1 0-7.6 1.4-10.1 4.2-2.6 2.8-3.8 6.5-3.8 10.8 0 3.7.9 6.8 2.8 9.2 1.9 2.3 4.7 3.5 7.9 3.5 2.2 0 4.2-.6 5.9-1.7 1-.7 1.8-1.5 2.5-2.4.4.8 1 1.6 1.7 2.2 1.4 1.2 3.2 1.9 5.1 1.9 2.3 0 4.5-.8 6.2-2.2 1.8-1.5 3.1-3.5 4.1-6 .9-2.5 1.4-5.3 1.4-8.3 0-4.5-.9-8.6-2.9-12.1-1.9-3.5-4.7-6.3-8.2-8.2-3.6-2.3-7.6-3.2-12-3.2zm-.7 18.2c1.2 0 2.3.1 3.4.3l-.4 6.8c-.2 3-.8 5.1-1.7 6.4-.9 1.3-2 1.8-3.8 1.8-1.7 0-2.7-.5-3.4-1.4-.7-1-1.2-2.6-1.2-5 0-3 .7-5.2 1.9-6.7 1.3-1.5 2.9-2.2 5.2-2.2z"/>
</svg>
