<?xml version="1.0" encoding="iso-8859-1"?><!--Generator: Adobe Illustrator 19.0.0, SVG Export Plug-In . SVG Version: 6.00 Build 0)--><svg xmlns="http://www.w3.org/2000/svg" viewBox="0 0 433.573 433.573" style="enable-background:new 0 0 433.573 433.573"><path style="fill:#FFFFFF" d="M270.411 314.901l-17.186 37.428 56.815 2.145-14.404-37.282"/><path style="fill:#602F75" d="M310.04 361.301c-.085 0-.172-.002-.258-.005l-56.815-2.145a6.829 6.829 0 01-5.948-9.672l17.186-37.427a6.827 6.827 0 1112.407 5.699l-12.923 28.141 36.243 1.369-10.667-27.609a6.828 6.828 0 0112.737-4.921l14.404 37.282a6.826 6.826 0 01-.812 6.426 6.819 6.819 0 01-5.554 2.862z"/><path style="fill:#FFFFFF" d="M113.613 300.951l-9.419 35.613 56.008-9.75-21.46-29.048"/><path style="fill:#602F75" d="M104.194 343.391a6.826 6.826 0 01-6.599-8.573l9.419-35.613a6.827 6.827 0 1113.2 3.492l-6.695 25.315 34.628-6.028-14.894-20.159a6.827 6.827 0 0110.981-8.113l21.46 29.047a6.824 6.824 0 01-4.319 10.782l-56.008 9.75c-.393.066-.786.1-1.173.1z"/><path style="fill:#FFFFFF" d="M281.121 353.088c2.403 27.259-16.251 43.807-.21 75.976"/><path style="fill:#602F75" d="M274.801 432.11c-11.047-22.154-7.117-38.385-3.651-52.704 2.05-8.463 3.985-16.459 3.169-25.719l13.6-1.198c1.014 11.493-1.282 20.968-3.5 30.131-3.34 13.793-6.224 25.704 2.599 43.397l-12.217 6.093z"/><path style="fill:#FFE600" d="M189.178 243.935c-12.952 29.548-34.775 49.992-61.621 53.646-50.299 6.839-99.265-47.758-109.37-121.952C8.09 101.437 40.67 35.727 90.967 28.881c37.396-5.089 74.049 23.765 94.541 69.386"/><path style="fill:#602F75" d="M119.134 304.977c-50.546 0-97.729-55.124-107.713-128.427C.831 98.737 36.103 29.458 90.046 22.118 129.4 16.76 169.312 45.555 191.734 95.47a6.827 6.827 0 01-12.455 5.595c-19.881-44.261-54.185-69.939-87.393-65.42-46.483 6.327-76.512 68.71-66.937 139.063 9.58 70.342 55.197 122.416 101.687 116.108 23.34-3.176 43.858-21.262 56.289-49.621a6.828 6.828 0 0112.506 5.482c-14.385 32.818-38.789 53.837-66.954 57.668a69.374 69.374 0 01-9.343.632z"/><path style="fill:#FFFFFF" d="M132.637 332.33c-2.403 35.442 16.251 56.958.21 98.797"/><path style="fill:#602F75" d="M139.22 433.573l-12.749-4.888c9.245-24.113 6.108-40.96 2.789-58.795-2.167-11.636-4.407-23.668-3.434-38.021l13.623.923c-.857 12.629 1.132 23.301 3.234 34.598 3.521 18.913 7.163 38.47-3.463 66.183z"/><path style="fill:#EA3457" d="M310.651 7.155c68.427 5.484 118.386 78.725 111.578 163.594-6.798 84.864-67.773 149.216-136.201 143.741-68.427-5.484-118.378-78.734-111.578-163.594 6.8-84.871 67.783-149.224 136.201-143.741z"/><path style="fill:#602F75" d="M294.103 321.641c-2.857 0-5.731-.114-8.617-.345-72.066-5.775-124.928-82.461-117.84-170.945 3.412-42.595 20.047-81.626 46.841-109.903C241.661 11.771 276.002-2.475 311.195.352c35.193 2.819 66.835 22.347 89.097 54.985 21.951 32.183 32.159 73.364 28.742 115.959-6.801 84.934-66.416 150.343-134.931 150.345zm8.385-307.985c-28.331 0-55.805 12.665-78.089 36.183-24.658 26.022-39.979 62.106-43.143 101.603-6.487 80.98 40.759 151.072 105.32 156.245 64.558 5.171 122.363-56.508 128.85-137.481 3.168-39.499-6.212-77.559-26.412-107.175-19.888-29.158-47.911-46.585-78.908-49.068a94.376 94.376 0 00-7.618-.307z"/><g><path style="fill:#FFFFFF" d="M214.032 136.893a6.825 6.825 0 01-6.816-7.303c1.215-17.384 11.561-40.492 26.356-58.873 17.77-22.076 39.105-34.586 60.075-35.226 3.768-.128 6.917 2.847 7.031 6.615a6.827 6.827 0 01-6.615 7.031c-39.098 1.193-71.328 54.245-73.226 81.403a6.833 6.833 0 01-6.805 6.353zM212.161 164.505c-3.77 0-7.129-3.057-7.129-6.827s2.755-6.827 6.525-6.827h.604a6.828 6.828 0 010 13.654zM53.822 175.956a6.829 6.829 0 01-6.484-4.695c-8.861-26.945-1.591-76.194 23.011-103.781a6.826 6.826 0 019.638-.551 6.824 6.824 0 01.551 9.638c-20.559 23.055-27.756 67.541-20.231 90.428a6.826 6.826 0 01-6.485 8.961zM62.411 202.249c-2.746 0-5.417-1.539-6.484-4.166-1.418-3.494-.012-7.361 3.482-8.779l.556-.225a6.826 6.826 0 018.892 3.76 6.826 6.826 0 01-3.76 8.892 7.179 7.179 0 01-2.686.518z"/></g><g><path style="fill:#00E7FF" d="M360.156 348.125a6.827 6.827 0 01-1.927-13.377c26.505-7.813 46.565-21.871 59.626-41.783a6.827 6.827 0 1111.417 7.489c-14.886 22.694-37.489 38.639-67.181 47.392a6.845 6.845 0 01-1.935.279zM395.973 362.609a6.827 6.827 0 01-1.93-13.375c11.902-3.512 20.504-9.511 26.295-18.342a6.827 6.827 0 019.453-1.964 6.826 6.826 0 011.964 9.453c-7.533 11.486-18.922 19.545-33.848 23.948a6.907 6.907 0 01-1.934.28zM67.569 335.368a6.814 6.814 0 01-1.744-.227c-24.438-6.439-45.193-21.692-61.687-45.332a6.827 6.827 0 011.691-9.504 6.827 6.827 0 019.504 1.691c14.592 20.912 32.749 34.35 53.97 39.943a6.828 6.828 0 01-1.734 13.429zM34.956 355.093a6.812 6.812 0 01-1.743-.227c-12.442-3.275-22.968-10.988-31.288-22.924a6.826 6.826 0 0111.2-7.807c6.506 9.332 14.213 15.065 23.564 17.527a6.827 6.827 0 01-1.733 13.431z"/></g><g/><g/><g/><g/><g/><g/><g/><g/><g/><g/><g/><g/><g/><g/><g/></svg>