<svg xmlns="http://www.w3.org/2000/svg" viewBox="231 231 50 50">
  <linearGradient id="a" x1="287" x2="337" y1="111" y2="111" gradientTransform="matrix(1 0 0 -1 -56 367)" gradientUnits="userSpaceOnUse">
    <stop offset="0" stop-color="#20FDC2"/>
    <stop offset="1" stop-color="#88D1FF"/>
  </linearGradient>
  <path fill="url(#a)" d="M274.85 231h-29.3a6.16 6.16 0 0 0-6.15 6.15v31.54h-6.44c-1.08 0-1.95.87-1.95 1.95v4.2a6.16 6.16 0 0 0 6.15 6.15h29.3a6.16 6.16 0 0 0 6.15-6.15V243.3h6.45c1.08 0 1.95-.87 1.95-1.95v-4.2a6.17 6.17 0 0 0-6.16-6.15zm-37.7 46.09a2.25 2.25 0 0 1-2.25-2.25v-2.25h25.39v2.25c0 .79.16 1.57.43 2.25h-23.57zm31.55-39.94v37.7a2.25 2.25 0 0 1-4.5 0v-4.2c0-1.08-.87-1.95-1.95-1.95h-18.94v-31.54a2.25 2.25 0 0 1 2.25-2.25h23.57a5.88 5.88 0 0 0-.43 2.24zm8.39 2.25h-4.49v-2.25a2.25 2.25 0 0 1 4.5 0v2.25z"/>
</svg>
