<svg xmlns="http://www.w3.org/2000/svg" viewBox="147.5 153.5 200 200">
  <path fill="#C3C4C3" d="M147.5 153.5h200v200h-200z"/>
  <path fill="#DCDCDC" d="M207.7 223.4c0-20.6 15.2-37.6 34.8-40.1 2.6-6.2 8.4-14.3 20.5-6.8 0 0-10.2-4.1-14.8 6.5 1.7 0 3.3.2 4.9.4 3.4-3.6 8.6-5.4 16.6-.5 0 0-6.4-2.6-11.4 1.6 16.7 4.8 28.9 20.4 28.9 38.9 0 22.4-17.8 40.5-39.8 40.5-21.9 0-39.7-18.1-39.7-40.5zm84.7 70.7L291 287a34.1 34.1 0 0 0-23.6-23c-5.2 4.9-12.1 8-19.8 8s-14.6-3-19.8-8a34.32 34.32 0 0 0-25.2 33.2v27.9l.1.4 1.9.6c5.9 1.9 11.5 3.3 16.9 4.4l7.2 1.3c8 1.3 15.3 1.8 21.9 1.8 24.8 0 39.2-7.2 40.1-7.7l1.8-.9h.2v-27.9c-.2-1-.3-2-.3-3z"/>
</svg>
