<svg xmlns="http://www.w3.org/2000/svg" version="1.1" x="0" y="0" width="70" height="70" viewBox="0 0 70 70" enable-background="new 0 0 70 70" xml:space="preserve"><path fill="#F0F3F4" d="M70 35c0 19.34-15.66 35-35 35C15.66 70 0 54.34 0 35 0 15.66 15.66 0 35 0 54.34 0 70 15.66 70 35z"/><path fill="#565656" d="M60.56 50.82c-0.05 1.37-1.15 3.8-4.08 3.8 -2.93 0-39.44 0-42.88 0 -3.44 0-4.13-2.66-4.12-3.76 0.01-1.1 0.23-23.26 0.23-23.26h50.58C60.3 27.6 60.61 49.45 60.56 50.82z"/><path fill="#6D6D6D" d="M9.72 27.95c0 0 0.05-5.6 0.02-8.52 -0.02-2.92 2.6-3.25 3.74-3.26 1.14 0 7.18 0.05 8.59 0.03 1.41-0.02 6.23-6.36 7.11-6.36 0.88 0 10.63-0.12 11.57 0 0.94 0.12 5.44 6.33 6.83 6.36 1.39 0.03 7.56-0.07 8.87-0.07 2.61 0 3.85 1.85 3.85 4.28 -0.01 2.43-0.02 7.66-0.02 7.66L9.72 27.95z"/><path fill="#4D4D4D" stroke="#4D4D4D" stroke-width="0.37" stroke-miterlimit="10" d="M57.11 54.12c4.64-0.37 2.81-10.56 2.9-11.57 0.09-1.01-14.31-14.95-14.31-14.95s6.1 7.34-1.66 16.96c-9.71 7.85-17.68 0.17-17.68 0.17l9.61 9.39C35.98 54.12 51.94 54.14 57.11 54.12z"/><path fill="#FFFFFF" d="M48.01 35c0 7.19-5.82 13.01-13.01 13.01 -3.31 0-6.34-1.24-8.64-3.28C23.68 42.35 21.99 38.87 21.99 35c0-7.19 5.82-13.01 13.01-13.01C42.19 21.99 48.01 27.81 48.01 35z"/><path fill="#6092F8" d="M45.08 35c0 5.57-4.51 10.08-10.08 10.08 -5.57 0-10.08-4.51-10.08-10.08 0-5.57 4.51-10.08 10.08-10.08C40.57 24.92 45.08 29.43 45.08 35z"/><circle fill="#FD0002" cx="54.55" cy="21.99" r="2.02"/></svg>