<svg xmlns="http://www.w3.org/2000/svg" width="70" height="70"><path fill="#F0F3F4" d="M70 35c0 19.34-15.66 35-35 35S0 54.34 0 35 15.66 0 35 0s35 15.66 35 35z"/><path fill="#565656" d="M60.56 50.82c-.05 1.37-1.15 3.8-4.08 3.8H13.6c-3.44 0-4.13-2.66-4.12-3.76l.23-23.26h50.58c.01 0 .32 21.85.27 23.22z"/><path fill="#6D6D6D" d="M9.72 27.95s.05-5.6.02-8.52c-.02-2.92 2.6-3.25 3.74-3.26 1.14 0 7.18.05 8.59.03 1.41-.02 6.23-6.36 7.11-6.36.88 0 10.63-.12 11.57 0 .94.12 5.44 6.33 6.83 6.36 1.39.03 7.56-.07 8.87-.07 2.61 0 3.85 1.85 3.85 4.28-.01 2.43-.02 7.66-.02 7.66l-50.56-.12z"/><path fill="#4D4D4D" stroke="#4D4D4D" stroke-width=".37" stroke-miterlimit="10" d="M57.11 54.12c4.64-.37 2.81-10.56 2.9-11.57C60.1 41.54 45.7 27.6 45.7 27.6s6.1 7.34-1.66 16.96c-9.71 7.85-17.68.17-17.68.17l9.61 9.39c.01 0 15.97.02 21.14 0z"/><path fill="#FFF" d="M48.01 35c0 7.19-5.82 13.01-13.01 13.01-3.31 0-6.34-1.24-8.64-3.28A12.982 12.982 0 0 1 21.99 35c0-7.19 5.82-13.01 13.01-13.01 7.19 0 13.01 5.82 13.01 13.01z"/><path fill="#6092F8" d="M45.08 35c0 5.57-4.51 10.08-10.08 10.08S24.92 40.57 24.92 35 29.43 24.92 35 24.92 45.08 29.43 45.08 35z"/><circle fill="#FD0002" cx="54.55" cy="21.99" r="2.02"/></svg>