<svg xmlns="http://www.w3.org/2000/svg" viewBox="231 231 50 50">
  <ellipse cx="256" cy="258.9" fill="#19A83B" rx="7.5" ry="7.4"/>
  <path fill="#19A83B" d="M277.7 243.9h-8.5c-.4-.4-.9-.9-.9-1.6v-2.2c0-1.2-1-2.2-2.2-2.2h-20.2c-1.2 0-2.2 1-2.2 2.2v2.2c0 .6-.4 1.2-.9 1.6h-8.5c-1.8 0-3.3.9-3.3 2V272c0 1.1 1.5 2 3.3 2h43.3c1.8 0 3.3-.9 3.3-2v-26.1c.1-1.1-1.4-2-3.2-2zM256 269.2c-5.8 0-10.4-4.6-10.4-10.3 0-5.7 4.7-10.3 10.4-10.3s10.4 4.6 10.4 10.3c0 5.7-4.6 10.3-10.4 10.3z"/>
  <ellipse cx="271.5" cy="250.9" fill="#19A83B" rx="1.6" ry="1.6"/>
</svg>
