<?xml version="1.0" encoding="iso-8859-1"?><!--Generator: Adobe Illustrator 19.0.0, SVG Export Plug-In . SVG Version: 6.00 Build 0)--><svg xmlns="http://www.w3.org/2000/svg" viewBox="0 0 501.551 501.551" style="enable-background:new 0 0 501.551 501.551"><path style="fill:#CDD6E0" d="M501.551 20.898V305.11c0 11.494-9.404 20.898-20.898 20.898h-6.269v78.367l-78.367-78.367H97.176c-11.494 0-20.898-9.404-20.898-20.898V20.898C76.278 9.404 85.682 0 97.176 0h383.478c11.493 0 20.897 9.404 20.897 20.898z"/><path style="fill:#BFCDDB" d="M440.947 119.118v251.82l-43.886-43.886H97.176c-11.494 0-20.898-9.404-20.898-20.898V82.547h327.053c20.898 0 37.616 15.673 37.616 36.571z"/><path style="fill:#F2F2F2" d="M404.376 98.22H20.898C9.404 98.22 0 107.624 0 119.118v283.167c0 11.494 9.404 20.898 20.898 20.898h16.718v78.367l78.367-78.367h288.392c11.494 0 20.898-9.404 20.898-20.898V119.118c0-12.538-9.404-20.898-20.897-20.898z"/><g><path style="fill:#4CDBC4" d="M82.547 176.588h260.18v26.122H82.547zM43.886 247.641h336.457v26.122H43.886zM82.547 320.784h260.18v26.122H82.547z"/></g><g/><g/><g/><g/><g/><g/><g/><g/><g/><g/><g/><g/><g/><g/><g/></svg>