<svg xmlns="http://www.w3.org/2000/svg" version="1.1" x="0" y="0" width="26" height="20" viewBox="0 0 26 20" enable-background="new 0 0 26 20" xml:space="preserve"><path fill="#1EDEA8" d="M17.7 11.5c0 1.3-1.1 2.3-2.5 2.3H2.5C1.1 13.7 0 12.7 0 11.5V2.3C0 1 1.1 0 2.5 0h12.8c1.4 0 2.5 1 2.5 2.3V11.5z"/><line fill="none" stroke="#FFFFFF" x1="2.5" y1="3.3" x2="15" y2="3.3"/><line fill="none" stroke="#FFFFFF" x1="2.5" y1="6.5" x2="15" y2="6.5"/><line fill="none" stroke="#FFFFFF" x1="2.5" y1="9.6" x2="8.7" y2="9.6"/><path fill="#67B0FD" d="M26 17.7C26 19 24.9 20 23.5 20H10.7c-1.4 0-2.5-1-2.5-2.3v-9.2c0-1.3 1.1-2.3 2.5-2.3h12.8c1.4 0 2.5 1 2.5 2.3V17.7z"/><line fill="none" stroke="#FFFFFF" x1="10.8" y1="10.2" x2="23.2" y2="10.2"/><line fill="none" stroke="#FFFFFF" x1="10.8" y1="13.3" x2="23.2" y2="13.3"/><line fill="none" stroke="#FFFFFF" x1="10.8" y1="16.5" x2="17" y2="16.5"/></svg>