<svg xmlns="http://www.w3.org/2000/svg" viewBox="0 0 501.6 501.6">
  <path fill="#CDD6E0" d="M501.6 20.9v284.2a21 21 0 0 1-21 21h-6.2v78.3L396 326H97.2a21 21 0 0 1-21-20.9V21A21 21 0 0 1 97.3 0h383.5a21 21 0 0 1 20.9 20.9z"/>
  <path fill="#BFCDDB" d="M441 119.1V371l-44-43.8H97.3a21 21 0 0 1-21-21V82.6h327.1a36.6 36.6 0 0 1 37.7 36.6z"/>
  <path fill="#F2F2F2" d="M404.4 98.2H20.9a21 21 0 0 0-20.9 21v283a21 21 0 0 0 20.9 21h16.7v78.4l78.4-78.4h288.4a21 21 0 0 0 20.9-21v-283c0-12.6-9.4-21-21-21z"/>
  <path fill="#4CDBC4" d="M82.5 176.6h260.2v26.1H82.6zm-38.6 71h336.4v26.2H44zm38.6 73.2h260.2v26.1H82.6z"/>
</svg>
