<svg xmlns="http://www.w3.org/2000/svg" version="1.1" x="0" y="0" width="121" height="97" viewBox="0 0 121 97" enable-background="new 0 0 121 97" xml:space="preserve"><path fill="#3D8CD3" d="M31.09 64.63c-3.61 0.8-22.59-36.37-1.25-53.9 13.13-13.06 60.75-14.21 78.42-0.01 14.33 11.51 16.89 34.09 3.31 50.37C95.44 78.65 80.15 79.96 41.54 69.7"/><path fill="#2471AA" d="M85.85 20.71c8.27 0.46 32.33 28.85 32.1 29.62 -1.18 3.72-6.47 14.39-19.88 21.58C97.78 71.4 72.43 25.7 85.85 20.71z"/><path fill="#67B0FD" d="M12.26 96.5c0 0 1.98-15.27 2.1-16.66 -3.61 0.8-27.99-30.87-2.08-54.44 25.91-23.57 67.96-8.62 77.98-2.37 19.37 12.67 14.44 44.01 4.59 52.88 -9.85 8.87-31.43 19.26-70.04 9"/><line fill="none" stroke="#FFFFFF" stroke-width="6.1" stroke-linecap="round" stroke-linejoin="round" x1="25.8" y1="64.25" x2="61.21" y2="64.25"/><line fill="none" stroke="#FFFFFF" stroke-width="6.1" stroke-linecap="round" stroke-linejoin="round" x1="26.14" y1="51.07" x2="77.69" y2="51.07"/><line fill="none" stroke="#FFFFFF" stroke-width="6.06" stroke-linecap="round" stroke-linejoin="round" x1="25.84" y1="36.88" x2="77.69" y2="36.88"/></svg>