<?xml version="1.0" encoding="iso-8859-1"?><!--Generator: Adobe Illustrator 19.0.0, SVG Export Plug-In . SVG Version: 6.00 Build 0)--><svg xmlns="http://www.w3.org/2000/svg" viewBox="0 0 512 512" style="enable-background:new 0 0 512 512"><path style="fill:#73A1FB" d="M160.325 256.018c0 52.754 42.919 95.67 95.675 95.67 52.753 0 95.668-42.917 95.668-95.67 0-52.754-42.916-95.673-95.668-95.673-52.756-.001-95.675 42.918-95.675 95.673z"/><path style="fill:#DA143A" d="M476.299 129.73a4.198 4.198 0 0 0-.039-4.219c-22.285-37.532-53.998-68.971-91.712-90.916C345.679 11.975 301.226.019 256 .019c-78.269 0-151.211 35.125-200.125 96.368a4.193 4.193 0 0 0-.356 4.717l72.066 124.819a4.197 4.197 0 0 0 7.699-1.05c14.21-55.059 63.851-93.513 120.716-93.513 3.529 0 7.173.161 10.836.473.119.012.24.017.359.017h205.456a4.186 4.186 0 0 0 3.648-2.12z"/><path style="fill:#78B86D" d="M293.829 377.597a4.19 4.19 0 0 0-4.442-1.471A124.464 124.464 0 0 1 256 380.674c-48.079 0-92.392-28.199-112.893-71.838a4.524 4.524 0 0 0-.165-.316L40.139 130.465a4.19 4.19 0 0 0-3.634-2.098h-.022a4.195 4.195 0 0 0-3.634 2.135C11.36 168.633 0 212.036 0 256.018c0 61.7 22.259 121.299 62.677 167.817 40.017 46.055 95.108 76.364 155.129 85.345a4.202 4.202 0 0 0 4.256-2.053l72.085-124.857a4.204 4.204 0 0 0-.318-4.673z"/><path style="fill:#F1CB30" d="M490.471 159.854H346.147a4.196 4.196 0 1 0-2.937 7.193c24.148 23.673 37.447 55.269 37.447 88.97 0 25.513-7.698 50.065-22.264 71.005a4.174 4.174 0 0 0-.188.299L255.223 505.686a4.198 4.198 0 1 0 3.635 6.296h.047c67.769-.755 131.362-27.717 179.064-75.914C485.708 387.83 512 323.887 512 256.018c0-32.259-5.929-63.716-17.623-93.5a4.195 4.195 0 0 0-3.906-2.664z"/><g/><g/><g/><g/><g/><g/><g/><g/><g/><g/><g/><g/><g/><g/><g/></svg>