<?xml version="1.0" encoding="iso-8859-1"?>
<!-- Generator: Adobe Illustrator 19.0.0, SVG Export Plug-In . SVG Version: 6.00 Build 0)  -->
<svg version="1.1" id="Capa_1" xmlns="http://www.w3.org/2000/svg" xmlns:xlink="http://www.w3.org/1999/xlink" x="0px" y="0px"
	 viewBox="0 0 512 512" style="enable-background:new 0 0 512 512;" xml:space="preserve">
<path style="fill:#303C42;" d="M256,0C114.844,0,0,114.844,0,256s114.844,256,256,256s256-114.844,256-256S397.156,0,256,0z"/>
<path style="fill:#E6E6E6;" d="M256,490.667C126.604,490.667,21.333,385.396,21.333,256S126.604,21.333,256,21.333
	S490.667,126.604,490.667,256S385.396,490.667,256,490.667z"/>
<path style="opacity:0.1;enable-background:new    ;" d="M42.667,277.333c0-129.396,105.271-234.667,234.667-234.667
	c59.277,0,113.332,22.267,154.682,58.651C388.978,52.406,326.118,21.333,256,21.333C126.604,21.333,21.333,126.604,21.333,256
	c0,70.118,31.073,132.978,79.984,176.016C64.934,390.665,42.667,336.611,42.667,277.333z"/>
<linearGradient id="SVGID_1_" gradientUnits="userSpaceOnUse" x1="-36.875" y1="640.564" x2="-24.9782" y2="628.6671" gradientTransform="matrix(21.3333 0 0 -21.3333 996.3334 13791.667)">
	<stop  offset="0" style="stop-color:#000000;stop-opacity:0.1"/>
	<stop  offset="1" style="stop-color:#000000;stop-opacity:0"/>
</linearGradient>
<path style="fill:url(#SVGID_1_);" d="M265.678,70.289c0.608,1.342,0.988,2.806,0.988,4.378v163.28
	c6.258,3.724,10.667,10.262,10.667,18.053c0,1.842-0.611,3.491-1.052,5.198l83.26,83.26c4.167,4.167,4.167,10.917,0,15.083
	c-2.083,2.083-4.813,3.125-7.542,3.125c-2.729,0-5.458-1.042-7.542-3.125l-83.26-83.26c-1.707,0.441-3.355,1.052-5.198,1.052
	c-3.608,0-6.853-1.13-9.836-2.72l-0.018,0.193l160.698,160.698c42.41-35.697,71.824-86.13,80.737-143.313L265.678,70.289z"/>
<path style="fill:#303C42;" d="M276.281,261.198c0.441-1.707,1.052-3.355,1.052-5.198c0-7.792-4.409-14.329-10.667-18.053V74.667
	C266.667,68.771,261.896,64,256,64c-5.896,0-10.667,4.771-10.667,10.667v163.28c-6.258,3.724-10.667,10.262-10.667,18.053
	c0,11.76,9.573,21.333,21.333,21.333c1.842,0,3.491-0.611,5.198-1.052l83.26,83.26c2.083,2.083,4.813,3.125,7.542,3.125
	c2.729,0,5.458-1.042,7.542-3.125c4.167-4.167,4.167-10.917,0-15.083L276.281,261.198z"/>
<linearGradient id="SVGID_2_" gradientUnits="userSpaceOnUse" x1="-45.5784" y1="639.555" x2="-23.8278" y2="629.4138" gradientTransform="matrix(21.3333 0 0 -21.3333 996.3334 13791.667)">
	<stop  offset="0" style="stop-color:#FFFFFF;stop-opacity:0.2"/>
	<stop  offset="1" style="stop-color:#FFFFFF;stop-opacity:0"/>
</linearGradient>
<path style="fill:url(#SVGID_2_);" d="M256,0C114.844,0,0,114.844,0,256s114.844,256,256,256s256-114.844,256-256S397.156,0,256,0z"
	/>
<g>
</g>
<g>
</g>
<g>
</g>
<g>
</g>
<g>
</g>
<g>
</g>
<g>
</g>
<g>
</g>
<g>
</g>
<g>
</g>
<g>
</g>
<g>
</g>
<g>
</g>
<g>
</g>
<g>
</g>
</svg>
