<svg xmlns="http://www.w3.org/2000/svg" version="1.1" x="0" y="0" width="25" height="25" viewBox="0 0 25 25" enable-background="new 0 0 25 25" xml:space="preserve"><polygon fill="#59595B" points="19.8 5.4 20.5 6.1 21.1 5.6 20.3 4.8 "/><path fill="#FFCC4D" d="M17.6 2.2c0 0 3.3-2.5 6 0C26.3 4.7 23.5 8 23.5 8L17.6 2.2z"/><polygon fill="#59595B" points="4.5 5.9 5.2 5.2 4.7 4.6 3.9 5.5 "/><path fill="#FFCC4D" d="M1.4 8.1c0 0-2.5-3.3 0-6 2.5-2.7 5.8 0.2 5.8 0.2L1.4 8.1z"/><path fill="#FFCC4D" d="M12.5 0.2c0 0-1.5-0.1-1.4 2.4 1.3 0 1.1 0 2.8 0C14 0 12.5 0.2 12.5 0.2z"/><path fill="#FFAC33" d="M18.9 22.5c0 0 1.4 1.5 0.2 2.3 -1 0.6-1.9-1.3-1.9-1.3L18.9 22.5z"/><path fill="#FFAC33" d="M7.7 23.5c0 0-0.7 2-1.9 1.3 -1-0.6 0.2-2.3 0.2-2.3L7.7 23.5z"/><path fill="#E6E7E8" d="M12.5 23.2c-5.3 0-9.7-4.3-9.7-9.7 0-5.3 4.3-9.7 9.7-9.7s9.7 4.3 9.7 9.7C22.1 18.9 17.8 23.2 12.5 23.2z"/><path fill="#DD2E44" d="M12.5 5.2c4.6 0 8.3 3.7 8.3 8.3 0 4.6-3.7 8.3-8.3 8.3 -4.6 0-8.3-3.7-8.3-8.3S7.9 5.2 12.5 5.2M12.5 2.5c-6.1 0-11 5-11 11 0 6.1 5 11 11 11s11-5 11-11C23.5 7.4 18.5 2.5 12.5 2.5L12.5 2.5z"/><line fill="none" stroke="#414042" stroke-width="1.3" stroke-linecap="round" stroke-linejoin="round" stroke-miterlimit="10" x1="16" y1="13.2" x2="12.5" y2="13.2"/><line fill="#3F3E3E" stroke="#414042" stroke-width="1.3" stroke-linecap="round" stroke-linejoin="round" stroke-miterlimit="10" x1="12.5" y1="6.8" x2="12.5" y2="13.2"/></svg>