<svg xmlns="http://www.w3.org/2000/svg" xmlns:xlink="http://www.w3.org/1999/xlink" width="50" height="50" viewBox="225 225 50 50"><linearGradient gradientUnits="userSpaceOnUse" x1="219.89" y1="235.96" x2="280.11" y2="264.04"><stop offset="0" stop-color="#fff" stop-opacity=".2"/><stop offset="1" stop-color="#fff" stop-opacity="0"/></linearGradient><use xlink:href="#C" fill="#303c42"/><path fill="#e6e6e6" d="M250 272.92A22.94 22.94 0 01227.08 250 22.94 22.94 0 01250 227.08 22.94 22.94 0 01272.92 250 22.94 22.94 0 01250 272.92z"/><path fill="#303c42" d="M251.98 250.51c.04-.17.1-.33.1-.51 0-.76-.43-1.4-1.04-1.76V232.3a1.04 1.04 0 10-2.08 0v15.95a2.05 2.05 0 001.04 3.84c.18 0 .34-.06.51-.1l8.13 8.13c.2.2.47.31.74.31s.53-.1.74-.31c.41-.41.41-1.07 0-1.47l-8.14-8.14z"/><linearGradient id="A" gradientUnits="userSpaceOnUse" x1="227.279" y1="239.406" x2="272.696" y2="260.656"><stop offset="0" stop-color="#fff" stop-opacity=".2"/><stop offset="1" stop-color="#fff" stop-opacity="0"/></linearGradient><use xlink:href="#C" fill="url(#A)"/><defs ><path id="C" d="M250 225c-13.78 0-25 11.22-25 25 0 13.8 11.22 25 25 25 13.8 0 25-11.2 25-25 0-13.78-11.2-25-25-25z"/></defs></svg>