<?xml version="1.0" encoding="iso-8859-1"?><!--Generator: Adobe Illustrator 19.0.0, SVG Export Plug-In . SVG Version: 6.00 Build 0)--><svg xmlns="http://www.w3.org/2000/svg" style="enable-background:new 0 0 512 512" width="512" height="512"><g><g><path d="M467 271H317c-20.744 0-38.077 14.178-43.264 33.303C268.552 302.214 261.923 301 256 301s-12.552 1.214-17.736 3.303C233.077 285.178 215.744 271 195 271H45c-24.337 0-45 19.831-45 45v30c0 57.891 47.109 105 105 105h30c57.891 0 105-47.109 105-105 0-8.276 7.724-15 16-15s16 6.724 16 15c0 57.891 47.109 105 105 105h30c57.891 0 105-47.109 105-105v-30c0-24.814-20.186-45-45-45z" fill="#FFF"/></g></g><g><g><path d="M458.958 96.918c-.035-.146-.143-.247-.183-.39-.035-.13.002-.258-.037-.386C452.41 75.121 433.396 61 411.424 61 384.178 61 362 83.178 362 110.424c0 8.291 6.709 15 15 15s15-6.709 15-15C392 99.716 400.716 91 411.424 91c8.58 0 16.013 5.502 18.543 13.689L463.246 241c11.541 0 20.407.8 32.28 5.706L458.958 96.918z" fill="#FFF"/></g></g><g><g><path d="M100.576 61C78.604 61 59.59 75.121 53.262 96.142c-.037.119 0 .236-.033.355-.037.134-.139.227-.172.363L15.699 247.299C27.876 242.055 36.815 241 48.182 241l33.846-136.3c2.525-8.194 9.965-13.7 18.549-13.7C111.284 91 120 99.716 120 110.424c0 8.291 6.709 15 15 15s15-6.709 15-15C150 83.178 127.822 61 100.576 61z" fill="#FFF"/></g></g><g/><g/><g/><g/><g/><g/><g/><g/><g/><g/><g/><g/><g/><g/><g/></svg>