<svg xmlns="http://www.w3.org/2000/svg" width="50" height="50" viewBox="232.4 230.9 50 50"><path fill="none" d="M232.4 230.9h50v50h-50z"/><path fill="#52B8D9" d="M272.4 236.4h-30.2c-2 0-3.6 1.6-3.6 3.6v22.6c0 2 1.6 3.6 3.6 3.6h14.6l8.7 9.5h4.4v-9.5h2.5c2 0 3.6-1.6 3.6-3.6V240c0-2-1.6-3.6-3.6-3.6z"/><path fill="none" stroke="#303C42" stroke-width=".8" stroke-miterlimit="10" d="M269.9 276h-4.4l-.3-.1-8.6-9.3h-14.4a4 4 0 01-4-4V240a4 4 0 014-4h30.2a4 4 0 014 4v22.6a4 4 0 01-4 4h-2.1v9.1c-.1.1-.2.3-.4.3zm-4.2-.7h3.8v-9.1c0-.2.2-.4.4-.4h2.5c1.8 0 3.3-1.5 3.3-3.2V240c0-1.8-1.5-3.2-3.3-3.2h-30.2a3.3 3.3 0 00-3.3 3.2v22.6c0 1.8 1.5 3.2 3.3 3.2h14.6l.3.1 8.6 9.4z"/><path fill="#82D9FF" d="M268 236.4h-30.2c-2 0-3.6 1.6-3.6 3.6v22.6c0 2 1.6 3.6 3.6 3.6h14.6l13.1 9.5v-9.5h2.5c2 0 3.6-1.6 3.6-3.6V240c.1-2-1.6-3.6-3.6-3.6z"/><path fill="#CAF4FF" d="M235.7 264v-22.6c0-2 1.6-3.6 3.6-3.6h30.2c.6 0 1.2.2 1.7.5a3.7 3.7 0 00-3.2-1.9h-30.2c-2 0-3.6 1.6-3.6 3.6v22.6c0 1.4.8 2.5 1.9 3.1-.2-.5-.4-1.1-.4-1.7z"/><path fill="none" stroke="#303C42" stroke-miterlimit="10" d="M265.5 276l-.2-.1-13-9.4h-14.4a4 4 0 01-4-4v-22.6a4 4 0 014-4h30.2a4 4 0 014 4v22.6a4 4 0 01-4 4H266v9.1l-.2.3-.3.1zm-27.6-39.3a3.3 3.3 0 00-3.3 3.2v22.6c0 1.8 1.5 3.2 3.3 3.2h14.6l.2.1 12.5 9.1v-8.8c0-.2.2-.4.4-.4h2.5c1.8 0 3.3-1.5 3.3-3.2v-22.6c0-1.8-1.5-3.2-3.3-3.2h-30.2v0z"/><path fill="#F9DD9D" d="M246.2 251c0 1.4-1.1 2.5-2.5 2.5s-2.5-1.1-2.5-2.5 1.1-2.5 2.5-2.5c1.4.1 2.5 1.2 2.5 2.5zM255.4 251c0 1.4-1.1 2.5-2.5 2.5s-2.5-1.1-2.5-2.5 1.1-2.5 2.5-2.5c1.4.1 2.5 1.2 2.5 2.5zM264.7 251c0 1.4-1.1 2.5-2.5 2.5s-2.5-1.1-2.5-2.5 1.1-2.5 2.5-2.5c1.4.1 2.5 1.2 2.5 2.5z"/><path fill="#63312D" d="M243.7 253.9c-1.6 0-2.9-1.3-2.9-2.8s1.3-2.8 2.9-2.8c1.6 0 2.9 1.3 2.9 2.8s-1.3 2.8-2.9 2.8zm0-5a2 2 0 00-2.1 2.1c0 1.2 1 2.1 2.1 2.1s2.1-.9 2.1-2.1c0-1.1-.9-2.1-2.1-2.1zM252.9 253.9c-1.6 0-2.9-1.3-2.9-2.8s1.3-2.8 2.9-2.8c1.6 0 2.9 1.3 2.9 2.8 0 1.5-1.3 2.8-2.9 2.8zm0-5a2 2 0 00-2.1 2.1c0 1.2 1 2.1 2.1 2.1 1.2 0 2.1-.9 2.1-2.1s-.9-2.1-2.1-2.1zM262.2 253.9c-1.6 0-2.9-1.3-2.9-2.8s1.3-2.8 2.9-2.8c1.6 0 2.9 1.3 2.9 2.8s-1.3 2.8-2.9 2.8zm0-5a2 2 0 00-2.1 2.1c0 1.2 1 2.1 2.1 2.1 1.2 0 2.1-.9 2.1-2.1s-.9-2.1-2.1-2.1z"/><ellipse fill="#303C42" cx="272.1" cy="262.9" rx="9.8" ry="9.6"/><ellipse fill="#D32F2F" cx="272.1" cy="262.9" rx="8" ry="7.9"/><path fill="#303C42" d="M275.6 262h-7.1c-.5 0-.9.4-.9.8 0 .5.4.9.9.9h7.1c.5 0 .9-.4.9-.9s-.4-.9-.9-.9v.1z"/></svg>