<svg xmlns="http://www.w3.org/2000/svg" width="50" height="50" viewBox="225 225 50 50" stroke="#303c42"><g stroke-width="1.2" stroke-miterlimit="10"><path fill="#52b8d9" d="M269.9 227.5h-34.8a4 4 0 00-4.1 4.1v26a4 4 0 004.1 4.1h16.8l10.3 10.9h4.8v-10.9h2.9a4 4 0 004.1-4.1v-26c0-2.2-1.8-4.1-4.1-4.1z"/><path fill="#82d9ff" d="M264.8 227.5h-34.6a4 4 0 00-4.1 4.1v26a4 4 0 004.1 4.1H247l15.1 10.9v-10.9h2.9a4 4 0 004.1-4.1v-26c-.1-2.2-2-4.1-4.3-4.1z"/></g><path fill="#f9dd9d" stroke-width=".5" stroke-miterlimit="10" d="M239.5 244.2a2.9 2.9 0 11-2.9-2.9c1.6.1 2.9 1.4 2.9 2.9zm10.8 0a2.9 2.9 0 11-2.9-2.9c1.6.1 2.9 1.4 2.9 2.9zm10.9 0a2.9 2.9 0 11-2.9-2.9c1.6.1 2.9 1.4 2.9 2.9z"/></svg>