<svg xmlns="http://www.w3.org/2000/svg" width="50" height="50" viewBox="-917.3 -909 50 50"><g stroke="#393939" stroke-width="1.1" stroke-miterlimit="10"><path fill="#52b8d9" d="M-877.3-904.8h-31c-2 0-3.7 1.7-3.7 3.8v24.2c0 2.1 1.7 3.9 3.7 3.9h15l9 10.1h4.5v-10.1h2.6c2 0 3.7-1.7 3.7-3.9V-901c0-2.1-1.7-3.8-3.8-3.8z"/><path fill="#82d9ff" d="M-881.8-904.8h-31c-2 0-3.7 1.7-3.7 3.8v24.2c0 2.1 1.6 3.9 3.7 3.9h15l13.5 10.1v-10.1h2.5c2 0 3.7-1.7 3.7-3.9V-901c.1-2.1-1.6-3.8-3.7-3.8z"/></g><path fill="#f9dd9d" stroke="#303c42" stroke-width=".5" stroke-miterlimit="10" d="M-904.2-889.2c0 1.5-1.1 2.7-2.5 2.7a2.6 2.6 0 01-2.6-2.7c0-1.5 1.1-2.7 2.6-2.7 1.4.1 2.5 1.3 2.5 2.7zm9.5 0c0 1.5-1.2 2.7-2.6 2.7a2.6 2.6 0 01-2.6-2.7c0-1.5 1.2-2.7 2.6-2.7 1.4.1 2.6 1.3 2.6 2.7zm9.5 0c0 1.5-1.1 2.7-2.5 2.7a2.6 2.6 0 01-2.6-2.7c0-1.5 1.1-2.7 2.6-2.7 1.4.1 2.5 1.3 2.5 2.7z"/><path fill="#303c42" d="M-877.6-886.7c5.6 0 10.1 4.6 10.1 10.2 0 5.7-4.5 10.3-10 10.3-5.6 0-10.1-4.6-10.1-10.3 0-5.6 4.5-10.2 10-10.2z"/><ellipse fill="#d32f2f" cx="-877.6" cy="-876.5" rx="8.2" ry="8.5"/><path fill="#303c42" d="M-881.3-877.4c-.5 0-.9.4-.9.8 0 .6.4 1 1 1h7.2c.5 0 1-.4 1-1 0-.5-.5-.8-1-.8h-7.3z"/></svg>