<svg xmlns="http://www.w3.org/2000/svg" viewBox="231 231 50 50">
  <path fill="#8C76A6" d="M256 231a25 25 0 0 0 0 50 25 25 0 0 0 0-50zm-13.4 19.9l1.9-1.3-1.9-1.3c-1-.7-1.3-2-.6-3 .7-1 2-1.2 3-.6l4.7 3.1c1 .7 1.3 2 .6 3-.2.3-.4.5-.6.6l-4.7 3.1c-1 .7-2.4.4-3-.6-.7-1-.4-2.4.6-3zm26.3 18.3c-1 .7-2.4.4-3-.6a11.8 11.8 0 0 0-9.9-5.2c-3.9 0-7.6 2-9.9 5.2-.7 1-2 1.2-3 .6-1-.7-1.2-2-.6-3 3.1-4.4 8.1-7.1 13.5-7.1s10.4 2.7 13.5 7.1c.7 1 .4 2.3-.6 3zm.5-18.3c1 .7 1.2 2 .6 3-.7 1-2 1.2-3 .6l-4.7-3.1c-1-.7-1.3-2-.6-3 .2-.2.4-.5.6-.6l4.7-3.1c1-.7 2.4-.4 3 .6.7 1 .4 2.4-.6 3l-1.9 1.3 1.9 1.3z"/>
</svg>
