<?xml version="1.0" encoding="iso-8859-1"?><!--Generator: Adobe Illustrator 19.0.0, SVG Export Plug-In . SVG Version: 6.00 Build 0)--><svg xmlns="http://www.w3.org/2000/svg" viewBox="0 0 512.001 512.001" style="enable-background:new 0 0 512.001 512.001"><path style="fill:#FC3842" d="M264.685 319.192l-124.15-124.149L7.984 475.076c-.12.263-7.089 17.442 2.428 26.958 9.55 9.55 26.83 2.487 26.964 2.426l280.028-132.547-34.206-34.208"/><path style="fill:#FC5162" d="M213.226 267.733c-39.901 49.739-60.93 113.198-56.373 180.176l160.551-75.994c-41.624-41.629-27.723-27.727-104.178-104.182z"/><path style="fill:#EF2235" d="M28.977 506.652c1.737-11.296 101.822-216.951 134.785-288.382l-23.227-23.228L7.984 475.076c-.906 1.981-6.935 19.11 3.394 27.844 6.843 5.822 16.597 3.732 17.599 3.732z"/><circle style="fill:#FFCA54" cx="198.387" cy="97.678" r="15.134"/><circle style="fill:#00CDB3" cx="423.016" cy="157.423" r="15.134"/><path style="fill:#FFCA54" d="M317.405 371.913l32.73-15.217-194.35-194.35-15.249 32.697"/><path style="fill:#FCD27C" d="M213.226 267.733l104.179 104.181 32.73-15.217-114.006-114.005a260.498 260.498 0 00-22.903 25.041z"/><path style="fill:#FFCA54" d="M120.036 238.347L80.895 321.04c16.722 7.229 36.871 4.023 50.536-9.641 21.859-21.86 16.209-58.821-11.395-73.052z"/><path style="fill:#F9B24B" d="M120.036 238.347c-19.441 41.075-37.933 80.14-39.142 82.693 10.711 4.63 22.822 4.956 33.743 1.018l27.588-58.284c-3.893-11.034-11.899-20.123-22.189-25.427z"/><path style="fill:#FFCA54" d="M192.125 397.033l-.036-.02c-14.368-15.944-32.008-14.947-32.008-14.947l.004.018c-42.47-1.706-64.374 50.947-32.52 79.686l76.388-36.157a45.701 45.701 0 00-11.828-28.58z"/><path style="fill:#F9B24B" d="M55.398 374.908l-17.941 37.9c8.841 10.121 24.146 10.375 33.387 1.133 14.176-14.175 4.477-38.397-15.446-39.033z"/><circle style="fill:#FFCA54" cx="193.049" cy="319.402" r="19.56"/><path style="fill:#F9B24B" d="M163.762 218.271l15.01-32.184a17.464 17.464 0 01-.481-1.233c-6.749-6.747-2.191-2.191-22.508-22.509l-.17.366-15.079 32.332 23.228 23.228z"/><path style="fill:#57BAE5" d="M368.514 329.327c-17.785-17.785-167.318-167.311-185.393-185.393-6.621-6.62-17.354-6.62-23.974 0-6.621 6.621-6.621 17.354 0 23.974l185.394 185.393c6.621 6.62 17.353 6.62 23.974 0 6.619-6.619 6.619-17.353-.001-23.974z"/><path style="fill:#70D1F2" d="M344.54 353.3c6.621 6.62 17.353 6.62 23.974 0 6.62-6.619 6.62-17.353 0-23.974l-107.611-107.61a261.061 261.061 0 00-25.887 22.061L344.54 353.3z"/><path style="fill:#34A9D1" d="M155.614 162.711c1.676 3.834 1.651 3.315 22.699 24.363l.46-.987c-5.371-12.284 4.952-25.625 18.202-23.513l-.009-.017s5.32.549 1.566-3.208l-15.41-15.416c-7.004-7.003-18.602-6.582-25.026 1.165-4.051 4.851-5.056 11.741-2.482 17.613z"/><g><path style="fill:#231F20" d="M244.956 197.921a8.071 8.071 0 00-11.416 0 8.07 8.07 0 000 11.415c134.924 134.927 127.773 126.265 127.773 131.302 0 7.546-9.181 11.382-14.539 6.023L165.34 165.228c-3.321-3.321-3.321-8.724-.001-12.045 3.321-3.321 8.726-3.32 12.045-.001l37.648 37.661a8.073 8.073 0 0011.418-11.414l-37.65-37.663c-17.34-17.339-46.77-1.289-41.49 22.76-20.954 44.929 7.249-14.865-144.024 304.726-.099.216-9.52 21.936 4.004 35.459 5.638 5.637 12.69 7.291 19.027 7.291 18.657 0 10.303-2.726 321.223-147.295 24.189 5.241 39.912-24.286 22.694-41.506l-125.278-125.28zM93.26 316.901l30.328-64.072c28.272 24.135 6.517 70.671-30.328 64.072zm-36.957 94.377c-2.446 0-4.799-.61-6.883-1.756l12.235-25.847c14.556 5.821 10.262 27.603-5.352 27.603zm152.327 1.059a52.846 52.846 0 00-11.828-21.524 8.072 8.072 0 00-11.403-.54 8.07 8.07 0 00-.542 11.402 36.722 36.722 0 018.86 17.72l-64.291 30.431c-22.12-26.564 1.692-66.314 35.57-59.46a8.073 8.073 0 003.205-15.824c-46.814-9.49-81.261 43.408-53.682 82.341l-78.357 37.089c-3.294 1.282-13.04 3.739-17.456-.678-4.43-4.43-1.969-14.157-.689-17.43l24.489-51.737c11.25 5.727 25.625 4.088 35.341-5.629 15.139-15.14 10.288-40.856-9.28-49.43l17.616-37.216c56.979 15.139 91.387-60.141 44.48-93.971l12.071-25.502L256.13 325.774a8.073 8.073 0 1011.416-11.417l-117.503-117.5 7.662-16.428L331.59 354.315l-16.443 7.645-29.484-29.484a8.071 8.071 0 10-11.416 11.415l25.374 25.376-90.991 43.07z"/><path style="fill:#231F20" d="M172.484 301.03c-10.61 10.611-10.61 27.877.001 38.487 10.633 10.633 27.85 10.637 38.487 0 10.61-10.611 10.61-27.878-.001-38.488-10.634-10.636-27.849-10.638-38.487.001zm19.245 30.311c-2.958 0-5.737-1.15-7.828-3.243-6.951-6.95-2.002-18.895 7.828-18.895 2.957 0 5.737 1.151 7.827 3.242 6.949 6.95 2.004 18.896-7.827 18.896zM505.331 188.794c-40.159-7.089-52.868 19.263-62.152 38.507-9.236 19.142-14.317 29.691-38.02 19.676-21.988-9.292-40.331-10.421-54.525-3.356-11.318 5.634-15.474 14.486-15.91 15.476-2.356 5.345 1.581 11.329 7.384 11.329a8.074 8.074 0 007.391-4.819c.092-.209 9.601-20.565 49.376-3.759 16.676 7.047 29.811 6.844 40.154-.626 24.786-17.895 18.489-64.479 63.493-56.529 4.388.778 8.578-2.153 9.354-6.545a8.074 8.074 0 00-6.545-9.354zM246.266 162.561l.128-.059 6.51 14.775c9.132-4.033 31.936-23.535 12.117-70.438-10.012-23.694-.09-28.48 19.677-38.017 19.244-9.283 45.599-21.998 38.506-62.152a8.07 8.07 0 00-9.353-6.545 8.071 8.071 0 00-6.546 9.353c4.968 28.116-10.297 35.48-29.621 44.803-17.771 8.573-43.803 20.34-27.534 58.843 16.483 39.009-3.045 49.029-3.884 49.437zM307.357 195.285a8.07 8.07 0 00-5.225 10.15c1.361 4.256 5.912 6.583 10.15 5.226 32.947-10.554 53.004-34.082 55.028-64.557 1.015-15.278 6.364-27.192 15.906-35.414 18.407-15.863 46.871-13.727 47.16-13.701 4.434.378 8.337-2.912 8.721-7.348a8.072 8.072 0 00-7.345-8.739c-1.435-.125-35.344-2.803-58.977 17.472-13.003 11.155-20.26 26.854-21.575 46.661-2.216 33.39-31.399 46.264-43.843 50.25zM221.263 97.682c0-20.206-24.59-30.649-39.059-16.18-8.921 8.922-8.921 23.437 0 32.358 14.464 14.465 39.059 4.031 39.059-16.178zm-22.881-6.737a6.733 6.733 0 016.736 6.737c0 6.021-7.292 8.968-11.498 4.761-4.229-4.227-1.217-11.498 4.762-11.498zM401.646 157.422c0 12.648 10.234 22.882 22.881 22.882 12.645 0 22.883-10.234 22.883-22.882 0-12.645-10.234-22.881-22.883-22.881-12.649.001-22.881 10.234-22.881 22.881zm27.641 4.763a6.73 6.73 0 01-9.524 0 6.732 6.732 0 01-.001-9.525 6.731 6.731 0 019.526 0 6.727 6.727 0 01-.001 9.525z"/><circle style="fill:#231F20" cx="316.797" cy="141.478" r="10.482"/><circle style="fill:#231F20" cx="264.553" cy="18.39" r="10.483"/><path style="fill:#231F20" d="M398.256 294.093l-16.083.506a8.072 8.072 0 00-7.814 8.322 8.072 8.072 0 008.064 7.819c.165 0 16.175-.505 16.34-.51a8.073 8.073 0 007.816-8.321 8.045 8.045 0 00-8.323-7.816zM228.882 69.925c4.34 0 7.927-3.45 8.064-7.819l.505-16.081a8.072 8.072 0 00-7.814-8.323c-4.441-.166-8.182 3.358-8.322 7.814l-.506 16.082a8.073 8.073 0 008.073 8.327zM312.063 82.518a8.072 8.072 0 008.066 7.818c.205 0 16.133-.503 16.339-.51a8.072 8.072 0 007.814-8.322c-.14-4.455-3.841-7.966-8.322-7.814l-16.082.506a8.073 8.073 0 00-7.815 8.322z"/></g><g/><g/><g/><g/><g/><g/><g/><g/><g/><g/><g/><g/><g/><g/><g/></svg>