<svg xmlns="http://www.w3.org/2000/svg" viewBox="231 161.4 50 50">
  <path fill="#0084FF" d="M272.5 169.5c-4.6.5-8.1 2.7-8.1 7.2 0 4.4 4.5 9.5 9.4 11.1 4.1-1.7 6.2-7.6 6.2-12 0-4.3-3.2-5.8-7.5-6.3zm-27.6 0c-4.3.4-7.5 2-7.5 6.3 0 4.4 2.1 10.3 6.2 12 4.9-1.6 9.4-6.8 9.4-11.1 0-4.5-3.5-6.6-8.1-7.2z"/>
  <path d="M241.2 175.2a1 1 0 0 1-.7-.3 1 1 0 0 1 0-1.4l.3-.3a1 1 0 0 1 1.4 0c.4.4.4 1 0 1.4l-.3.3c-.1.2-.4.3-.7.3zm27.9.2a1 1 0 0 1-.7-.3 1 1 0 0 1 0-1.4l.3-.3a1 1 0 0 1 1.4 0c.4.4.4 1 0 1.4l-.3.3c-.2.1-.4.3-.7.3z"/>
  <path d="M277.4 169.8a18 18 0 0 0-7.9-1.3h-27c-3.5 0-6 .4-7.9 1.3a6.2 6.2 0 0 0-3.6 6c0 3 .9 6.2 2.3 8.7 1.8 3.1 4.4 4.8 7.4 4.8s6.3-1.5 9-4.1c2.5-2.4 4.1-5.4 4.3-8 .3-.8 1.1-1.4 2-1.4a2 2 0 0 1 2 1.4c.2 2.6 1.7 5.6 4.3 8 2.7 2.6 6 4.1 9 4.1s5.6-1.7 7.4-4.8c1.4-2.5 2.3-5.7 2.3-8.7 0-2.8-1.2-4.8-3.6-6zm-29.1 13.9a12 12 0 0 1-7.6 3.6c-1.2 0-2.3-.4-3.2-1.1l11.4-11.2c.4-.4.4-1 0-1.4a1 1 0 0 0-1.4 0l-11.4 11.3c-.6-.7-1.1-1.6-1.5-2.5l5.2-5.1c.4-.4.4-1 0-1.4a1 1 0 0 0-1.4 0l-4.5 4.4c-.4-1.5-.7-3-.7-4.4 0-3.8 2.8-5.4 9.5-5.4 3.5 0 9.5.8 9.5 6.3-.3 2.1-1.6 4.7-3.9 6.9zm7.7-9.9c-.8 0-1.6.2-2.3.7a7.3 7.3 0 0 0-3-4.1h10.6a7.3 7.3 0 0 0-3 4.1c-.7-.4-1.5-.7-2.3-.7zm15.3 13.5a10 10 0 0 1-5.2-1.7l11.2-11.1c.4-.4.4-1 0-1.4a1 1 0 0 0-1.4 0l-11.4 11.3-.7-.7-1.3-1.4 5-5c.4-.4.4-1 0-1.4a1 1 0 0 0-1.4 0l-4.8 4.7a7.7 7.7 0 0 1-1.2-3.9c0-5.5 5.9-6.3 9.5-6.3 6.6 0 9.5 1.6 9.5 5.4-.1 4.8-2.8 11.5-7.8 11.5z"/>
  <path fill="#042431" d="M271.8 197.7c.1-.4.1-1-.7-.4-.7.5-1 .6-2.2.6-2.9 0-5-3.7-8.8-3.7-1 0-2.5.4-4.1 1.8a6.2 6.2 0 0 0-4.1-1.8c-1.4 0-2.5.5-3.6 1.1a17 17 0 0 0 5.6 6.7c.8-.5 1.4-1 2-1.7 1.8 2.2 4.3 3.1 8 3.1 4.1 0 7.1-3.6 7.9-5.7z"/>
  <path d="M264 204.4c-3.5 0-6.1-.8-8-2.6-1.9 1.8-4.5 2.6-8 2.6-4.4 0-7.7-3.7-8.7-6.3v-.1c-.1-.3-.2-1 .2-1.5.2-.3.6-.5 1-.5s.7.1 1.1.4c.6.4.6.4 1.6.4s2-.7 3.2-1.5c1.5-1 3.2-2.2 5.6-2.2 1 0 2.4.3 4.1 1.5a6.9 6.9 0 0 1 4.1-1.5c2.3 0 4 1.2 5.6 2.2 1.2.8 2.2 1.5 3.2 1.5s1 0 1.6-.4c.4-.3.8-.4 1.1-.4.4 0 .8.2 1 .5.4.5.3 1.2.2 1.5v.1c-1.2 2.6-4.5 6.3-8.9 6.3zm-8-5.1c.3 0 .6.1.8.4 1.6 1.9 3.8 2.8 7.2 2.8 2.8 0 4.9-1.9 6-3.6l-1.2.1c-1.7 0-3-.9-4.4-1.9-1.4-1-2.7-1.9-4.4-1.9-.8 0-2 .3-3.4 1.5-.4.3-1 .3-1.4 0a4.8 4.8 0 0 0-3.4-1.5c-1.7 0-3 .9-4.4 1.9-1.3.9-2.7 1.9-4.4 1.9l-1.2-.1c1.1 1.6 3.2 3.6 6 3.6 3.4 0 5.7-.8 7.2-2.7.4-.4.7-.5 1-.5z"/>
</svg>
