<svg xmlns="http://www.w3.org/2000/svg" viewBox="231 231 50 50">
  <path fill="#866496" d="M274.4 260.1a2 2 0 0 0-2 2v12.3c0 1.4-1.2 2.6-2.6 2.6h-32.2c-1.4 0-2.6-1.2-2.6-2.6v-32.2c0-1.4 1.2-2.6 2.6-2.6h12.3a2 2 0 0 0 2-2 2 2 0 0 0-2-2h-12.3c-3.6 0-6.6 3-6.6 6.6v32.2c0 3.6 3 6.6 6.6 6.6h32.2c3.6 0 6.6-3 6.6-6.6v-12.3a2 2 0 0 0-2-2z"/>
  <path fill="#19A83B" d="M280.4 240.8l-9.2-9.2c-.8-.8-2.1-.8-2.9 0l-23 23c-.4.4-.6.9-.6 1.4v9.2c0 1.1.9 2 2 2h9.3c.5 0 1-.2 1.4-.6l23-23c.8-.7.8-2 0-2.8zm-25.2 22.4h-6.3v-6.3l21-21 6.3 6.3-21 21z"/>
</svg>
