<svg xmlns="http://www.w3.org/2000/svg" viewBox="225 225 50 50">
  <path fill="#FFC107" d="M270.8 237.3a4.25 4.25 0 0 0-4 5.6l-3.4 2.2c-2.2 1.4-5.2 1-6.8-1.1l-3.3-4.1a4.23 4.23 0 0 0-3.4-6.7c-2.3 0-4.2 1.9-4.2 4.3 0 .9.3 1.8.8 2.5l-3.3 4.1a5.03 5.03 0 0 1-6.8 1.1L233 243c.1-.4.2-.9.2-1.3 0-2.3-1.9-4.2-4.2-4.3-2.3 0-4.2 1.9-4.2 4.3 0 2.2 1.7 4 3.8 4.2l2.5 15.1c.1.5.5.9 1 .9h35.4c.5 0 .9-.4 1-.9l2.5-15.1c2.3-.2 4-2.3 3.8-4.6 0-2.4-1.8-4-4-4z"/>
  <ellipse cx="250" cy="260.6" fill="#FFA000" rx="17.7" ry="5.3"/>
  <path fill="#FFD54F" d="M250 267c-9.3 0-18.8-2.2-18.8-6.4s9.4-6.4 18.8-6.4c9.3 0 18.8 2.2 18.8 6.4s-9.5 6.4-18.8 6.4zm0-10.6c-10.9 0-16.7 2.8-16.7 4.3S239 265 250 265c10.9 0 16.7-2.8 16.7-4.3 0-1.6-5.8-4.3-16.7-4.3z"/>
</svg>
