<svg xmlns="http://www.w3.org/2000/svg" viewBox="225 225.1 50 50">
  <path fill="#FFF" d="M225 242.3l25 28.7 25-28.7-11-13.3h-28l-11 13.3z"/>
  <path fill="#6FF7FF" d="M240.4 242.3H225l25 28.7-9.6-28.7z"/>
  <path fill="#3CC8D8" d="M275 242.3h-15.4L250 271l25-28.7z"/>
  <path fill="#52E6F8" d="M259.6 242.3h-19.1L250 271l9.6-28.7zM236 229l-11 13.3h15.4L236 229z"/>
  <path fill="#0CA7A6" d="M259.6 242.3H275L264 229l-4.4 13.3z"/>
  <path fill="#52E6F8" d="M264 229h-14l9.6 13.3L264 229z"/>
  <path fill="#6FF7FF" d="M240.4 242.3L250 229h-14l4.4 13.3z"/>
  <path fill="#3CC8D8" d="M240.4 242.3h19.1L250 229l-9.6 13.3z"/>
</svg>
