<svg xmlns="http://www.w3.org/2000/svg" width="50" height="50" viewBox="87.8 43.6 50 50"><path d="M94.6 77.4c4 4.1 10.6 7.1 18 7.1 11.1 0 20.4-5.4 22-13.3a3 3 0 002.1-2.8 3 3 0 00-2.4-2.9c-2.2-7.5-11.9-13-21.8-13-9.7 0-18.9 6.4-21.3 13.1a2.9 2.9 0 00-.2 5.7c.3 1.2.9 2.4 1.6 3.5" fill="#ebf3fe" stroke-linejoin="round" stroke="#000"/><path d="M115.5 67.1a3 3 0 00-2.5-1.4v-8.2c4.1 0 7.8 2.2 9.7 5.5" fill="#feb3a0" stroke-linejoin="round" stroke="#000"/><path d="M118.2 65.6l4.6-2.6c1 1.6 1.5 3.5 1.5 5.5s-.5 3.9-1.5 5.5l-7.2-4.1c.2-.4.4-.9.4-1.4 0-.5-.1-1-.4-1.4" fill="#fecd78" stroke-linejoin="round" stroke="#000"/><path d="M113 79.6c-4.1 0-7.8-2.2-9.7-5.5l7.2-4.1a3 3 0 002.5 1.4" fill="#7fe3fd" stroke-linejoin="round" stroke="#000"/><path d="M113 71.4a3 3 0 002.5-1.4l7.2 4.1a11.2 11.2 0 01-9.7 5.5v-5.1" fill="#64d8b5" stroke-linejoin="round" stroke="#000"/><path d="M110.5 70l-7.2 4.1c-1-1.6-1.5-3.5-1.5-5.5s.5-3.9 1.5-5.5l7.2 4.1" fill="#b58be0" stroke-linejoin="round" stroke="#000"/><path d="M113 57.5v8.2a3 3 0 00-2.5 1.4l-7.2-4.1c2-3.3 5.6-5.5 9.7-5.5z" fill="#ff8d9f" stroke-linejoin="round" stroke="#000"/><path d="M110.6 67.1a3 3 0 015 0c.2.4.4.9.4 1.4 0 .5-.1 1-.4 1.4a3 3 0 01-5 0" fill="#313c3e" stroke-linejoin="round" stroke="#000"/><path d="M112.6 53.2c-9.2.1-18 5.6-20.7 12.7l-.5.4c-.5 0-1.9.5-2 2.1 0 1.1.6 2 1.8 2.3l.4.4c1.7 6.3 9.9 12.7 21.1 12.7 0 0-5.6-4.1-5.6-14.5 0-10.5 5.5-16.1 5.5-16.1z" fill="#c2d5f7" opacity=".5"/></svg>