<svg xmlns="http://www.w3.org/2000/svg" width="50" height="34" viewBox="87.7 51.3 50 34"><path fill="none" d="M87.7 51.3h50v34h-50z"/><path fill="#F9F9F9" stroke="#BABABA" stroke-width="2.7" stroke-linecap="round" stroke-linejoin="round" stroke-miterlimit="10" d="M95.3 76.9a24 24 0 0017.3 6.9c10.7 0 19.6-5.2 21.1-12.9 1.2-.3 2-1.4 2-2.7 0-1.4-1-2.5-2.3-2.8-2.1-7.3-11.5-12.7-21-12.7-9.3 0-18.1 6.2-20.4 12.7a2.8 2.8 0 00-.2 5.5c.3 1.2.8 2.3 1.5 3.4"/><ellipse fill="#BABABA" cx="113" cy="68.3" rx="11" ry="10.9"/></svg>