<?xml version="1.0" encoding="utf-8"?>
<!-- Generator: Adobe Illustrator 16.0.4, SVG Export Plug-In . SVG Version: 6.00 Build 0)  -->
<!DOCTYPE svg PUBLIC "-//W3C//DTD SVG 1.1//EN" "http://www.w3.org/Graphics/SVG/1.1/DTD/svg11.dtd">
<svg version="1.1" id="Layer_1" xmlns="http://www.w3.org/2000/svg" xmlns:xlink="http://www.w3.org/1999/xlink" x="0px" y="0px"
	 width="52px" height="36px" viewBox="86.717 50.27 52 36" enable-background="new 86.717 50.27 52 36" xml:space="preserve">
<rect id="transparent_BG" x="86.717" y="50.27" opacity="0" fill="#FFFFFF" width="52" height="36"/>
<path fill="#f8f9fa" stroke="#BABABA" stroke-width="2.9" stroke-linecap="round" stroke-linejoin="round" stroke-miterlimit="10" d="
	M93.833,77.726c4.131,4.356,10.99,7.544,18.798,7.544c11.591,0,21.261-5.704,22.881-14.114c1.274-0.375,2.205-1.558,2.205-2.962
	c0-1.497-1.057-2.745-2.46-3.029c-2.323-8.039-12.451-13.894-22.779-13.894c-10.141,0-19.706,6.826-22.156,13.949
	c-1.474,0.227-2.604,1.504-2.604,3.052c0,1.454,1,2.672,2.345,3c0.332,1.281,0.896,2.549,1.663,3.766"/>
<g id="iris">
	
		<path id="feb3a0_1_" fill="#BABABA" stroke="#BABABA" stroke-width="0" stroke-linecap="round" stroke-linejoin="round" stroke-miterlimit="1" d="
		M115.63,66.818c-0.518-0.9-1.483-1.506-2.59-1.506v-8.735c4.316,0,8.088,2.361,10.104,5.873"/>
	
		<path id="fecd77_1_" fill="#BABABA" stroke="#BABABA" stroke-width="0" stroke-linecap="round" stroke-linejoin="round" stroke-miterlimit="1" d="
		M118.396,65.21l4.747-2.76c0.993,1.726,1.562,3.733,1.562,5.874s-0.568,4.146-1.562,5.871l-7.513-4.366
		c0.255-0.441,0.401-0.957,0.401-1.505c0-0.551-0.146-1.063-0.401-1.506"/>
	
		<path id="_x37_fe3fd_1_" fill="#BABABA" stroke="#BABABA" stroke-width="0" stroke-linecap="round" stroke-linejoin="round" stroke-miterlimit="1" d="
		M113.04,80.069c-4.315,0-8.087-2.362-10.103-5.874l7.512-4.366c0.519,0.899,1.484,1.507,2.591,1.507"/>
	
		<path id="_x36_2d8b5_1_" fill="#BABABA" stroke="#BABABA" stroke-width="0" stroke-linecap="round" stroke-linejoin="round" stroke-miterlimit="1" d="
		M113.04,71.335c1.106,0,2.072-0.607,2.59-1.507l7.514,4.366c-2.016,3.512-5.787,5.874-10.104,5.874v-5.45"/>
	
		<path id="b58be0_1_" fill="#BABABA" stroke="#BABABA" stroke-width="0" stroke-linecap="round" stroke-linejoin="round" stroke-miterlimit="1" d="
		M110.45,69.829l-7.513,4.366c-0.993-1.725-1.562-3.73-1.562-5.871s0.568-4.147,1.562-5.874l7.512,4.368"/>
	
		<path id="fe919e" fill="#BABABA" stroke="#BABABA" stroke-width="0" stroke-linecap="round" stroke-linejoin="round" stroke-miterlimit="1" d="
		M113.04,56.577v8.735c-1.106,0-2.072,0.605-2.59,1.506l-7.513-4.368C104.953,58.938,108.725,56.577,113.04,56.577z"/>
</g>
</svg>
