<svg xmlns="http://www.w3.org/2000/svg" width="50" height="50">
  <path fill="#a9a9a9" d="M41.8 4.5H50v24.8h-8.2zM38.1 29.6s-1.5 3.1-8.7 7.4c-6.6 2.5-9.8 5.5-9.8 5.5s-3.5 3.4-6.2 7.5c-2.7.3-3.5-4.7-3.6-5.2 0-.5-.8-4.7 2.3-8.1 2.3-2.9 1.7-4 1.6-4.3-.3-1.2-2.9-1.5-6.7-2.1-7.5-1.4-7.1-3.8-7.1-4.2.4-2.6 2.8-4.5 3.7-5.2-1.1-1.4-1-2.1-1-2.9.1-.8.5-1.6 1.3-2.3 1.7-1.5 2-1.6 2.5-1.9a3.5 3.5 0 0 1-1.3-2.1c-.2-1.1.4-1.9 1-2.6A9.2 9.2 0 0 1 9 6.6c-1.5-2.5-.6-3.7-.3-4C10 1.2 11.4.2 17.8 0c4.1.2 7 .9 11.2 2.6 4.2 1.7 9.1 2 9.1 2"/>
</svg>
