<?xml version="1.0" encoding="iso-8859-1"?><!--Generator: Adobe Illustrator 16.0.0, SVG Export Plug-In . SVG Version: 6.00 Build 0)--><!DOCTYPE svg PUBLIC "-//W3C//DTD SVG 1.1//EN" "http://www.w3.org/Graphics/SVG/1.1/DTD/svg11.dtd"><svg xmlns="http://www.w3.org/2000/svg" width="512" height="512" viewBox="0 0 438.536 438.536" style="enable-background:new 0 0 438.536 438.536"><g><g fill="#1edea8"><path d="M414.41 24.123C398.333 8.042 378.963 0 356.315 0H82.228C59.58 0 40.21 8.042 24.126 24.123 8.045 40.207.003 59.576.003 82.225v274.084c0 22.647 8.042 42.018 24.123 58.102 16.084 16.084 35.454 24.126 58.102 24.126h274.084c22.648 0 42.018-8.042 58.095-24.126 16.084-16.084 24.126-35.454 24.126-58.102V82.225c-.001-22.649-8.043-42.021-24.123-58.102zM155.316 365.445H73.089v-82.228l155.316-155.311 82.221 82.224-155.31 155.315zm199.853-199.853l-26.262 26.269-82.228-82.229 26.262-26.265c5.331-5.325 11.8-7.993 19.417-7.993 7.611 0 14.086 2.664 19.41 7.993l43.4 43.398c5.324 5.327 7.994 11.798 7.994 19.414.001 7.613-2.661 14.083-7.993 19.413z"/><path d="M100.502 294.642v15.981h27.408v27.415h15.986l14.848-14.849-43.397-43.4zM141.901 252.385c-3.237 3.23-3.521 6.084-.859 8.562 2.474 2.67 5.33 2.382 8.566-.855l83.081-83.083c3.237-3.23 3.519-6.086.855-8.561-2.478-2.667-5.328-2.383-8.562.855l-83.081 83.082z"/></g></g><g/><g/><g/><g/><g/><g/><g/><g/><g/><g/><g/><g/><g/><g/><g/></svg>