<svg xmlns="http://www.w3.org/2000/svg" viewBox="224.9 225 50 50">
  <path fill="#FF6536" d="M230.7 249.4s1.9 2.9 6 5.4c0 0-2.9-25.3 16.2-29.7-4.9 18.4 6.2 23.6 10.3 13.8 6.8 9.2 1.6 17.3 1.6 17.3 2.8.4 5.1-2.7 5.1-2.7v1.2c0 11.3-9 20.4-20 20.4a20.2 20.2 0 0 1-19.2-25.7z"/>
  <path fill="#FF421D" d="M270 253.5s-2.3 3.1-5.1 2.7c0 0 5.2-8.1-1.6-17.3-4.1 9.7-15.2 4.5-10.3-13.8-1 .2-2 .5-2.9.9v49c11 0 20-9.1 20-20.4l-.1-1.1z"/>
  <path fill="#FBBF00" d="M241.2 266.1c0 4.9 3.9 8.9 8.8 8.9 4.8 0 8.8-4 8.8-8.9 0-2.6-1.1-5-2.9-6.7-3.4 4.7-8.2-2.4-4.5-7.6 0 0-10.2 1.3-10.2 14.3z"/>
  <path fill="#FFA900" d="M258.8 266.1c0-2.6-1.1-5-2.9-6.7-3.4 4.7-8.2-2.4-4.5-7.6l-1.4.3V275c4.8 0 8.8-4 8.8-8.9z"/>
</svg>
