<svg xmlns="http://www.w3.org/2000/svg" width="50" height="30" viewBox="155.8 80.4 50 30"><g fill="#7f68fd"><path d="M170.1 99.2c-1.5.4-5.5.5-4.6 0 2.3-.5 0-1.4 0-1.4h4.6c0 .1-2.1.9 0 1.4z"/><path d="M176.8 89.3c0 4.9-4 8.9-8.8 8.9a8.9 8.9 0 010-17.8c4.8 0 8.8 4 8.8 8.9z"/></g><path fill="#fff" d="M174.5 89.3a6.7 6.7 0 11-13.4 0 6.7 6.7 0 0113.4 0z"/><path fill="#f15bd8" d="M173.1 89.3c0 2.9-2.3 5.3-5.2 5.3s-5.2-2.4-5.2-5.3 2.3-5.3 5.2-5.3 5.2 2.4 5.2 5.3z"/><path fill="#7f68fd" d="M169.7 99.2l3.8.1c4 .3 5.4 3 5.4 3.2.5 1.3.8 2.1.8 2.8v5.1h-4v-4s0-.6-.6-.6-.6.6-.6.6v4H161v-4s0-.6-.6-.6-.6.6-.6.6v4h-4v-5.1c0-.8.3-1.5.8-2.8.1-.2 1.4-2.8 5.4-3.2l3.8-.1m.1 0h3.8"/><path fill="#f15bd8" d="M196.3 99.2c-1.5.4-5.5.5-4.6 0 2.3-.5 0-1.4 0-1.4h4.6c0 .1-2.2.9 0 1.4z"/><path fill="#f15bd8" d="M202.9 89.3c0 4.9-4 8.9-8.8 8.9a8.9 8.9 0 010-17.8c4.9 0 8.8 4 8.8 8.9z"/><path fill="#fff" d="M200.7 89.3a6.7 6.7 0 11-13.4 0 6.7 6.7 0 0113.4 0z"/><path fill="#7f68fd" d="M199.3 89.3c0 2.9-2.3 5.3-5.2 5.3s-5.2-2.4-5.2-5.3 2.3-5.3 5.2-5.3 5.2 2.4 5.2 5.3z"/><path fill="#f15bd8" d="M195.8 99.2l3.8.1c4 .3 5.4 3 5.4 3.2.5 1.3.8 2.5.8 2.8v5.1h-4v-4s0-.6-.6-.6-.6.6-.6.6v4h-13.5v-4s0-.6-.6-.6-.6.6-.6.6v4h-4v-5.1s.3-1.5.8-2.8c.1-.2 1.4-2.8 5.4-3.2l3.8-.1m.1 0h3.8"/><path fill="#7f68fd" d="M175 94.4c7.9-6.9 15.9-1.4 15.9-1.4v-6.5s-9 3.7-16.9-3.2"/></svg>