<svg xmlns="http://www.w3.org/2000/svg" width="30" height="30" viewBox="235 235 30 30"><path fill="#A9A9A9" d="M250 235a.63.63 0 1 0-.39 1.12l3.13 2.5c.27.22.66.17.88-.1a.62.62 0 0 0-.1-.88l-1.56-1.25c6.66.95 11.8 6.69 11.8 13.61 0 6.19-4.18 11.65-10.16 13.26a.63.63 0 0 0-.44.77.62.62 0 0 0 .76.44A15.02 15.02 0 0 0 265 250c0-8.27-6.73-15-15-15zm-2.73 26.39a.62.62 0 0 0-.88.1.63.63 0 0 0 .1.88l1.56 1.25a13.76 13.76 0 0 1-11.79-13.61c0-6.19 4.18-11.64 10.16-13.26a.63.63 0 0 0 .44-.77.63.63 0 0 0-.77-.44A15.01 15.01 0 0 0 235 250c0 8.27 6.73 15 15 15a.63.63 0 0 0 .39-1.11l-3.12-2.5z"/><circle fill="#A9A9A9" cx="250" cy="245.63" r="4.38"/><circle fill="#FEFEFE" cx="250" cy="245.63" r="3.13"/><path opacity=".1" d="M251.69 243a3.13 3.13 0 0 1-2.62 4.82c-.62 0-1.2-.19-1.69-.5a3.13 3.13 0 1 0 4.31-4.32z"/><path fill="#A9A9A9" d="M243.28 253.04a3.76 3.76 0 0 0-2.03 3.34v.57c0 .99.8 1.8 1.79 1.8h13.93a1.8 1.8 0 0 0 1.79-1.8v-.57c0-1.41-.78-2.69-2.03-3.34-1.57-.82-4.02-1.79-6.72-1.79s-5.15.97-6.73 1.79z"/><path fill="#FEFEFE" d="M257.5 256.38v.57c0 .3-.24.55-.54.55h-13.93a.54.54 0 0 1-.54-.55v-.57c0-.94.52-1.8 1.36-2.23 1.45-.75 3.69-1.65 6.14-1.65s4.69.9 6.14 1.65a2.49 2.49 0 0 1 1.37 2.23z"/><path opacity=".1" d="M256.14 254.15a13.77 13.77 0 0 0-6.14-1.65c-.21 0-.42.02-.62.03 2.2.14 4.19.93 5.52 1.62a2.5 2.5 0 0 1 1.36 2.23v.57c0 .3-.24.55-.54.55h1.25c.3 0 .54-.24.54-.55v-.57a2.53 2.53 0 0 0-1.37-2.23z"/><linearGradient id="a" gradientUnits="userSpaceOnUse" x1="-32.19" y1="-127.3" x2="-30.89" y2="-126.7" gradientTransform="translate(907.07 2895.86) scale(20.8333)"><stop offset="0" stop-color="#fff" stop-opacity=".2"/><stop offset="1" stop-color="#fff" stop-opacity="0"/></linearGradient><path fill="url(#a)" d="M250 235a.63.63 0 1 0-.39 1.12l3.13 2.5c.27.22.66.17.88-.1a.62.62 0 0 0-.1-.88l-1.56-1.25c6.66.95 11.8 6.69 11.8 13.61 0 6.19-4.18 11.65-10.16 13.26a.63.63 0 0 0-.44.77.62.62 0 0 0 .76.44A15.02 15.02 0 0 0 265 250c0-8.27-6.73-15-15-15zm-2.73 26.39a.62.62 0 0 0-.88.1.63.63 0 0 0 .1.88l1.56 1.25a13.76 13.76 0 0 1-11.79-13.61c0-6.19 4.18-11.64 10.16-13.26a.63.63 0 0 0 .44-.77.63.63 0 0 0-.77-.44A15.01 15.01 0 0 0 235 250c0 8.27 6.73 15 15 15a.63.63 0 0 0 .39-1.11l-3.12-2.5zm2.73-20.14a4.38 4.38 0 1 0 .01 8.75 4.38 4.38 0 0 0-.01-8.75zm-6.72 11.79a3.76 3.76 0 0 0-2.03 3.34v.57c0 .99.8 1.8 1.79 1.8h13.93a1.8 1.8 0 0 0 1.79-1.8v-.57c0-1.41-.78-2.69-2.03-3.34-1.57-.82-4.02-1.79-6.72-1.79s-5.15.97-6.73 1.79z"/></svg>