<svg xmlns="http://www.w3.org/2000/svg" width="50" height="50" viewBox="228.7 228.7 50 50"><path fill="#B6B6B6" d="M272.4 256.4c0-.8.3-1.5.3-2.5s0-1.8-.3-2.5l5.4-4.3c.5-.5.5-1 .3-1.5l-5.1-8.8c-.3-.3-.8-.5-1.5-.3l-6.4 2.5a23 23 0 0 0-4.3-2.5l-1-6.5c.3-.8-.5-1.3-1-1.3h-10.2c-.5 0-1.3.5-1.3 1l-1 6.8c-1.5.5-2.8 1.5-4.3 2.5l-6.1-2.5c-.8-.3-1.3 0-1.8.5l-5.1 8.8c-.3.3 0 1 .5 1.5l5.4 4c0 .8-.3 1.5-.3 2.5s0 1.8.3 2.5l-5.4 4.3c-.5.5-.5 1-.3 1.5l5.1 8.8c.3.3.8.5 1.5.3l6.4-2.5a23 23 0 0 0 4.3 2.5l1 6.5c0 .5.5 1 1.3 1H259c.5 0 1.3-.5 1.3-1l1-6.5c1.5-.8 3.1-1.5 4.3-2.5l6.4 2.5c.5.3 1.3 0 1.5-.5l5.1-8.8c.3-.5.3-1.3-.3-1.5l-5.9-4zm-18.8 6.2c-4.8 0-8.9-4-8.9-8.8s4.1-8.8 8.9-8.8c4.8 0 8.9 4 8.9 8.8s-4.1 8.8-8.9 8.8z"/></svg>