<svg xmlns="http://www.w3.org/2000/svg" viewBox="231 231 50 50">
  <path fill="#9274A0" d="M266.9 256.1l-2.9-1.2a13.3 13.3 0 1 0-16 0 25 25 0 0 0-16.9 18.9 6 6 0 0 0 5.8 7.2H261c1.1 0 2-.9 2-2s-.9-2-2-2h-24.1c-.8 0-1.3-.5-1.6-.7a2 2 0 0 1-.4-1.7c2-9.7 10.6-16.8 20.5-17.1h1c3 .1 6 .8 8.7 2.1 1 .5 2.1 0 2.6-.9s.2-2.1-.8-2.6zm-10.4-2.5h-.9c-5-.2-8.9-4.4-8.9-9.4a9.4 9.4 0 1 1 9.8 9.4z"/>
  <path fill="#11AE59" d="M279 269.8h-5.4v-5.4a2 2 0 0 0-2-2 2 2 0 0 0-2 2v5.4h-5.4c-1.1 0-2 .9-2 2s.9 2 2 2h5.4v5.4c0 1.1.9 2 2 2a2 2 0 0 0 2-2v-5.4h5.4c1.1 0 2-.9 2-2s-.9-2-2-2z"/>
</svg>
