<svg xmlns="http://www.w3.org/2000/svg" viewBox="0 0 50 50"><path d="M48.1 18.6l-15.7-1.5-6.2-14.5c-.4-1-1.9-1-2.3 0l-6.2 14.5-15.8 1.5c-1.1.1-1.5 1.5-.7 2.2L13 31.2 9.6 46.6c-.2 1.1.9 1.9 1.9 1.4L25 39.9 38.6 48c1 .6 2.1-.3 1.9-1.4L37 31.2l11.9-10.4c.8-.8.3-2.1-.8-2.2z" fill="#ccc"/><path d="M26.2 2.6c-.4-1-1.9-1-2.3 0l-6.2 14.5-15.8 1.5c-1.1.1-1.5 1.5-.7 2.2L13 31.2 9.6 46.6c-.2 1.1.9 1.9 1.9 1.4l3-1.8A55.3 55.3 0 0129.3 9.8l-3.1-7.2z" fill="#b3b3b3"/><path d="M49.9 19.2c-.2-.8-.9-1.3-1.7-1.4l-15.3-1.4-3-7c-.2-.4-.6-.5-1-.4-.4.2-.5.6-.4 1l3.2 7.4c.1.2.3.4.6.4L48 19.3c.3 0 .4.3.5.4 0 .1.1.4-.2.6L36.5 30.6c-.2.2-.3.4-.2.7l3.5 15.4c.1.3-.1.5-.2.5-.1.1-.3.2-.6 0l-13.6-8.1a.9.9 0 00-.7 0l-13.6 8.1c-.3.2-.5 0-.6 0-.1-.1-.3-.2-.2-.5l1.8-7.9c.1-.4-.2-.8-.6-.9-.4-.1-.8.2-.9.6l-1.8 7.9c-.2.8.1 1.6.8 2a2 2 0 002.2.1L25 40.8l13.2 7.8a2 2 0 002.2-.1c.7-.5 1-1.3.8-2l-3.4-15 11.5-10.1c.6-.6.8-1.4.6-2.2z" fill="#ccc"/><path d="M11.3 35.4c-.1.4.2.8.6.9h.2c.3 0 .6-.2.7-.6l1-4.3c.1-.3 0-.5-.2-.7l-12-10.5c-.2-.2-.2-.5-.2-.6 0-.1.1-.3.5-.4l15.7-1.5c.3 0 .5-.2.6-.4l6.2-14.5c.1-.3.4-.3.5-.3.1 0 .4 0 .5.3l1.7 3.9c.2.4.6.5 1 .4.4-.2.5-.6.4-1l-1.7-3.9A2 2 0 0025 1a2 2 0 00-1.8 1.2l-6.1 14.1-15.3 1.5c-.8.1-1.5.6-1.7 1.4a2 2 0 00.6 2.1l11.5 10.1-.9 4z" fill="#b3b3b3"/></svg>