<svg xmlns="http://www.w3.org/2000/svg" version="1.1" x="0" y="0" width="25.5" height="25.5" viewBox="-0.5 0.3 25.5 25.5" enable-background="new -0.5 0.25 25.5 25.5" xml:space="preserve"><circle fill="#FFFFFF" stroke="#6092F8" stroke-width="1.5" stroke-miterlimit="10" cx="12.3" cy="13" r="12"/><path fill="#6092F8" d="M8.6 6.6C8.5 6.7 8.4 6.8 8.3 6.9 8.5 6.7 8.6 6.6 8.6 6.6zM14.5 7.7c0.4 0.5 0.7 1.2 0.7 1.9 0 0.5-0.2 1-0.4 1.5 -0.2 0.3-0.4 0.5-0.7 0.8l-0.9 0.9c-0.9 0.8-1.4 1.6-1.7 2.3 -0.3 0.7-0.4 1.5-0.4 2.6h2c0-0.9 0.1-1.7 0.3-2.1 0.2-0.5 0.7-1.1 1.4-1.8 1-1 1.6-1.7 2-2.2 0.3-0.5 0.5-1.1 0.5-1.9 0-1.3-0.4-2.4-1.3-3.2s-2.1-1.3-3.5-1.3c-1.6 0-2.8 0.5-3.8 1.5C7.7 7.5 7.3 8.9 7.3 10.5h2c0-1 0.2-1.7 0.5-2.2 0.5-0.9 1.3-1.4 2.6-1.4C13.3 6.8 14 7.1 14.5 7.7L14.5 7.7zM11.1 18.8h2v2.1h-2V18.8z"/></svg>