<svg xmlns="http://www.w3.org/2000/svg" viewBox="208.4 210.1 54.2 54.2">
  <circle cx="235.5" cy="237.2" r="25" fill="#FFF" stroke="#8c76a6" stroke-miterlimit="10" stroke-width="4.2"/>
  <path fill="#8c76a6" d="M228.9 226.2l-.5.5.5-.5zm10.1 1.9c.7.8 1.2 2.1 1.2 3.2 0 .8-.3 1.7-.7 2.6l-1.2 1.4-1.6 1.6a9.8 9.8 0 0 0-2.9 4c-.5 1.2-.7 2.6-.7 4.4h3.5c0-1.6.2-2.9.5-3.6.3-.8 1.2-1.9 2.4-3l3.5-3.8c.5-.8.8-1.9.8-3.3 0-2.2-.7-4.1-2.2-5.5a8.9 8.9 0 0 0-6-2.2c-2.7 0-4.8.8-6.5 2.6-1.7 1.4-2.4 3.9-2.4 6.6h3.5c0-1.7.3-2.9.8-3.8.8-1.6 2.2-2.4 4.4-2.4 1.5-.4 2.7.1 3.6 1.2zm-5.9 19h3.5v3.6h-3.5v-3.6z"/>
</svg>
