<svg xmlns="http://www.w3.org/2000/svg" viewBox="-14.8 -14.1 54.2 54.2">
  <circle cx="12.3" cy="13" r="25" fill="#FFF" stroke="#19A83B" stroke-miterlimit="10" stroke-width="4.2"/>
  <path fill="#19A83B" d="M4.6-.3L4 .3l.6-.6zM16.9 2c.8 1 1.4 2.5 1.4 3.9 0 1-.4 2.1-.8 3.1-.4.6-.8 1-1.5 1.7l-1.9 1.9c-1.9 1.7-2.9 3.3-3.5 4.8-.6 1.4-.8 3.1-.8 5.4H14c0-1.9.2-3.5.6-4.4.4-1 1.5-2.3 2.9-3.7 2.1-2.1 3.3-3.5 4.2-4.6.6-1 1-2.3 1-4 0-2.7-.8-5-2.7-6.7-1.9-1.7-4.4-2.7-7.3-2.7-3.3 0-5.8 1-7.9 3.1-2.1 1.7-2.9 4.7-2.9 8h4.2c0-2.1.4-3.5 1-4.6C8.1 1.3 9.8.3 12.5.3c1.9-.2 3.3.4 4.4 1.7zM9.8 25.1H14v4.4H9.8v-4.4z"/>
</svg>
