<svg xmlns="http://www.w3.org/2000/svg" viewBox="231 231 50 50">
  <path fill="#19A83B" d="M274.8 231h-29.3c-3.4 0-6.2 2.8-6.2 6.2v31.5h-6.4c-1.1 0-2 .9-2 2v4.2c0 3.4 2.8 6.2 6.2 6.2h29.3c3.4 0 6.2-2.8 6.2-6.2v-31.5h6.4c1.1 0 2-.9 2-2v-4.2c0-3.4-2.8-6.2-6.2-6.2zm-37.6 46.1c-1.2 0-2.2-1-2.2-2.2v-2.2h25.4v2.2c0 .8.2 1.6.4 2.2h-23.6zm31.5-39.9v37.7c0 1.2-1 2.2-2.2 2.2s-2.2-1-2.2-2.2v-4.2c0-1.1-.9-2-2-2h-18.9v-31.5c0-1.2 1-2.2 2.2-2.2h23.6c-.3.6-.5 1.4-.5 2.2zm8.4 2.2h-4.5v-2.2c0-1.2 1-2.2 2.2-2.2s2.2 1 2.2 2.2v2.2z"/>
</svg>
