<?xml version="1.0" encoding="iso-8859-1"?><!--Generator: Adobe Illustrator 19.0.0, SVG Export Plug-In . SVG Version: 6.00 Build 0)--><svg xmlns="http://www.w3.org/2000/svg" style="enable-background:new 0 0 512 512" width="512" height="512"><g><g><path d="M449 0H149c-34.738 0-63 28.262-63 63v323H20c-11.046 0-20 8.954-20 20v43c0 34.738 28.262 63 63 63h300c34.738 0 63-28.262 63-63V126h66c11.046 0 20-8.954 20-20V63c0-34.738-28.262-63-63-63zM63 472c-12.682 0-23-10.317-23-23v-23h260v23c0 8.089 1.624 16.086 4.347 23H63zM386 63v386c0 12.683-10.317 23-23 23s-23-10.317-23-23v-43c0-11.046-8.954-20-20-20H126V63c0-12.683 10.318-23 23-23h241.347C387.62 46.92 386 54.928 386 63zm86 23h-46V63c0-12.683 10.317-23 23-23s23 10.317 23 23v23z" fill="#db4437"/></g></g><g/><g/><g/><g/><g/><g/><g/><g/><g/><g/><g/><g/><g/><g/><g/></svg>