<svg xmlns="http://www.w3.org/2000/svg" width="32" height="32" viewBox="240 230.6 32 32"><g fill="#f8f9fa"><path d="M265.5 241.2h-4v-6.6c0-1.1.9-2 2-2a2 2 0 012 2v6.6z"/><path d="M263.7 260.6h-15.4a3 3 0 01-3-3v-13.2l10.7-9.6 10.7 9.6v13.2a3 3 0 01-3 3z"/><path d="M266.6 246.9l-10.6-9.6-10.6 9.6c-1 .9-2.4.8-3.3-.2s-.8-2.4.2-3.3l10.7-9.7a4.6 4.6 0 0 16.2 0l10.7 9.7c1 .9 1 2.4.2 3.3-.6.6-2.1 1.3-3.5.2z"/><path d="M246.2 242.7c-1-1.4.1-2.9.1-2.9l-4.1 3.7c-1 .9-1 2.4-.2 3.3.9 1 2.4 1 3.3.2l3.7-3.4c.1-.1-1.8.5-2.8-.9z"/></g><path fill="#a9a9a9" d="M248.3 260.8c-2 0-3.6-1.6-3.6-3.5V248l-1 .1a3 3 0 01-2.1-.9c-.5-.6-.8-1.3-.8-2.1s.4-1.5 1-2l10.7-9.4a5.4 5.4 0 017 0l1.3 1.1c0-.5.2-1.2.7-1.7.5-.5 1.1-.7 1.9-.7 1.5 0 2.7 1.2 2.7 2.6v2.8c0 .3-.3.6-.6.6s-.6-.3-.6-.6V235c0-.7-.6-1.3-1.4-1.3-.8 0-1.4.6-1.4 1.3v1l8.1 7.1a3 3 0 011 2c0 .8-.2 1.5-.8 2.1-.4.4-1.3.9-2.3.9l-.8-.1v9.3c0 1.9-1.6 3.5-3.6 3.5h-15.4zm15.4-1.3c1.3 0 2.4-1 2.4-2.3v-10l-10.1-8.8-4 3.5-.4.2-.5-.2a.8.8 0 01-.2-.4l.2-.4 4.4-3.9.4-.2.4.2 10.6 9.3c.3.3.7.4 1.1.4.6 0 1.2-.3 1.3-.5.3-.3.5-.7.4-1.2 0-.4-.2-.8-.6-1.1l-10.7-9.4c-.7-.7-1.7-1-2.7-1-1 0-2 .4-2.7 1l-10.7 9.4c-.3.3-.5.7-.6 1.1 0 .4.1.9.4 1.2.3.3.8.5 1.3.5.4 0 .8-.2 1.1-.4l4.7-4.1.4-.2.5.2.2.5-.2.4-4.5 4v10c0 1.3 1.1 2.3 2.4 2.3h2.6v-8.2c0-1.5 1.3-2.8 2.9-2.8h4.4c1.6 0 2.9 1.2 2.9 2.8v7.1c0 .3-.3.6-.6.6s-.6-.3-.6-.6v-7.1c0-.8-.7-1.5-1.6-1.5h-4.4c-.9 0-1.6.7-1.6 1.5v8.2h11.7z"/></svg>