<svg xmlns="http://www.w3.org/2000/svg" width="512" height="512">
  <path fill="#FFF" stroke="#000" stroke-miterlimit="10" d="M53.5 53.5h405v405h-405z"/>
  <path fill="#8C76A6" d="M455.1 0H56.9C25.6 0 0 25.6 0 56.9v398.2C0 486.4 25.6 512 56.9 512h398.2c31.3 0 56.9-25.6 56.9-56.9V56.9C512 25.6 486.4 0 455.1 0zm0 455.1H56.9V56.9h398.2v398.2zm-169.2-83.7c0 14.9-12.1 27-27 27H256c-14.9 0-27-12.1-27-27V247.2c0-14.9 12.1-27 27-27h2.9c14.9 0 27 12.1 27 27v124.2zm0-230.6c0 15.7-12.8 28.5-28.5 28.5s-28.5-12.8-28.5-28.5 12.8-28.5 28.5-28.5 28.5 12.7 28.5 28.5z"/>
</svg>
