<svg xmlns="http://www.w3.org/2000/svg" viewBox="230.8 263.4 50 50">
  <path fill="none" d="M230.8 263.4h50v50h-50z"/>
  <path fill="#BEBEBE" d="M278.2 296.4c-2.8 1.6-6.7 3-10.5 3.7-3.4.5-9.9-.8-9.9-2.3 0-.6 5.7 1.5 9.1.5 2.6-.7 2.3-3.2.8-3.5-1.4-.3-9.7-3.4-13.3-3.5-1.7 0-5.8.6-7.8.9-.7.1-1.1.1-1.2.8-.2 3.1-.6 9.4-.8 12.8 0 .1.1 1 .9.3s2-1.5 3.1-1.3c1.7.4 16.4 3.1 18.4 2.7 2.9-.7 11.1-5.6 12.7-7.2 2.4-2.5.5-5.1-1.5-3.9zm-36.9-4.5l-7.7-.4c-.6 0-1.2.4-1.4 1l-1.4 12.9c-.1.6.2 1.1.8 1.1h8.5c.6 0 1.1-.4 1.2-1.1l.9-12.5c0-.6-.4-1.1-1-1.1.1.2.1.2.1.1zm39.1-5.3c0 1.9-1.6 3.4-3.7 3.4h-18.8c-2.1 0-3.7-1.5-3.7-3.4v-13.8c0-1.9 1.6-3.4 3.7-3.4h18.8c2.1 0 3.7 1.5 3.7 3.4v13.8z"/>
  <path fill="none" stroke="#FFF" stroke-width="1.5" d="M258 275.4h18.3M258 280h18.3M258 284.8h9.1"/>
</svg>
