<svg xmlns="http://www.w3.org/2000/svg" viewBox="166.8 232 50 50">
  <path fill="none" d="M166.8 232h50v50h-50z"/>
  <path fill="#BEBEBE" d="M191.7 258.3c2.9 0 5.3 2.4 5.3 5.2s-2.4 5.2-5.3 5.2-5.3-2.4-5.3-5.2 2.4-5.2 5.3-5.2zm17.5 6.4l-11.5 11.4c-.3.3-.5.7-.5 1.2v4.6h-11v-4.6c0-.4-.2-.9-.5-1.2l-11.5-11.4c-.4-.4-.6-.8-.6-1.3s.2-1 .6-1.3c.4-.4.8-.6 1.3-.6s1 .2 1.3.6l9.6 9.6c.3.3.7.5 1.2.5h8c.4 0 .9-.2 1.2-.5l9.6-9.6c.4-.4.8-.6 1.4-.6s1 .2 1.3.6c.4.4.6.8.6 1.3s-.2 1-.5 1.3zm-3.5-14.7c0 2-1.7 3.6-3.9 3.6h-20c-2.2 0-3.9-1.6-3.9-3.6v-14.4c0-2 1.7-3.6 3.9-3.6h20c2.2 0 3.9 1.6 3.9 3.6V250z"/>
  <path fill="none" stroke="#FFF" stroke-width="1.6" d="M181.9 238.2h19.4M181.9 243.1h19.4M181.9 248.1h9.7"/>
</svg>
