<?xml version="1.0" encoding="utf-8"?>
<!-- Generator: Adobe Illustrator 16.0.4, SVG Export Plug-In . SVG Version: 6.00 Build 0)  -->
<!DOCTYPE svg PUBLIC "-//W3C//DTD SVG 1.1//EN" "http://www.w3.org/Graphics/SVG/1.1/DTD/svg11.dtd">
<svg version="1.1" id="Layer_1" xmlns="http://www.w3.org/2000/svg" xmlns:xlink="http://www.w3.org/1999/xlink" x="0px" y="0px"
	 width="50.003px" height="50px" viewBox="-0.003 0 50.003 50" enable-background="new -0.003 0 50.003 50" xml:space="preserve">
<rect id="trans_BG" fill="none" width="50" height="50"/>
<path fill="#F9AA2B" d="M49.895,27.7C50.193,39,43.896,47.3,25,47.8C11.704,47.7-0.393,42.4,0.007,27.8
	C0.407,11.8,13.403,1.6,25,1.9C39.896,1.8,50.093,16.3,49.895,27.7z"/>
<path fill="#E59117" d="M5.405,33.8c8.698,17.5,32.891,10.7,35.591,10.3c-1,2.7-32.392,10.2-39.69-8.398
	C-2.568,23.441,3.022,10.181,14.503,4.4C0.107,15.7,4.206,32.2,5.405,33.8z"/>
<path fill="#893819" d="M25.4,30.2c5.298,0,6.798-9.4,5.499-9.5c-1.498,0-2.998,6.8-5.697,7.7c-2.5-0.2-4.199-7.7-5.699-7.7
	S20.102,30.2,25.4,30.2z M17.002,8.3c-5.099-0.1-4.898,7.5-4.298,7.8c0.699,0.2,0.5-4,4.298-5.4c3.999,1.2,3.599,5.5,4.299,5.6
	C22.001,16.2,22.201,8.4,17.002,8.3z M33.698,8.3c-5.101-0.1-4.999,7.8-4.3,8c0.699,0.2,0.5-4,4.3-5.4
	c3.999,1.2,3.599,5.5,4.298,5.6S38.896,8.4,33.698,8.3z"/>
<path fill="#CCCCCC" d="M49.993,37.8c0.1-4.3-1.8-5.3-2.699-5.7c-0.8,0-1.601,0.5-1.601,0.5s-1.698-1.1-2.398-1.8
	c0.602-6.9-1.199-5.8-1.999-5.8c-2.601,0.7-2.8,2-2.5,3.2l0.7,2.8c-9.697-0.1-9.697,0.2-10.497,0.3c-0.8,0.101-2.399,0.4-2.299,2.2
	c0.198,3.6,7.298,1.8,7.298,1.8S25.7,33.6,25.8,37.5c0,3.8,9.997,0.9,9.997,0.9s-9.896-0.7-8.498,3.1c2.9,3.5,8.998-0.6,8.998-0.6
	S30.1,41.7,30.4,43.7c3.798,3.8,14.596,0.7,16.395-2.2c2.1,0.2,2.499-0.3,3.1-2.1L49.993,37.8z"/>
<path fill="#E0DEDE" d="M49.993,37.8c0.1-4.3-1.8-5.3-2.699-5.7c-0.8,0-1.601,0.5-1.601,0.5s-1.698-1.1-2.398-1.8
	c0.602-6.9-1.398-5.8-1.999-5.8c-1.101,0.4-2,0.7-2,2.7s1.5,2.7,1.101,3.399L28.999,31.4c-0.8,0.1-2.299,0.199-2.199,2.1
	c1.101,2.8,7.599,0.2,7.697,1c0.101,0.7-8.897-0.1-8.397,2.3c0,4.3,9.498,0.9,9.599,1.8C35.898,39.4,26.1,38.4,27.4,40.9
	c3.299,2.5,8.598-0.601,8.798,0.199c0.2,0.7-5.998,0.801-5.798,2.5C32.198,47,43.995,45.2,46.794,41.7
	c2.101,0.2,2.499-0.3,3.101-2.101L49.993,37.8z"/>
<path fill="#CCCCCC" d="M0.606,37c-0.1-4.3,1.799-5.3,2.699-5.7c0.8,0,1.6,0.5,1.6,0.5s1.7-1.1,2.399-1.8c-0.6-6.9,1.2-5.8,2-5.8
	c2.599,0.7,2.799,2,2.499,3.2l-0.699,2.8c9.697-0.101,9.697,0.2,10.497,0.3C22.4,30.6,24,30.9,23.9,32.7
	c-0.2,3.6-7.298,1.8-7.298,1.8s8.297-1.7,8.197,2.2c0,3.8-9.997,0.899-9.997,0.899S24.7,36.9,23.3,40.7
	c-2.899,3.5-8.998-0.601-8.998-0.601S20.5,40.9,20.201,42.9C16.402,46.7,5.605,43.6,3.806,40.7c-2.099,0.2-2.5-0.3-3.099-2.101
	L0.606,37z"/>
<path fill="#E0DEDE" d="M0.606,37c-0.1-4.3,1.799-5.3,2.699-5.7c0.8,0,1.6,0.5,1.6,0.5s1.7-1.1,2.399-1.8c-0.6-6.9,1.4-5.8,2-5.8
	c1.1,0.4,2,0.7,2,2.7c0,2-1.5,2.699-1.1,3.398L21.601,30.6C22.4,30.7,23.9,30.8,23.8,32.7c-1.1,2.8-7.598,0.3-7.698,1
	S25,33.6,24.5,36c0,4.3-9.498,0.9-9.597,1.8c-0.2,0.8,9.597-0.2,8.298,2.3c-3.299,2.5-8.598-0.6-8.798,0.2
	c-0.2,0.7,5.999,0.8,5.799,2.5C18.402,46.3,6.605,44.4,3.906,40.9c-2.1,0.199-2.5-0.301-3.1-2.102C0.606,37.6,0.707,39,0.606,37z"/>
</svg>
