<?xml version="1.0" encoding="iso-8859-1"?><!--Generator: Adobe Illustrator 19.0.0, SVG Export Plug-In . SVG Version: 6.00 Build 0)--><svg xmlns="http://www.w3.org/2000/svg" viewBox="0 0 495.024 495.024" style="enable-background:new 0 0 495.024 495.024"><g><path style="fill:#A7ADF0" d="M450.508 44.498l-41.946 41.946c17.296 17.296 17.296 45.326 0 62.621-17.289 17.289-45.326 17.296-62.621 0L.159 494.848l154.51.177-.007-55.727h55.706v-55.706h55.706v-67.416l22.429-22.429a153.112 153.112 0 0 0 54.582 10.119c40.581-.007 78.736-15.804 107.424-44.505 59.233-59.236 59.24-155.621-.001-214.863z"/><path style="fill:#C4C8F5" d="M345.941 86.444c17.296-17.296 45.333-17.289 62.621 0l41.946-41.946C421.814 15.804 383.658.007 343.077 0c-40.588 0-78.736 15.804-107.438 44.505-42.865 42.865-55.869 106.37-34.387 162.019L.272 407.506l-.184 87.342h.071l345.782-345.782c-17.289-17.29-17.289-45.333 0-62.622z"/></g><g/><g/><g/><g/><g/><g/><g/><g/><g/><g/><g/><g/><g/><g/><g/></svg>