<svg xmlns="http://www.w3.org/2000/svg" viewBox="231 231 50 50">
  <path fill="#8C76A6" d="M277.2 231.8c-1-.9-2.5-.8-3.4.2l-14.2 15.9-7.8-6.3 4.4-7.6c.5-.8.3-1.9-.4-2.6-.8-.7-2.1-.6-2.8.3 0 0-6.8 7.9-7.1 8.7-.9 1.9-2.3 3-2.6 3.5l-5.1 9.4-.2.3c-.1.1-.1.2-.2.4-.4 1.2.3 2.6 1.5 3l6 2c.9.3 1.9-.1 2.4-1 .5-1 .2-2.2-.8-2.7l-2.9-1.6 1.9-3 8 6.5c.2.2.5.3.7.5l1.1 21c.1 1.2 1 2.2 2.3 2.3 1.3.1 2.4-.9 2.5-2.3l1.1-22.2 16-21.4c.7-1 .5-2.4-.4-3.3zm-31.9 8.1c.8-3.1-1-6.2-4.1-7-3.1-.8-6.2 1-7 4.1-.8 3.1 1 6.2 4.1 7 3 .8 6.2-1.1 7-4.1z"/>
</svg>
