<?xml version="1.0" encoding="iso-8859-1"?><!--Generator: Adobe Illustrator 19.0.0, SVG Export Plug-In . SVG Version: 6.00 Build 0)--><svg xmlns="http://www.w3.org/2000/svg" viewBox="0 0 512 512" style="enable-background:new 0 0 512 512"><circle style="fill:#7CC5E6" cx="36.298" cy="291.26" r="19.976"/><path style="fill:#EDA751" d="M311.639 473.042c-10.185 0-19.825-2.884-29.111-8.667-12.983-8.085-23.045-20.406-33.696-33.449l-.775-.949c-4.784-5.857-3.915-14.482 1.942-19.267 5.856-4.785 14.483-3.915 19.267 1.942l.778.953c21.129 25.874 32.301 37.927 55.201 29.199 46.656-17.772 88.222-18.712 114.043-2.573 6.413 4.007 8.362 12.455 4.354 18.868-4.008 6.413-12.456 8.362-18.868 4.354-18.213-11.384-51.776-9.536-89.78 4.942-8.127 3.096-15.887 4.647-23.355 4.647z"/><path style="fill:#FCD79D" d="M439.288 440.231c-3.288-2.055-6.835-3.83-10.612-5.332-4.337 4.676-10.392 13.276-10.825 25.144 2.498.963 4.817 2.094 6.922 3.41 6.412 4.008 14.861 2.059 18.868-4.354 4.009-6.413 2.06-14.861-4.353-18.868z"/><path style="fill:#EDA751" d="M101.063 407.641c-22.743 0-51.228-5.059-72.08-25.911-8.556-8.556-8.556-22.428 0-30.984 8.556-8.554 22.427-8.554 30.983 0 7.276 7.277 30.61 18.782 66.839 10.241 11.776-2.773 23.574 4.522 26.349 16.298 2.776 11.778-4.522 23.575-16.299 26.35-4.973 1.171-18.777 4.006-35.792 4.006z"/><path style="opacity:0.2;fill:#A35F00;enable-background:new" d="M126.804 360.987c-12.419 2.928-23.321 3.499-32.582 2.694a107.331 107.331 0 0 0-3.53 43.594c3.552.253 7.025.367 10.371.367 17.016 0 30.82-2.835 35.792-4.006 11.777-2.775 19.074-14.572 16.299-26.35-2.776-11.778-14.574-19.072-26.35-16.299z"/><ellipse style="fill:#FCD690" cx="210.908" cy="393.99" rx="101.05" ry="93.9"/><path style="opacity:0.15;fill:#C17A00;enable-background:new" d="M196.154 486.885c-46.176-30.316-31.865-92.451-24.027-119.624v-59.998c-36.559 14.133-62.265 47.638-62.265 86.726.001 47.199 37.481 86.258 86.292 92.896z"/><path style="fill:#EDA751" d="M149.417 231.173c19.773-16.591 32.974-44.443 5.085-85.616-28.11-41.498-69.961-51.9-102.635-48.051a20.43 20.43 0 0 0-17.147 14.388c-9.464 31.509-6.488 74.53 29.499 109.419 35.704 34.616 65.426 26.452 85.198 9.86z"/><path style="fill:#FF91AB" d="M33.405 116.716c-7.759 30.98-3.372 71.455 30.814 104.598 30.947 30.004 57.394 27.86 76.77 15.954-13.327-90.459-71.537-114.447-107.584-120.552z"/><path style="fill:#EDA751" d="M272.405 231.173c-19.773-16.591-32.974-44.443-5.085-85.616 28.11-41.498 69.961-51.9 102.635-48.051a20.43 20.43 0 0 1 17.147 14.388c9.464 31.509 6.488 74.53-29.499 109.419-35.705 34.616-65.426 26.452-85.198 9.86z"/><path style="fill:#FF91AB" d="M388.417 116.716c7.759 30.98 3.372 71.455-30.814 104.598-30.947 30.004-57.394 27.86-76.77 15.954 13.326-90.459 71.535-114.447 107.584-120.552z"/><path style="fill:#FFDC9C" d="M382.943 256.215c0 78.658-77.021 113.109-172.032 113.109S38.879 334.873 38.879 256.215 115.9 113.792 210.91 113.792s172.033 63.765 172.033 142.423z"/><path style="opacity:0.15;fill:#C17A00;enable-background:new" d="M119.054 135.782c-48.18 25.239-80.175 69.74-80.175 120.433 0 67.617 56.917 102.566 133.25 111.045-109.574-65.451-95.285-153.49-53.075-231.478z"/><g><ellipse style="fill:#FF91AB" cx="100.188" cy="241.65" rx="31.15" ry="24.805"/><ellipse style="fill:#FF91AB" cx="269.017" cy="241.65" rx="31.15" ry="24.805"/></g><g><path style="fill:#495059" d="M118.339 224.401a7.5 7.5 0 0 1-7.5-7.5v-11c0-4.143 3.358-7.5 7.5-7.5s7.5 3.357 7.5 7.5v11a7.5 7.5 0 0 1-7.5 7.5zM250.867 224.401a7.5 7.5 0 0 1-7.5-7.5v-11c0-4.143 3.358-7.5 7.5-7.5s7.5 3.357 7.5 7.5v11a7.5 7.5 0 0 1-7.5 7.5z"/></g><ellipse style="fill:#FF91AB" cx="184.598" cy="225.35" rx="16.69" ry="22.671"/><g><path style="fill:#495059" d="M56.264 246.256a7.5 7.5 0 0 1-1.813-14.779c8.621-2.155 29.169-3.692 39.184-2.368a7.5 7.5 0 0 1 6.453 8.418c-.543 4.107-4.305 7.001-8.418 6.453-7.858-1.036-26.723.334-33.579 2.05a7.528 7.528 0 0 1-1.827.226zM66.186 283.162a7.501 7.501 0 0 1-4.461-13.534c7.15-5.278 25.565-14.528 35.326-17.119a7.5 7.5 0 1 1 3.848 14.498c-7.661 2.033-24.579 10.491-30.265 14.689a7.472 7.472 0 0 1-4.448 1.466zM312.943 246.256a7.514 7.514 0 0 1-1.826-.226c-6.855-1.715-25.72-3.09-33.579-2.05-4.112.546-7.875-2.347-8.418-6.453s2.346-7.875 6.453-8.418c10.014-1.325 30.563.213 39.184 2.368a7.501 7.501 0 0 1-1.814 14.779zM303.021 283.162a7.47 7.47 0 0 1-4.449-1.466c-5.686-4.198-22.603-12.656-30.265-14.689a7.5 7.5 0 1 1 3.848-14.498c9.761 2.591 28.176 11.841 35.326 17.119a7.501 7.501 0 0 1-4.46 13.534z"/></g><path style="fill:#7CC5E6" d="M355.194 434.361c-2.061-.3-3.615-1.985-3.835-4.056-3.24-30.499-29.042-54.26-60.4-54.26-3.84 0-7.592.367-11.233 1.053a4.481 4.481 0 0 1-4.334-1.59c-15.091-18.875-38.312-30.967-64.357-30.967-29.941 0-56.138 15.986-70.553 39.881-.9 1.493-2.59 2.305-4.325 2.132a60.544 60.544 0 0 0-6.008-.299c-24.113 0-44.939 14.052-54.751 34.411a4.592 4.592 0 0 1-3.699 2.568c-22.448 2.194-40.007 21.061-40.113 44.06C31.472 491.884 52.243 512 76.833 512h271.954c21.656 0 39.733-17.327 39.757-38.983.021-19.645-14.474-35.906-33.35-38.656z"/><g style="opacity:0.1"><path d="M152.516 469.333a7.505 7.505 0 0 1-7.079-5.023 14.46 14.46 0 0 0-13.634-9.666 14.425 14.425 0 0 0-13.308 8.821 7.5 7.5 0 1 1-13.816-5.844 29.397 29.397 0 0 1 27.123-17.978c12.496 0 23.664 7.921 27.791 19.709a7.501 7.501 0 0 1-7.077 9.981zM211.583 415.603a7.503 7.503 0 0 1-7.063-4.979c-1.564-4.379-5.01-7.655-9.456-8.989a14.42 14.42 0 0 0-15.282 4.625 7.501 7.501 0 0 1-11.553-9.569 29.392 29.392 0 0 1 31.146-9.424c8.928 2.679 16.132 9.524 19.27 18.311a7.502 7.502 0 0 1-7.062 10.025zM258.991 472.065a7.502 7.502 0 0 1-7.185-5.361 34.715 34.715 0 0 1 8.725-34.49c6.559-6.559 15.279-10.171 24.555-10.171 9.275 0 17.996 3.612 24.555 10.171a7.5 7.5 0 0 1-10.606 10.607c-3.726-3.727-8.68-5.778-13.949-5.778s-10.223 2.052-13.949 5.777a19.731 19.731 0 0 0-4.955 19.603 7.5 7.5 0 0 1-7.191 9.642z"/></g><path style="fill:#495059" d="M402.371 65.749l-23.237-23.237 37.7-37.7A16.436 16.436 0 0 1 428.453 0h61.73a5.495 5.495 0 0 1 5.495 5.495v21.873a5.495 5.495 0 0 1-5.495 5.495h-54.924l-32.888 32.886z"/><path style="fill:#DEE2E5" d="M409.309 116.314L328.57 35.575l6.661-3.767c22.341-12.634 50.365-8.817 68.514 9.331 18.148 18.148 21.965 46.173 9.331 68.514l-3.767 6.661z"/><path style="fill:#495059" d="M393.819 135.779l-84.713-84.713c-4.826-4.826-4.826-12.651 0-17.477 4.826-4.826 12.651-4.826 17.477 0l84.713 84.713c4.826 4.826 4.826 12.651 0 17.477-4.827 4.826-12.65 4.826-17.477 0z"/><g><path style="fill:#7CC5E6" d="M266.298 104.264a7.473 7.473 0 0 1-5.317-2.211 7.5 7.5 0 0 1 .028-10.606c4.715-4.69 19.523-15.108 22.882-17.348a7.5 7.5 0 0 1 8.32 12.48c-5.231 3.487-17.537 12.432-20.623 15.502a7.48 7.48 0 0 1-5.29 2.183zM339.594 200.618a7.494 7.494 0 0 1-2.393-.394 7.5 7.5 0 0 1-4.717-9.5c2.747-8.164 14.599-31.295 23.028-37.271a7.5 7.5 0 1 1 8.676 12.236c-3.752 2.66-14.539 21.053-17.487 29.818a7.5 7.5 0 0 1-7.107 5.111zM269 170.46a7.5 7.5 0 0 1-6.36-11.464c2.589-4.16 8.475-12.629 14.112-17.977a7.501 7.501 0 0 1 10.324 10.883c-3.772 3.578-8.742 10.265-11.701 15.021A7.5 7.5 0 0 1 269 170.46z"/></g><path style="fill:#EDA751" d="M305.839 398.905c-1.626 0-3.278-.183-4.93-.563-36.223-8.331-62.591-37.339-69.809-46.032-7.73-9.308-6.45-23.12 2.858-30.85 9.306-7.731 23.12-6.453 30.851 2.857 9.831 11.839 27.757 27.146 45.922 31.323 11.792 2.712 19.152 14.469 16.44 26.261-2.334 10.141-11.355 17.004-21.332 17.004z"/><g><circle style="fill:#7CC5E6" cx="383.908" cy="358.29" r="19.976"/><circle style="fill:#7CC5E6" cx="419.047" cy="284.54" r="14.07"/></g><g/><g/><g/><g/><g/><g/><g/><g/><g/><g/><g/><g/><g/><g/><g/></svg>