<svg height="512pt" viewBox="-48 0 512 512" width="512pt" xmlns="http://www.w3.org/2000/svg"><path d="M208 512C93.312 512 0 418.687 0 304v-96C0 93.312 93.313 0 208 0s208 93.313 208 208v96c0 114.688-93.313 208-208 208zm0 0" fill="#f9ddaa"/><path d="M208 0C93.312 0 0 93.313 0 208v40.434l3.2.91c25.41 7.312 51.25 11.008 76.8 11.008 67.426 0 130.785-23.633 181.473-67.086 37.007 31.277 81.968 52.91 129.375 61.886l2.718.512L416 256v-48C416 93.312 322.687 0 208 0zm0 0" fill="#f7ce8a"/><path d="M80 228.352c-22.543 0-45.406-3.282-67.969-9.758l-11.886-3.41.093-12.45C3.105 89.04 94.352 0 208 0c114.688 0 208 93.313 208 208v16l-19.2-.29c-51.89-9.823-99.327-36.093-135.456-74.62-47.215 50.59-112.32 79.262-181.344 79.262zm0 0" fill="#c59969"/><path d="M288 64h32v32h-32zm0 0M336 128h32v32h-32zm0 0" fill="#fff"/><path d="M208 480C93.312 480 0 386.687 0 272v32c0 114.688 93.313 208 208 208s208-93.313 208-208v-32c0 114.688-93.313 208-208 208zm0 0" fill="#f7ce8a"/><path d="M189.902 304H80v-32h50.098l-15.41-23.121 26.624-17.758zm0 0M336 304H224l67.2-89.602 25.6 19.204L288 272h48zm0 0" fill="#57565c"/><path d="M208 448c-52.945 0-96-43.055-96-96v-16h192v16c0 52.945-43.055 96-96 96zm0 0" fill="#e76e54"/><path d="M112 336v16c0 5.457.559 10.785 1.441 16H302.56c.882-5.215 1.441-10.543 1.441-16v-16zm0 0" fill="#dd523c"/></svg>