<svg xmlns="http://www.w3.org/2000/svg" viewBox="450 450.2 50 50">
  <path fill="#B482C9" d="M465.4 484.7a2.6 2.6 0 0 0 3.8 0l15.3-15.3a2.6 2.6 0 0 0 0-3.8 2.6 2.6 0 0 0-3.8 0l-15.3 15.3a2.6 2.6 0 0 0 0 3.8z"/>
  <path fill="#C9A6D9" d="M461.6 469.4l-7.7 7.7a13.5 13.5 0 0 0 0 19.2c5.3 5.3 6.9-.9 3.8-4.1a8 8 0 0 1 0-11.2l7.7-7.7a2.6 2.6 0 0 0 0-3.8c-1.1-1.1-2.8-1.2-3.8-.1zm7.6-7.6l7.7-7.7a13.5 13.5 0 0 1 19.2 0c5.3 5.3-.9 6.9-4.1 3.8a8 8 0 0 0-11.2 0l-7.7 7.7a2.6 2.6 0 0 1-3.8 0 2.7 2.7 0 0 1-.1-3.8z"/>
  <path fill="#944CB2" d="M463.5 500.2c3.5 0 6.9-1.3 9.6-4l7.7-7.7a2.6 2.6 0 0 0 0-3.8 2.6 2.6 0 0 0-3.8 0l-7.7 7.7c-3.3 3-8.1 3-11.4-.1l-3.9 3.9c2.4 2.5 5.9 4 9.5 4zm36.5-36.5c0 3.5-1.3 6.9-4 9.6l-7.7 7.7a2.6 2.6 0 0 1-3.8 0 2.6 2.6 0 0 1 0-3.8l7.7-7.7c3-3.3 3-8.1-.1-11.4l3.9-3.9c2.5 2.5 4 5.9 4 9.5z"/>
</svg>
