<svg xmlns="http://www.w3.org/2000/svg" viewBox="231 231 50 50">
  <path fill="#8C76A6" d="M236.2 240H232c-.6 0-1 .5-1 1.1v4.3c0 .6.5 1.1 1 1.1h4.2c.6 0 1-.5 1-1.1v-4.3c0-.6-.5-1.1-1-1.1zm0 12.8H232c-.6 0-1 .5-1 1.1v4.3c0 .6.5 1.1 1 1.1h4.2c.6 0 1-.5 1-1.1v-4.3c0-.6-.5-1.1-1-1.1zm0 12.8H232c-.6 0-1 .5-1 1.1v4.3c0 .6.5 1.1 1 1.1h4.2c.6 0 1-.5 1-1.1v-4.3c0-.6-.5-1.1-1-1.1zm43.8-24.5h-37.5c-.6 0-1 .5-1 1.1v2.1c0 .6.5 1.1 1 1.1H280c.6 0 1-.5 1-1.1v-2.1c0-.6-.5-1.1-1-1.1zm0 12.8h-37.5c-.6 0-1 .5-1 1.1v2.1c0 .6.5 1.1 1 1.1H280c.6 0 1-.5 1-1.1V255c0-.6-.5-1.1-1-1.1zm0 12.8h-37.5c-.6 0-1 .5-1 1.1v2.1c0 .6.5 1.1 1 1.1H280c.6 0 1-.5 1-1.1v-2.1c0-.6-.5-1.1-1-1.1z"/>
</svg>
