<svg xmlns="http://www.w3.org/2000/svg" version="1.1" x="0" y="0" width="25" height="25" viewBox="0 0 25 25" enable-background="new 0 0 25 25" xml:space="preserve"><path fill="#FFC724" d="M11.7 0.2c-0.5-0.1-1.9 1.4-2 2.1 1.7 0.1 3.8-0.9 3.8-1.2C13.4 0.7 12.7 0.2 11.7 0.2z"/><path fill="#FFD332" d="M13.6 1.1c0 0-4.4 0.3-8.4 2.8 -4.9 3.4-5.1 9.7-4.9 10.2 1.2 10.5 12.2 10.8 12.2 10.8s11.7 1.2 12.2-10.9c-0.3-6.1-4.2-9.3-5-10.1C16.6 1.3 13.6 1.1 13.6 1.1z"/><path fill="#862020" stroke="#5D0800" stroke-width="0.25" stroke-miterlimit="10" d="M6.9 8.2C5.1 10 8.4 19.1 13.5 19.7c4.6 0.6 9-9.6 6.2-12C16.8 6.4 9.8 7.2 6.9 8.2z"/><path fill="#EC5A69" d="M12.2 14.5c-1.7 0.1-2.6 1.6-2.7 1.9 2.6 3.1 5.3 2.5 5.4 2.4C15.3 18.2 14 14.6 12.2 14.5z"/><path fill="#FFFFFF" stroke="#5D0800" stroke-width="0.25" stroke-miterlimit="10" d="M8 8.3C7.7 8.9 8 9.4 8.3 9.7c4.9 1.9 10.7 0.2 10.6-1.6C17.8 6.6 8.3 7.7 8 8.3z"/></svg>