<svg xmlns="http://www.w3.org/2000/svg" height="512" width="512"><g fill-rule="evenodd"><path d="M303.6 483.7c33.9-12.5 65-35.6 89.7-63.4v-76.1a10 10 0 0 0-1.2-4.8c-2-4-6.5-6.2-11.4-7.8l-107.4-34.4a46.5 46.5 0 0 0-34.6 0l-107.4 34.4c-4.9 1.6-9.4 3.9-11.4 7.8-.8 1.4-1.2 3-1.2 4.8v76.1a230.1 230.1 0 0 0 89.7 63.4c17.3 6.5 32.4 9.7 47.6 9.7s30.3-3.2 47.6-9.7z" fill="#bfdbff"/><path d="M147.8 183c22.9-6.5 32.6-.4 54.8 5.4C311.6 217 346.2 219 447 231l-7-64.2c-2-19-1-25 8.5-34.4 15-14.9 37.9-26.3 40.6-70.8-49 12.6-59.2 20.4-101.5-5.8C261-22.3 195 42.1 151.5 74.3c-39.9-14.6-75.3 14-81 52.6-5.6 37.2-5.6 49.5-5.6 104a168.5 168.5 0 0182.9-48z" fill="#333531"/><g fill="#ffebd5"><path d="M118.7 420.3v-76.1c0-1.8.4-3.4 1.2-4.8l-55-108.5v67.9c0 6.2.5 12.5 1.5 18.9 5.4 34.4 24.7 71.4 52.3 102.6z"/><path d="M131.3 331.6l107.4-34.4c14-4.5 20.6-4.5 34.6 0l107.4 34.4c4.9 1.6 9.4 3.9 11.4 7.8l55-108.5c-100.9-12-135.5-14-244.5-42.5-22.2-5.8-31.9-11.9-54.8-5.4-32.3 9-53.4 19.1-83 47.9l55 108.5c2.1-4 6.6-6.2 11.5-7.8zm262 88.7c27.6-31.1 47-68.2 52.3-102.6 1-6.4 1.5-12.7 1.5-19V231l-55 108.5a10 10 0 0 1 1.2 4.8v76.1z"/><path d="M462.1 317.7c49.3 0 53.3-86.8 9.9-86.8h-25v67.9c0 6.2-.5 12.5-1.5 18.9zm-395.7 0c-1-6.4-1.5-12.7-1.5-19V231H40c-43.4 0-39.4 86.8 9.9 86.8z"/></g></g><path d="M502.7 237a36.6 36.6 0 0 0-30.7-16.1h-16l-6-55.2c-1.9-18.2-.5-20.3 5.6-26.3 2.3-2.3 4.9-4.5 7.6-7 15-12.9 33.4-29 36-70.3a10 10 0 0 0-12.5-10.3l-16.1 4.3c-34.7 9.4-44 11.9-77.7-8.9C339 14 290.4 2.3 245 11.8c-38.7 8.1-66.8 29.7-89.5 47l-5.7 4.4c-18.4-5.3-37-3-53 6.6a78.1 78.1 0 0 0-36.1 55.6c-5.3 35.9-5.7 49.5-5.7 95.5H40a36.6 36.6 0 0 0-30.7 16A57 57 0 0 0 0 269.4c0 28.2 17.5 58.3 49.9 58.3H58c7.3 33.4 26.1 68.6 52.8 98.8l.8 1c10.4 11.6 22 22.6 34.5 32.3a10 10 0 0 0 14-1.7 10 10 0 0 0-1.7-14 245 245 0 0 1-29.8-27.5V344c.2-.1 1.2-1.4 5.7-2.9l107.3-34.4c12-3.9 16.6-3.9 28.6 0L377.7 341c4.6 1.5 5.5 2.9 5.5 2.9a1 1 0 0 1 0 .2v72.2a220.2 220.2 0 0 1-83 58c-16.6 6.1-30.6 9-44.2 9-6.3 0-12.7-.6-19.5-2a10.022 10.022 0 1 0-3.7 19.7c8 1.5 15.7 2.3 23.2 2.3 16 0 32.3-3.3 51.1-10.3 39.5-14.6 77-43.4 105.8-80.9 20.7-27 35-56.6 41-84.5h8.2c32.4 0 49.9-30 49.9-58.3a57 57 0 0 0-9.3-32.5zM50 307.6c-22 0-29.9-23-29.9-38.3a37 37 0 0 1 5.7-21c3.5-5 8.2-7.5 14.3-7.5H55v57.9a132.28 132.28 0 0 0 .3 8.9H50zm58.8 84a185 185 0 0 1-32.3-74.9c0-.4-1.5-12.5-1.5-18v-26l34.2 67.4a21.8 21.8 0 0 0-.4 4zm280-67.7a43.5 43.5 0 0 0-5-2l-107.3-34.4a56 56 0 0 0-40.8 0L128.4 322a45 45 0 0 0-5 1.9l-46.1-91c25.7-24 44.7-32.4 73.3-40.4a52.6 52.6 0 0 1 19.3-2.2c6.2.6 12.2 2.5 18.1 4.3l12 3.4c97.1 25.4 136 29.9 213.2 38.9l18.5 2.1zm47-7.2c-4 24.8-15.7 50.8-32.4 74.7v-47.3c0-1.2-.1-2.5-.4-4l34.2-67.5v26c.4 8.7-1.4 17.7-1.5 18.1zm-5.5-149l5.6 51.7-20.2-2.4c-76.4-8.9-114.8-13.3-210.5-38.3-8-2.1-15.7-4.8-23.7-6.7a67.5 67.5 0 0 0-36.3 1.2 172.8 172.8 0 0 0-70.2 35c.1-35 .9-49 5.5-80A58 58 0 0 1 106.8 87c8.7-5.1 23-9.9 41.3-3.2a10 10 0 0 0 9.4-1.4l10-7.6c43.7-33.4 103.5-79.1 215-10.4 40.9 25.2 56.2 21 93.3 11.1l1.6-.4c-4.5 22.6-16 32.6-27.3 42.4-2.8 2.5-5.8 5-8.5 7.7-13.1 13-13.5 23-11.4 42.7zm32 139.9h-5.4l.3-9V241H472c6 0 10.8 2.4 14.3 7.5a37 37 0 0 1 5.7 21c0 15.4-8 38.3-29.9 38.3zm-289.9-54.2a10 10 0 0 0-10 10v11.3a10 10 0 1 0 20 0v-11.3a10 10 0 0 0-10-10zm167.2 0a10 10 0 0 0-10 10v11.3a10 10 0 1 0 20 0v-11.3a10 10 0 0 0-10-10zM195.2 467.2a10 10 0 0 0-8.9 17.9 10 10 0 0 0 4.5 1 10 10 0 0 0 9-5.5c2.4-5 .4-11-4.6-13.4z"/></svg>