<svg xmlns="http://www.w3.org/2000/svg" width="50" height="50" viewBox="231 231 50 50"><path fill="#BFDBFF" d="M260.7 278.1c3.3-1.2 6.4-3.5 8.8-6.2v-7.4l-.1-.5c-.2-.4-.6-.6-1.1-.8l-10.5-3.3a5 5 0 00-3.4 0l-10.5 3.3c-.5.2-.9.4-1.1.8l-.1.5v7.4c2.4 2.7 5.4 4.9 8.8 6.2 1.7.6 3.2.9 4.7.9s2.8-.3 4.5-.9z"/><path fill="#333531" d="M245.4 248.9c2.2-.6 3.2 0 5.3.5 10.7 2.8 14 3 23.9 4.1l-.7-6.2c-.2-1.9-.1-2.4.8-3.3 1.5-1.4 3.7-2.5 4-6.9-4.8 1.2-5.8 2-9.9-.6-12.4-7.6-18.8-1.3-23.1 1.8-3.9-1.4-7.4 1.4-7.9 5.1-.5 3.6-.5 4.8-.5 10.1 2.9-2.7 5-3.7 8.1-4.6z"/><path fill="#ffebd5" d="M242.6 271.9v-7.4l.1-.5-5.4-10.5v6.6l.1 1.8a21 21 0 005.2 10zM243.8 263.3l10.5-3.3a5 5 0 013.4 0l10.5 3.3c.5.2.9.4 1.1.8l5.4-10.5c-9.9-1.2-13.2-1.3-23.9-4.1-2.2-.6-3.1-1.2-5.3-.5-3.2.9-5.2 1.9-8.1 4.6l5.4 10.5c.1-.4.5-.6 1-.8z"/><path fill="#ffebd5" d="M269.4 271.9a20 20 0 005.1-10l.1-1.8v-6.6l-5.4 10.5.1.5v7.4h.1zM276.1 262c4.8 0 5.2-8.4 1-8.4h-2.4v6.6l-.1 1.8h1.5zM237.5 262l-.1-1.8v-6.6H235c-4.2 0-3.8 8.4 1 8.4h1.5z"/><path d="M280.1 254.1c-.7-1-1.8-1.6-3-1.6h-1.6l-.6-5.4c-.2-1.8-.1-2 .5-2.5l.7-.7c1.5-1.3 3.3-2.8 3.5-6.8a1 1 0 00-.4-.8 1 1 0 00-.9-.2l-1.6.4c-3.4.9-4.3 1.2-7.6-.9-5.3-3.2-10-4.4-14.5-3.4-3.8.8-6.5 2.9-8.7 4.6l-.6.4a6.7 6.7 0 00-5.2.6 7.3 7.3 0 00-3.5 5.4c-.5 3.5-.6 4.8-.6 9.3h-1.5c-1.2 0-2.3.6-3 1.6-.6.8-.9 2-.9 3.2 0 2.7 1.7 5.7 4.9 5.7h.8c.7 3.2 2.5 6.7 5.2 9.6l.1.1c1 1.1 2.1 2.2 3.4 3.1l.6.2c.3 0 .6-.1.8-.4.3-.4.3-1-.2-1.4-1-.8-2-1.7-2.9-2.7v-7l.5-.3 10.5-3.3c1.2-.4 1.6-.4 2.8 0l10.5 3.3c.5.1.5.3.5.3v7a21.1 21.1 0 01-8.1 5.6c-1.6.6-3 .9-4.3.9l-1.9-.2c-.5-.1-1 .2-1.1.8-.1.5.3 1 .8 1.1l2.3.2c1.6 0 3.2-.3 5-1a23.5 23.5 0 0014.3-16h.8c3.2 0 4.9-2.9 4.9-5.7.2-1.1-.1-2.2-.7-3.1zm-44.2 6.9c-2.1 0-2.9-2.2-2.9-3.7 0-.8.2-1.5.6-2 .3-.5.8-.7 1.4-.7h1.5v6.5h-.6v-.1zm5.7 8.2a18 18 0 01-3.2-7.3l-.1-1.7v-2.5l3.3 6.6v4.9zm27.4-6.6l-.5-.2-10.5-3.3a5.5 5.5 0 00-4 0l-10.5 3.3-.5.2-4.5-8.8c2.5-2.3 4.4-3.1 7.2-3.9a4 4 0 011.9-.2l1.8.4 1.2.3c9.5 2.5 13.3 2.9 20.8 3.8l1.8.2-4.2 8.2zm4.5-.7a17 17 0 01-3.2 7.2v-4.6-.4l3.3-6.6v2.5c.1 1-.1 1.9-.1 1.9zm-.5-14.5l.5 5-2-.2c-7.5-.9-11.2-1.3-20.6-3.7-.8-.2-1.5-.5-2.3-.6-.7-.2-1.5-.2-2.2-.1-.4.1-.9.1-1.3.3-2.6.7-4.6 1.5-6.9 3.4 0-3.4.1-4.8.5-7.8a5.6 5.6 0 012.6-4c.8-.5 2.2-1 4-.3.3.1.7.1.9-.1l1-.7c4.3-3.2 10.1-7.7 21-1 4 2.5 5.5 2.1 9.1 1.1h.2c-.4 2.2-1.6 3.2-2.7 4.1a3 3 0 00-.8.8c-1.2 1-1.2 1.9-1 3.8zm3.1 13.6h-.5v-6.5h1.5c.6 0 1.1.2 1.4.7.4.5.6 1.2.6 2-.1 1.6-.8 3.8-3 3.8zm-28.3-5.3a1 1 0 00-1 1v1.1a1 1 0 002 0v-1.1c0-.5-.4-1-1-1zm16.4 0a1 1 0 00-1 1v1.1c0 .5.4 1 1 1s1-.4 1-1v-1.1c-.1-.5-.5-1-1-1zm-14.1 20.8c-.5-.2-1.1 0-1.3.4-.2.5 0 1.1.4 1.3l.4.1c.4 0 .7-.2.9-.5.2-.5 0-1.1-.4-1.3z"/></svg>