<svg xmlns="http://www.w3.org/2000/svg" viewBox="450.1 454 50 50">
  <path fill="#cdcdcd" d="M491.1 464.2l-18.1-1.9 2 37.7h5.5c8 0 14.9-4.8 17.9-11.8l1.3-4.5c.4-2.6.3-5.4-.3-8l-1-2.9c-1.5-3.5-4-6.5-7.3-8.6z"/>
  <path fill="#e6e6e6" d="M458.9 464.2c-3.2 2.1-5.8 5.1-7.3 8.6l-1 2.9c-.7 2.6-.8 5.3-.3 8l1.3 4.5a19.6 19.6 0 0 0 17.9 11.8h5.5v-37.7l-16.1 1.9z"/>
  <path fill="#cdcdcd" d="M498 458h-22.9v6.2H498V458z"/>
  <path fill="#e6e6e6" d="M452.1 458H475v6.2h-22.9V458z"/>
  <path fill="#e6e6e6" d="M499.8 483.8l-5.3-8h5c-.2-1-.6-2-1-2.9h-23.4v4.1l5.6 8.4h-5.6v2.9h23.4c.6-1.5 1-3 1.3-4.5zm-22-8H489l-5.6 8.4-5.6-8.4zm8.3 9.5l5.6-8.4 5.6 8.4h-11.2z"/>
  <path fill="#ffffff" d="M469.5 485.3l5.6-8.4v-4.1h-23.5c-.4 1-.7 1.9-1 2.9h5l-5.3 8c.3 1.5.7 3.1 1.3 4.5H475v-2.9h-5.5zm-16.7 0l5.6-8.4 5.6 8.4h-11.2zm8.3-9.5h11.2l-5.6 8.4-5.6-8.4z"/>
</svg>
