<svg xmlns="http://www.w3.org/2000/svg" viewBox="457.5 456.5 65 50">
  <path fill="#A9A9A9" d="M501.11 456.5h-37.43c-3.4 0-6.19 2.8-6.19 6.29v37.43c0 3.4 2.8 6.29 6.29 6.29h37.43a6.3 6.3 0 0 0 6.29-6.19v-37.43c-.2-3.59-2.99-6.39-6.39-6.39zm2 43.71c0 1.2-.9 2.1-2.1 2.1h-37.42c-1.1 0-2.1-.9-2.1-2.1v-37.43c0-1.1.9-2.1 2.1-2.1h37.42c1.1 0 2.1.9 2.1 2.1v37.43zm-31.14-6.28c0 1.2-.9 2.1-2.1 2.1-1.2 0-2.1-.9-2.1-2.1 0-1.2.9-2.1 2.1-2.1s2.1.9 2.1 2.1zm24.95 0c0 1.2-.89 2.1-2.1 2.1h-16.67c-1.1 0-2.1-.9-2.1-2.1 0-1.2.9-2.1 2.1-2.1h16.67c1.2 0 2.1.9 2.1 2.1zm-2.09-14.58h-16.67c-1.1 0-2.1.9-2.1 2.1s.9 2.1 2.1 2.1h16.67c1.2 0 2.1-.9 2.1-2.1a2.13 2.13 0 0 0-2.1-2.1zm-22.86 2.1c0 1.2-.9 2.1-2.1 2.1-1.2 0-2.1-.9-2.1-2.1s.9-2.1 2.1-2.1 2.1.9 2.1 2.1zm22.86-14.57h-16.67c-1.1 0-2.1.9-2.1 2.1 0 1.2.9 2.1 2.1 2.1h16.67c1.2 0 2.1-.9 2.1-2.1a2.06 2.06 0 0 0-2.1-2.1zm-22.86 2.1c0 1.2-.9 2.1-2.1 2.1-1.2 0-2.1-.9-2.1-2.1 0-1.19.9-2.1 2.1-2.1s2.1.9 2.1 2.1z"/>
  <path fill="#FD003A" d="M502.5 456.5c-11.02 0-20 8.98-20 20s8.98 20 20 20 20-8.98 20-20-8.99-20-20-20z"/>
  <path fill="#E50027" d="M522.5 476.5c0 11.02-8.98 20-20 20v-40c11.01 0 20 8.98 20 20z"/>
  <path fill="#FFF" d="M504.72 467.6v8.9a2.2 2.2 0 0 1-2.22 2.23 2.2 2.2 0 0 1-2.23-2.23v-8.9a2.2 2.2 0 0 1 2.23-2.19 2.18 2.18 0 0 1 2.22 2.19zM504.72 485.4c0 1.22-.98 2.19-2.22 2.19a2.2 2.2 0 1 1 0-4.42 2.2 2.2 0 0 1 2.22 2.23z"/>
</svg>
