<svg xmlns="http://www.w3.org/2000/svg" viewBox="231 231 50 50">
  <path fill="#A9A9A9" d="M274.8 231h-37.5c-3.4 0-6.2 2.8-6.2 6.3v37.5c0 3.4 2.8 6.3 6.3 6.3h37.5c3.4 0 6.3-2.8 6.3-6.2v-37.5c-.2-3.6-3-6.4-6.4-6.4zm2 43.8c0 1.2-.9 2.1-2.1 2.1h-37.5c-1.1 0-2.1-.9-2.1-2.1v-37.5c0-1.1.9-2.1 2.1-2.1h37.5c1.1 0 2.1.9 2.1 2.1v37.5zm-31.2-6.3c0 1.2-.9 2.1-2.1 2.1s-2.1-.9-2.1-2.1.9-2.1 2.1-2.1 2.1.9 2.1 2.1zm25 0c0 1.2-.9 2.1-2.1 2.1h-16.7c-1.1 0-2.1-.9-2.1-2.1s.9-2.1 2.1-2.1h16.7c1.2 0 2.1.9 2.1 2.1zm-2.1-14.6h-16.7c-1.1 0-2.1.9-2.1 2.1 0 1.2.9 2.1 2.1 2.1h16.7c1.2 0 2.1-.9 2.1-2.1 0-1.1-.9-2.1-2.1-2.1zm-22.9 2.1c0 1.2-.9 2.1-2.1 2.1s-2.1-.9-2.1-2.1c0-1.2.9-2.1 2.1-2.1s2.1.9 2.1 2.1zm22.9-14.6h-16.7c-1.1 0-2.1.9-2.1 2.1s.9 2.1 2.1 2.1h16.7c1.2 0 2.1-.9 2.1-2.1s-.9-2.1-2.1-2.1zm-22.9 2.1c0 1.2-.9 2.1-2.1 2.1s-2.1-.9-2.1-2.1.9-2.1 2.1-2.1 2.1.9 2.1 2.1z"/>
</svg>
