<?xml version="1.0" encoding="iso-8859-1"?><!--Generator: Adobe Illustrator 19.0.0, SVG Export Plug-In . SVG Version: 6.00 Build 0)--><svg xmlns="http://www.w3.org/2000/svg" viewBox="0 0 469.333 469.333" style="enable-background:new 0 0 469.333 469.333" width="512" height="512"><g><g><g fill="#8c76a6"><path d="M320 213.333c35.307 0 63.787-28.693 63.787-64s-28.48-64-63.787-64-64 28.693-64 64 28.693 64 64 64zM149.333 213.333c35.307 0 63.787-28.693 63.787-64s-28.48-64-63.787-64-64 28.693-64 64 28.694 64 64 64zM149.333 256C99.52 256 0 280.96 0 330.667V384h298.667v-53.333c0-49.707-99.52-74.667-149.334-74.667zM320 256c-6.187 0-13.12.427-20.587 1.173 24.747 17.813 41.92 41.813 41.92 73.493V384h128v-53.333C469.333 280.96 369.813 256 320 256z"/></g></g></g><g/><g/><g/><g/><g/><g/><g/><g/><g/><g/><g/><g/><g/><g/><g/></svg>