<svg xmlns="http://www.w3.org/2000/svg" width="30" height="30" viewBox="241.5 241.5 30 30"><path fill="#adadad" d="M256.12 241.5a14.64 14.64 0 0 0-14.62 14.62 14.64 14.64 0 0 0 14.62 14.62 14.64 14.64 0 0 0 14.62-14.62 14.64 14.64 0 0 0-14.62-14.62z"/><path fill="#E6E6E6" d="M256.12 269.52c-7.4 0-13.4-6-13.4-13.4s6-13.4 13.4-13.4 13.4 6 13.4 13.4-6 13.39-13.4 13.4z"/><path opacity=".1" d="M243.94 257.34c0-7.4 6-13.4 13.4-13.4 3.38 0 6.47 1.27 8.83 3.35a13.38 13.38 0 1 0-18.89 18.89 13.36 13.36 0 0 1-3.34-8.84z"/><linearGradient id="a" gradientUnits="userSpaceOnUse" x1="-242.41" y1="384.78" x2="-241.71" y2="384.08" gradientTransform="matrix(20.8333 0 0 -20.8333 5303.64 8264.93)"><stop offset="0" stop-opacity=".1"/><stop offset="1" stop-opacity="0"/></linearGradient><path fill="url(#a)" d="M256.67 245.51a.6.6 0 0 1 .06.26v9.32c.36.21.6.59.6 1.03 0 .1-.03.2-.06.3l4.76 4.76a.61.61 0 0 1-.86.86l-4.75-4.75c-.1.02-.2.06-.3.06-.2 0-.39-.06-.56-.15l9.18 9.19a13.4 13.4 0 0 0 4.61-8.19l-12.68-12.69z"/><path fill="#adadad" d="M257.28 256.42c.02-.1.06-.2.06-.3 0-.44-.25-.81-.6-1.03v-9.32a.6.6 0 0 0-.6-.6h-.02a.6.6 0 0 0-.6.59v9.33a1.2 1.2 0 0 0 .6 2.25c.1 0 .2-.03.3-.06l4.76 4.76a.61.61 0 0 0 .86-.87l-4.76-4.75z"/><linearGradient id="b" gradientUnits="userSpaceOnUse" x1="-242.92" y1="384.72" x2="-241.65" y2="384.13" gradientTransform="matrix(20.8333 0 0 -20.8333 5303.64 8264.93)"><stop offset="0" stop-color="#fff" stop-opacity=".2"/><stop offset="1" stop-color="#fff" stop-opacity="0"/></linearGradient><path fill="url(#b)" d="M256.12 241.5a14.64 14.64 0 0 0-14.62 14.62 14.64 14.64 0 0 0 14.62 14.62 14.64 14.64 0 0 0 14.62-14.62 14.64 14.64 0 0 0-14.62-14.62z"/><circle fill="#adadad" cx="264.8" cy="264.8" r="6.7"/><circle fill="#fff" cx="264.8" cy="264.8" r="5.48"/><path fill="#adadad" d="M267.23 264.2h-4.87a.6.6 0 0 0-.6.59c0 .34.27.61.6.62h4.87a.6.6 0 0 0 .01-1.22z"/></svg>