<svg xmlns="http://www.w3.org/2000/svg" xmlns:xlink="http://www.w3.org/1999/xlink" width="30" height="30" viewBox="241.5 241.5 30 30"><use xlink:href="#C" fill="#303c42"/><path fill="#e6e6e6" d="M256.12 269.52a13.4 13.4 0 110-26.8 13.4 13.4 0 010 26.8z"/><path fill="#303c42" d="M257.28 256.42c.02-.1.06-.2.06-.3 0-.44-.25-.81-.6-1.03v-9.32a.6.6 0 00-.6-.6h-.02a.6.6 0 00-.6.59v9.33a1.2 1.2 0 00.6 2.25c.1 0 .2-.03.3-.06l4.76 4.76c.24.24.63.24.87 0s.24-.63 0-.86l-4.77-4.76z"/><linearGradient id="A" gradientUnits="userSpaceOnUse" x1="242.732" y1="249.87" x2="269.19" y2="262.162"><stop offset="0" stop-color="#fff" stop-opacity=".2"/><stop offset="1" stop-color="#fff" stop-opacity="0"/></linearGradient><use xlink:href="#C" fill="url(#A)"/><circle fill="#303c42" cx="264.8" cy="264.8" r="6.7"/><circle fill="#d32f2f" cx="264.8" cy="264.8" r="5.48"/><path fill="#303c42" d="M267.23 264.2h-4.87a.6.6 0 00-.6.59c0 .34.27.61.6.62h4.87c.34 0 .61-.27.62-.6a.6.6 0 00-.6-.61h-.02z"/><defs ><path id="C" d="M256.12 241.5a14.64 14.64 0 00-14.62 14.62 14.64 14.64 0 0014.62 14.62 14.64 14.64 0 0014.62-14.62 14.64 14.64 0 00-14.62-14.62z"/></defs></svg>