<svg xmlns="http://www.w3.org/2000/svg" viewBox="225.2 224.9 50 50.1">
  <path fill="#FFD551" d="M245.7 262.1h8.7v8.7c0 2.3-1.9 4.2-4.2 4.2h-.3a4.2 4.2 0 0 1-4.2-4.2v-8.7z"/>
  <path fill="#FFC34C" d="M249.9 270.8v-8.7h-4.3v8.7c0 2.3 1.9 4.2 4.2 4.2h.3c.7 0 1.4-.2 2-.5a4.2 4.2 0 0 1-2.2-3.7z"/>
  <path fill="#FFD551" d="M250.1 225h-.3a3.5 3.5 0 0 0-3.5 3.5v7.2h7.2v-7.2c.1-2-1.5-3.5-3.4-3.5zm1.6 3.6c0 .9-.7 1.7-1.7 1.7h-.1c-.9 0-1.7-.7-1.7-1.7v-.1c0-.9.7-1.7 1.7-1.7h.1c.9 0 1.7.7 1.7 1.7v.1z"/>
  <path fill="#FFC34C" d="M248.3 228.6v-.1l.1-.7a3.4 3.4 0 0 1 2.6-2.7l-.8-.1h-.3a3.5 3.5 0 0 0-3.5 3.5v7.2h1.9v-6.5-.6z"/>
  <path fill="#FFD551" d="M265.6 263.7h-31.2l4-22.5a11.8 11.8 0 0 1 23.2 0l4 22.5z"/>
  <path fill="#FCE575" d="M267.6 269.4h-35.2a2.7 2.7 0 0 1-2.7-2.7v-.2c0-1.5 1.2-2.7 2.7-2.7h35.2c1.5 0 2.7 1.2 2.7 2.7v.2c0 1.5-1.2 2.7-2.7 2.7z"/>
  <path fill="#FFC34C" d="M253.2 232a11.8 11.8 0 0 0-14.8 9.3l-4 22.5h6.4l4-22.5c.8-4.6 4.2-8.1 8.4-9.3z"/>
  <path fill="#FCDA4F" d="M236.1 268.8v-.2c0-1.5 1.2-2.7 2.7-2.7h31.5a2.8 2.8 0 0 0-2.7-2.1h-35.2a2.7 2.7 0 0 0-2.7 2.7v.2c0 1.5 1.2 2.7 2.7 2.7h3.7v-.6z"/>
  <path fill="#FFDF74" d="M259.6 244.8a.6.6 0 0 1-.6-.6c-.4-7.7-5.5-8.6-5.5-8.6-.4-.1-.6-.4-.5-.7.1-.4.4-.6.7-.5.1 0 1.6.3 3.1 1.7 1.4 1.2 3.2 3.7 3.4 8.2 0 .4-.2.7-.6.7v-.2z"/>
  <circle cx="245.4" cy="256.9" r="1.8" fill="#FFC34C"/>
  <ellipse cx="250" cy="259.9" fill="#FFC34C" rx="1.8" ry="1.8"/>
</svg>
