<svg xmlns="http://www.w3.org/2000/svg" xmlns:xlink="http://www.w3.org/1999/xlink" viewBox="-124.51 -125.07 300 300">
  <linearGradient id="a" x1="708.98" x2="416.01" y1="913.41" y2="620.45" gradientTransform="translate(-537 -742)" gradientUnits="userSpaceOnUse">
    <stop offset="0" stop-color="#00FCCF"/>
    <stop offset="1" stop-color="#00CEFD"/>
  </linearGradient>
  <path fill="url(#a)" d="M175.49 162.93a12 12 0 0 1-12 12h-276a12 12 0 0 1-12-12v-276a12 12 0 0 1 12-12h276a12 12 0 0 1 12 12v276z"/>
  <path fill="#FED428" d="M-63.71-6.48a91.33 91.33 0 0 0 21.75 99.15c31.04 29.3 77.99 34.78 116.51 17.18 28.79-13.17 48.06-47.76 46.27-79.28-2.74-51.7-41.29-94.65-93.76-98.15-81.47 16.78-76.17 24.02-90.77 61.1z"/>
  <path fill="#872C0C" stroke="#872C0C" stroke-linejoin="round" stroke-miterlimit="10" stroke-width="1.99" d="M43.05 93.24c14.96 10.75 42.63-17.34 30.6-23.8-9.95 15.32-17.45 17.23-30.6 23.8z"/>
  <defs>
    <path id="b" d="M19.34-18.37c-4.29-12.77-25.76-6.28-32.51-16.4-6.15-6.49-14.64-30.74-27.12-19.61-9.21 8.01-10.43 21.15-23.15 24.46-7.98 2.53-32.4 7.04-21.73 20.71C-80.02-.41-69.9 5.78-70.2 16.67c-.23 11.36-3.87 34.6 15.51 27.67l17.09-6.06c5.52-2 11.89 1.43 17.29 3.39 5.07 1.66 11.81 5.63 17.3 3.54 7.94-3.09 6.28-11.89 6.06-18.62-.11-7.61-1.56-14.44 3.41-20.82 4.31-5.84 15.52-15.78 12.88-24.14z"/>
  </defs>
  <clipPath id="c">
    <use overflow="visible" xlink:href="#b"/>
  </clipPath>
  <g fill="none" stroke-miterlimit="10" stroke-width="27.94" clip-path="url(#c)">
    <path stroke="#EE6455" d="M-99.19 28.43C-75.05-34.88-9.31-72.12 57.35-60.6 123.69-48-128.98 108.79-99.19 28.43z"/>
    <path stroke="#FFEE2C" d="M-32.41 168.89A113.4 113.4 0 0 1-78.83 62.06C-73.3 21.62-45.1-13.62-6.77-27.83c71.84-26.89 8.92 220.87-25.64 196.72z"/>
    <path stroke="#29FFC2" d="M-50.16 97.37A84.75 84.75 0 0 1 2.18-1.27a85.16 85.16 0 0 1 104.3 40.51c5.94 11.69-146.29 99.18-156.64 58.13z"/>
    <path stroke="#74A6FA" d="M-24.93 77.06c0-30.64 25.67-56.12 56.14-56.12 30.54 0-56.14 86.73-56.14 56.12z"/>
  </g>
  <path fill="none" stroke="#02587E" stroke-miterlimit="10" stroke-width="5.66" d="M19.59-17.48c-3.85-11.79-23.01-7.59-30.93-14.66-6.93-6.42-13.37-29.35-26.42-22.52-10.54 5.65-10.77 21.75-23.35 25.38-8.3 2.4-30.15 5.23-24.14 18.83 4.15 9.4 16.44 15.75 16.2 26.63-.21 8.6-4.33 35.59 12.94 29.47 10.99-3.84 20.29-9.18 31.51-5.32 4.86 1.8 9.87 4.2 14.95 5.32 9.76 3.41 13.4-6.23 13.27-13.83-.21-7.7-2.5-18.13 2.39-24.48 4.62-6.11 16.4-16.44 13.58-24.82z"/>
  <defs>
    <path id="d" d="M136.46-16.94c-3.73-11.59-23.31-7.6-31.04-14.75-7.06-6.48-13.65-29.41-26.64-22.59-10.6 5.52-10.83 21.81-23.6 25.45-8.35 2.41-33.91 6.93-23.29 21.15 5.04 8.71 15.38 14.87 15.15 25.87-.23 10.26-4.17 34.6 14.33 27.88l17.4-6.15c5.93-2.11 10.79.63 16.29 2.5 4.84 1.67 11.28 5.41 16.72 4.66 9.26-1.24 8.48-10.49 8.19-17.41-.03-8.06-1.8-15.76 3.29-22.47 4.62-5.86 16.06-15.79 13.2-24.14z"/>
  </defs>
  <clipPath id="e">
    <use overflow="visible" xlink:href="#d"/>
  </clipPath>
  <g fill="none" stroke-miterlimit="10" stroke-width="27.93" clip-path="url(#e)">
    <path stroke="#EE6455" d="M18.08 29.86C42.2-33.45 107.86-70.69 174.61-59.17 240.9-46.56-11.86 110.17 18.08 29.86z"/>
    <path stroke="#FFEE2C" d="M84.71 170.27a113.6 113.6 0 0 1-46.5-106.82c5.34-40.43 33.73-75.65 72.04-89.76 72.06-26.97 9.05 220.71-25.54 196.58z"/>
    <path stroke="#29FFC2" d="M65.08 99.59C55.2 58.29 77.67 15.99 117.33.9a84.95 84.95 0 0 1 104.21 40.42c5.9 11.89-146.08 99.48-156.46 58.27z"/>
    <path stroke="#74A6FA" d="M91.97 77.88c0-30.6 25.53-56.16 56.16-56.16 30.42-.01-56.16 86.65-56.16 56.16z"/>
  </g>
  <path fill="none" stroke="#02587E" stroke-miterlimit="10" stroke-width="5.66" d="M136.77-17.48c-3.85-11.79-23.12-7.58-30.84-14.62-7.04-6.35-13.38-29.24-26.49-22.45-10.66 5.53-10.88 21.64-23.38 25.28-8.37 2.4-30.13 5.23-24.16 18.83 4.04 9.4 16.47 15.64 16.24 26.63-.23 9.31-4.51 35.59 13.39 29.25l17-6.01c5.69-2.03 9.97-.36 15.63 1.47 4.76 1.83 10.45 4.88 15.64 5.32 9.97 1.04 10.88-8.47 10.7-15.62-.04-7.48-2.29-16.9 2.47-23.14 4.73-6.12 16.54-16.56 13.8-24.94z"/>
  <path fill="#02587E" d="M16.22-2.08c5.56 3.98 19.47 0 19.47 0l7.92 7.41H9.25c0 .1 2.2-1.95 6.97-7.41z"/>
</svg>
