<svg xmlns="http://www.w3.org/2000/svg" width="512" height="512">
  <path fill="#FFF" d="M50.5 53.5h405v405h-405z"/>
  <path fill="#8C76A6" d="M256 261.7c34.1 0 62.6-28.4 62.6-62.6 0-34.1-28.4-62.6-62.6-62.6-34.1 0-62.6 28.4-62.6 62.6 0 34.1 28.5 62.6 62.6 62.6zm128 113.8c0-42.7-85.3-62.6-128-62.6s-128 22.8-128 62.6v22.8h256v-22.8zM455.1 0H56.9C25.6 0 0 25.6 0 56.9v398.2C0 486.4 25.6 512 56.9 512h398.2c31.3 0 56.9-25.6 56.9-56.9V56.9C512 25.6 486.4 0 455.1 0zm0 455.1H56.9V56.9h398.2v398.2z"/>
</svg>
