<svg xmlns="http://www.w3.org/2000/svg" viewBox="225 225 50 50">
  <path fill="#F5F5F5" d="M272.1 239.2c0-1.2-.7-2.4-1.7-3l-18.7-10.8a3.4 3.4 0 0 0-3.4 0l-9.1 5.3-9.5 5.5a3.4 3.4 0 0 0-1.7 3v21.6c0 1.2.7 2.4 1.7 3l9.5 5.5 9.1 5.3c1.1.6 2.4.6 3.4 0l18.7-10.8a3.4 3.4 0 0 0 1.7-3v-21.6z"/>
  <path fill="#73AF00" d="M272.1 239.2c0-1.2-.7-2.4-1.7-3l-18.7-10.8a3.4 3.4 0 0 0-3.4 0l-9.1 5.3v38.5l9.1 5.3c1.1.6 2.4.6 3.4 0l18.7-10.8a3.4 3.4 0 0 0 1.7-3v-21.5z"/>
  <path fill="#F5F5F5" d="M265.9 254.5c-4 3.5-10 3.2-13.5-.8s-3.2-10 .8-13.5c.1-.1 0-.2-.1-.2a10.5 10.5 0 0 0 3.7 20.3c4 0 7.4-2.2 9.2-5.5.1-.1-.1-.2-.2-.1l.1-.2zm-5-12.6l1.4 1.5 1.9-.8c.2-.1.5.2.3.4l-1 1.8 1.3 1.6c.2.2 0 .5-.3.5l-2-.4-1.1 1.8c-.1.2-.5.2-.5-.1l-.2-2.1-2-.5c-.3-.1-.3-.4 0-.5l1.9-.8-.2-2.1c-.1-.4.3-.5.5-.3z"/>
  <path fill="none" d="M239.1 230.7v38.5"/>
</svg>
