<svg xmlns="http://www.w3.org/2000/svg" viewBox="231 233.8 50 44.3">
  <path fill="#8C76A6" d="M245.5 259.5c1.4 0 2.8-.1 4-.3v-14.1c-1.3-.2-2.6-.3-4-.3-8 0-14.5 2.9-14.5 6.6v1.4c0 3.8 6.5 6.7 14.5 6.7zm0 7.4c1.4 0 2.8-.1 4-.3v-4.1c-1.3.2-2.6.3-4 .3-7 0-12.8-2.2-14.2-5.2-.2.4-.3.9-.3 1.3v1.4c0 3.6 6.5 6.6 14.5 6.6zm4.1 3.3v-.3c-1.3.2-2.6.3-4 .3-7 0-12.8-2.2-14.2-5.2-.2.4-.3.9-.3 1.3v1.4c0 3.6 6.5 6.6 14.5 6.6 1.6 0 3.1-.1 4.6-.3-.4-.7-.5-1.5-.5-2.3v-1.5h-.1zm16.9-36.4c-8 0-14.5 2.9-14.5 6.6v1.4c0 3.6 6.5 6.6 14.5 6.6s14.5-2.9 14.5-6.6v-1.4c0-3.6-6.5-6.6-14.5-6.6zm0 17.8c-7 0-12.8-2.2-14.2-5.2-.2.4-.3.9-.3 1.3v1.4c0 3.6 6.5 6.6 14.5 6.6s14.5-2.9 14.5-6.6v-1.4c0-.5-.1-.9-.3-1.3-1.4 3-7.2 5.2-14.2 5.2zm0 7.4c-7 0-12.8-2.2-14.2-5.2-.2.4-.3.9-.3 1.3v1.4c0 3.6 6.5 6.6 14.5 6.6s14.5-2.9 14.5-6.6v-1.4c0-.5-.1-.9-.3-1.3-1.4 2.9-7.2 5.2-14.2 5.2zm0 7.7c-7 0-12.8-2.2-14.2-5.2-.2.4-.3.9-.3 1.3v1.4c0 3.6 6.5 6.6 14.5 6.6s14.5-2.9 14.5-6.6v-1.4c0-.5-.1-.9-.3-1.3-1.4 3-7.2 5.2-14.2 5.2zm0 7.3c-7 0-12.8-2.2-14.2-5.2-.2.4-.3.9-.3 1.3v1.4c0 3.6 6.5 6.6 14.5 6.6s14.5-2.9 14.5-6.6v-1.4c0-.5-.1-.9-.3-1.3-1.4 3-7.2 5.2-14.2 5.2z"/>
</svg>
