<svg xmlns="http://www.w3.org/2000/svg" version="1.1" x="0" y="0" width="25" height="25" viewBox="2.9 4.3 25 25" enable-background="new 2.9 4.3 25 25" xml:space="preserve"><path fill="#FFFFFF" stroke="#D3DCDE" stroke-width="0.51" stroke-miterlimit="10" d="M26.1 27.4c0 0.9-0.7 1.6-1.5 1.6H6.2c-0.8 0-1.5-0.7-1.5-1.6V6.2c0-0.9 0.7-1.6 1.5-1.6h18.4c0.8 0 1.5 0.7 1.5 1.6V27.4z"/><rect x="6.4" y="6.3" fill="#F2E6FF" width="18" height="16.6"/><path fill="#CC99FF" d="M17.3 18c0.4-0.5 0.7-1.2 0.9-2.2 0.2 0 0.4-0.2 0.5-0.5 0.1-0.4 0.2-1 0-1.1 -0.1 0-0.1 0-0.2 0v-1c0-1.1-0.1-2.2-1.2-2.7 -0.2-0.5-0.2-0.9-0.2-0.9 -0.5 0.5-2.4 0.7-2.4 0.7l0 0c-2.4 0.3-2.1 1.2-2.1 2.9v1c-0.1 0-0.1 0-0.2 0 -0.2 0.1-0.1 0.7 0 1 0.1 0.4 0.4 0.6 0.6 0.6 0.1 1 0.4 1.7 0.8 2.2 -1.9 0.8-3.2 2.7-3.2 4.9h9.9C20.5 20.7 19.2 18.8 17.3 18z"/></svg>