<svg xmlns="http://www.w3.org/2000/svg" viewBox="231 231 50 50">
  <path fill="#8C76A6" d="M241.8 250.4h3.8v3.8c0 1.4 1.1 2.6 2.6 2.6s2.6-1.1 2.6-2.6v-3.8h3.8c1.4 0 2.6-1.1 2.6-2.6 0-1.4-1.1-2.6-2.6-2.6h-3.8v-3.8c0-1.4-1.1-2.6-2.6-2.6s-2.6 1.1-2.6 2.6v3.8h-3.8c-1.4 0-2.6 1.1-2.6 2.6.1 1.4 1.2 2.6 2.6 2.6zm33.6-19.4h-38.8a5.6 5.6 0 0 0-5.6 5.6v38.8c0 3.1 2.5 5.6 5.6 5.6h38.8c3.1 0 5.6-2.5 5.6-5.6v-38.8c0-3.1-2.5-5.6-5.6-5.6zm-39.3 5.6c0-.3.2-.5.5-.5h38.8c.1 0 .3.1.4.1l-39.5 39.5c-.1-.1-.1-.2-.1-.4v-38.7zm34.8 32.7h-12.7c-1.4 0-2.6-1.1-2.6-2.6s1.1-2.6 2.6-2.6h12.7c1.4 0 2.6 1.1 2.6 2.6s-1.2 2.6-2.6 2.6z"/>
</svg>
