<svg height="460pt" viewBox="-11 0 460 460.118" width="460pt" xmlns="http://www.w3.org/2000/svg"><path d="M429.71 75.578v336.32h-86.48l-.43-.117 82.06-282.64-184.462-53.563zm0 0" fill="#9BE7E7"/><path d="M221.54 70.11l18.858 5.468 184.461 53.563-82.058 282.64-11.711 40.34-322.98-93.77 93.769-322.98 82.441 23.93zm0 0" fill="#00efd1"/><path d="M204.64 0h-3.382c-13.73 0-25.348 11.05-25.348 24.781v23.88l-72.027-20.974a7.89 7.89 0 00-6.04.676 7.885 7.885 0 00-3.757 4.778L.37 356.117a8.012 8.012 0 005.48 9.914l322.993 93.77a8.06 8.06 0 006.101-.672 7.914 7.914 0 003.828-4.73l10-34.403h80.938a8.256 8.256 0 008.2-8.098V75.578c0-4.418-3.782-7.578-8.2-7.578H241.539l-11.629-3.898v-39.32C229.91 11.05 218.371 0 204.64 0zm-12.73 24.781c0-4.91 4.442-8.781 9.348-8.781h3.383c4.906 0 9.27 3.871 9.27 8.781v34.672l-22-6.148zM353.418 404l68.492-235.316V404zm68.492-284.102L296.64 84h125.27zM238.352 83.262l176.687 51.332-79.875 274.957-9.5 32.656-307.629-89.309 89.488-307.617L213.91 76.113V130.7a9.074 9.074 0 01-9.086 8.903c-4.918 0-8.906-3.985-8.914-8.903V97.461a8 8 0 00-16 0v33.238a24.66 24.66 0 007.207 17.61 25.097 25.097 0 0027.242 5.406 25.098 25.098 0 0015.551-23.016V80.758zm0 0" fill="#083863"/></svg>