<svg xmlns="http://www.w3.org/2000/svg" viewBox="231 231 50 49.8">
  <path fill="#A9A9A9" d="M243.9 244.7c1.1.8 1.8 2.1 1.8 3.6v1.4l12.1-12.3c.9-.8 1-2.2.2-3.2-.5-.6-1.2-.9-1.8-.9-.6 0-1.2.2-1.7.7l-10.6 10.7zm-10 19.8l.8-.9 2.1-15.5c.1-2 1.5-3.7 3.5-4.2l-.1-2.2c0-1.3-1-2.3-2.3-2.3-1.3 0-2.3 1-2.3 2.3l-2.2 16.2-2.2 2.5c-.3.4-.3 1 .1 1.3l2.6 2.8zm26.7-26.7c1 .2 1.8.8 2.5 1.6.4.5.7 1.1.8 1.8l1.3-1.3c.9-.8 1-2.2.2-3.2-.5-.6-1.2-.9-1.8-.9-.6 0-1.2.2-1.7.7l-1.3 1.3zm14.8 1c.2 0 .4-.1.6-.2l2.6-1.9c.5-.3.6-1 .3-1.5s-1-.6-1.5-.3l-2.6 1.9c-.5.3-.6 1-.3 1.5.2.3.6.5.9.5zm-3.7-2.7c.1 0 .2.1.4.1.4 0 .8-.3 1-.7l1.1-3c.2-.5-.1-1.2-.6-1.4-.5-.2-1.2.1-1.4.6l-1.1 3c-.2.6 0 1.2.6 1.4zm8.2 4.6h-3.2a1 1 0 0 0-1 1c0 .6.5 1 1.1 1l3.2-.1c.6 0 1-.5 1-1.1 0-.4-.5-.8-1.1-.8zm-7.2 21.2a2.34 2.34 0 0 0-1.6-4c-.7 0-1.3.3-1.7.7l-5.3 5.3c-.2.2-.5.3-.8.3a1.15 1.15 0 0 1-.8-2l8.5-8.5c.9-.8 1-2.2.2-3.2-.5-.6-1.2-.9-1.8-.9-.6 0-1.2.2-1.7.7l-8.6 8.6c-.2.2-.5.3-.8.3-.3 0-.6-.1-.8-.3-.4-.4-.4-1.2 0-1.6l10.9-10.9c.9-.8 1-2.2.2-3.2-.5-.6-1.2-.9-1.8-.9-.6 0-1.2.2-1.7.7l-10.9 10.9c-.2.2-.5.3-.8.3-.3 0-.6-.1-.8-.3-.4-.4-.4-1.2 0-1.6l8.5-8.5c.9-.8 1-2.2.2-3.2-.5-.6-1.2-.9-1.8-.9-.6 0-1.2.2-1.7.7l-12.3 12.3c-.2.2-.5.3-.8.3-.5 0-1.1-.4-1.1-1l-.1-3.8c0-1.3-1-2.3-2.3-2.3-1.3 0-2.3 1-2.3 2.3l-2.2 16.2-2.2 2.5c-.3.4-.3 1 .1 1.3l12.2 12.2c.2.2.4.3.7.3.2 0 .4-.1.6-.2l2.7-2.1c.1-.1.3-.2.4-.2 4.8-1 10.2-5.2 15.4-10.4l6.1-5.9zm-13.1-24.2"/>
</svg>
