<svg xmlns="http://www.w3.org/2000/svg" viewBox="231 231 50 50">
  <path fill="#8C76A6" d="M256 231c-4.8 0-8.8 4-8.8 8.9s3.9 8.8 8.8 8.8 8.8-3.9 8.8-8.8-4-8.9-8.8-8.9zm2.9 17.7H253c-2.1 0-4.1.5-5.9 1.4 3.1.8 6 2 8.8 3.6 2.8-1.6 5.7-2.8 8.8-3.6-1.7-.9-3.7-1.4-5.8-1.4zm19.2 8.8a2.9 2.9 0 0 0-2.9 2.9v5.9a2.9 2.9 0 0 0 5.8 0v-5.9c0-1.6-1.3-2.9-2.9-2.9zm-44.2 0a2.9 2.9 0 0 0-2.9 2.9v5.9a2.9 2.9 0 0 0 5.8 0v-5.9c.1-1.6-1.3-2.9-2.9-2.9zm1.5-5.9c-.8 0-1.5.7-1.5 1.5v1.5c3.2 0 5.9 2.6 5.9 5.9v5.9c0 3.2-2.6 5.9-5.9 5.9v1.5c0 .8.7 1.5 1.5 1.5 7.5 0 13.5 2.4 19.1 6v-24.6c-5.6-3.6-11.7-5.1-19.1-5.1zm42.7 2.9V253c0-.8-.7-1.5-1.5-1.5-7.4 0-13.5 1.5-19.1 4.7V281c5.6-3.6 11.6-6 19.1-6 .8 0 1.5-.7 1.5-1.5V272c-3.2 0-5.9-2.6-5.9-5.9v-5.9c0-3 2.6-5.7 5.9-5.7z"/>
</svg>
