<?xml version="1.0" encoding="utf-8"?>
<!-- Generator: Adobe Illustrator 16.0.4, SVG Export Plug-In . SVG Version: 6.00 Build 0)  -->
<!DOCTYPE svg PUBLIC "-//W3C//DTD SVG 1.1//EN" "http://www.w3.org/Graphics/SVG/1.1/DTD/svg11.dtd">
<svg version="1.1" id="Layer_1" xmlns="http://www.w3.org/2000/svg" xmlns:xlink="http://www.w3.org/1999/xlink" x="0px" y="0px"
	 width="26px" height="26px" viewBox="0 0 26 26" enable-background="new 0 0 26 26" xml:space="preserve">
<path id="ub" fill="#6092F8" d="M26,13c0-3.6-2.9-6.5-6.5-6.5C15.9,6.5,13,9.4,13,13c-3.6,0-6.5-2.9-6.5-6.5C6.5,3,9.4,0,13,0
	C20.2,0,26,5.8,26,13z"/>
<path id="rg" fill="#00F5BB" d="M26,13c0,7.2-5.8,13-13,13c3.6,0,6.5-2.9,6.5-6.5c0-3.6-2.9-6.5-6.5-6.5c0-3.6,2.9-6.5,6.5-6.5
	C23,6.5,26,9.4,26,13z"/>
<path id="lg" fill="#00F5BB" d="M13,13c0,3.6-2.9,6.5-6.5,6.5C3,19.5,0,16.6,0,13C0,5.8,5.8,0,13,0C9.4,0,6.5,3,6.5,6.5
	C6.5,10.1,9.4,13,13,13z"/>
<path id="lb" fill="#6092F8" d="M19.5,19.5c0,3.6-2.9,6.5-6.5,6.5C5.8,26,0,20.2,0,13c0,3.6,2.9,6.5,6.5,6.5c3.6,0,6.5-2.9,6.5-6.5
	C16.6,13,19.5,15.9,19.5,19.5z"/>
</svg>
