<svg xmlns="http://www.w3.org/2000/svg" viewBox="231 231 50 50">
  <linearGradient id="a" x1="399" x2="449" y1="-630" y2="-630" gradientTransform="matrix(1 0 0 -1 -168 -374)" gradientUnits="userSpaceOnUse">
    <stop offset="0" stop-color="#20FDC2"/>
    <stop offset="1" stop-color="#88D1FF"/>
  </linearGradient>
  <path fill="url(#a)" d="M274.8 231h-37.6a6.3 6.3 0 0 0-6.2 6.3v37.4c0 3.5 2.8 6.3 6.3 6.3h37.4c3.5 0 6.3-2.8 6.3-6.3v-37.4c0-3.5-2.8-6.3-6.3-6.3zm2 43.8c0 1.1-1 2-2 2h-37.6a2 2 0 0 1-2-2v-37.6c0-1.1.9-2 2-2h37.6c1.1 0 2 .9 2 2v37.6z"/>
  <linearGradient id="b" x1="241.4" x2="270.6" y1="243.5" y2="243.5" gradientUnits="userSpaceOnUse">
    <stop offset="0" stop-color="#20FDC2"/>
    <stop offset="1" stop-color="#88D1FF"/>
  </linearGradient>
  <path fill="url(#b)" d="M245.6 243.5a2.1 2.1 0 1 1-4.2 0 2.1 2.1 0 0 1 4.2 0zm25 0c0 1.1-1 2-2.1 2h-16.7a2 2 0 1 1 0-4h16.7c1.1 0 2 .8 2 2z"/>
  <linearGradient id="c" x1="241.4" x2="270.6" y1="256" y2="256" gradientUnits="userSpaceOnUse">
    <stop offset="0" stop-color="#20FDC2"/>
    <stop offset="1" stop-color="#88D1FF"/>
  </linearGradient>
  <path fill="url(#c)" d="M245.6 256a2.1 2.1 0 1 1-4.2 0 2.1 2.1 0 0 1 4.2 0zm22.9-2a2 2 0 1 1 0 4h-16.7a2 2 0 1 1 0-4h16.7z"/>
  <linearGradient id="d" x1="241.4" x2="270.6" y1="268.5" y2="268.5" gradientUnits="userSpaceOnUse">
    <stop offset="0" stop-color="#20FDC2"/>
    <stop offset="1" stop-color="#88D1FF"/>
  </linearGradient>
  <path fill="url(#d)" d="M245.6 268.5a2.1 2.1 0 1 1-4.2 0 2.1 2.1 0 0 1 4.2 0zm22.9-2a2 2 0 1 1 0 4h-16.7a2 2 0 1 1 0-4h16.7z"/>
</svg>
