<svg xmlns="http://www.w3.org/2000/svg" viewBox="231 231 50 50">
  <path fill="#BEBEBE" d="M268 245.9h-23.7c-2.5 0-4.5 2-4.5 4.5l2.4 26.1c0 2.5 2 4.5 4.5 4.5h19.2c2.5 0 4.5-2 4.5-4.5l2.1-26.1c0-2.5-2-4.5-4.5-4.5zm-17.9 27.2c0 1.2-1 2.3-2.3 2.3s-2.3-1-2.3-2.3v-20.4c0-1.2 1-2.3 2.3-2.3s2.3 1 2.3 2.3v20.4zm7.9 0c0 1.2-1 2.3-2.3 2.3-1.2 0-2.3-1-2.3-2.3v-20.4c0-1.2 1-2.3 2.3-2.3 1.2 0 2.3 1 2.3 2.3v20.4zm7.9 0c0 1.2-1 2.3-2.3 2.3-1.2 0-2.3-1-2.3-2.3v-20.4c0-1.2 1-2.3 2.3-2.3 1.2 0 2.3 1 2.3 2.3v20.4zM243 243.6l27.4-7.1c1.5-.4 2.4-1.9 2-3.4s-1.9-2.4-3.4-2l-8.4 2.2c-.8-1.2-2.2-1.8-3.6-1.4l-3.3.8a3.4 3.4 0 0 0-2.5 3l-9.5 2.5c-1.5.4-2.4 1.9-2 3.4.3 1.5 1.8 2.4 3.3 2z"/>
</svg>
