<svg xmlns="http://www.w3.org/2000/svg" viewBox="231 231 50 50">
  <path fill="#ff9933" d="M256 231a17.2 17.2 0 1 0 0 34.4 17.2 17.2 0 0 0 0-34.4zm9 14.8l-3 3.7.3 4.9c0 .5-.2 1.1-.7 1.4-.3.2-.6.3-.9.3-.2 0-.4 0-.6-.1l-4.2-1.8-4.2 1.8c-.5.2-1.1.2-1.5-.2-.4-.3-.7-.8-.7-1.4l.3-4.9-3-3.7c-.3-.4-.4-1-.3-1.5.2-.5.6-.9 1.1-1l4.4-1.2 2.4-4.1c.6-.9 2.1-.9 2.7 0l2.4 4.1 4.4 1.2c.5.1.9.5 1.1 1s.4 1 0 1.5zm-26.6 12.5l-7.2 12.5c-.3.6-.3 1.2.1 1.7s1 .7 1.6.6l9.2-2.5 2.4 9.2c.2.6.7 1.1 1.3 1.1h.2c.6 0 1.1-.3 1.4-.8l6.8-11.8c-6.7-.5-12.5-4.4-15.8-10zm42.4 12.5l-7.2-12.5c-3.2 5.6-9.1 9.5-15.8 10.1l6.8 11.8c.3.5.8.8 1.4.8h.2c.6-.1 1.1-.5 1.3-1.1l2.4-9.2 9.2 2.5c.6.2 1.3-.1 1.6-.6.4-.5.4-1.2.1-1.8z"/>
</svg>
