<svg xmlns="http://www.w3.org/2000/svg" width="32" height="32" viewBox="234.1 229.3 32 32"><g fill="#f8f9fa"><path d="M250 230.5a5 5 0 012 .5l11.2 5.8c.9.5 1.4 1.4 1.4 2.4V251c0 1-.5 1.9-1.4 2.4l-11.2 5.8c-.6.3-1.3.5-1.9.5v-29.2z"/><path d="M250 230.5c-.7 0-1.3.2-1.9.5l-11.2 5.8c-.9.5-1.4 1.4-1.4 2.4V251a3 3 0 001.4 2.4l11.2 5.8c.6.3 1.3.5 2 .5v-29.2z"/></g><path fill="#a9a9a9" d="M250 260.3c-.9 0-1.8-.4-2.2-.6l-11.2-5.8a3.3 3.3 0 01-1.8-2.9v-11.8c0-1.6 1.1-2.6 1.8-2.9l11.2-5.8a5 5 0 014.4 0l11.2 5.8c.3.2 1.8 1 1.8 2.9V251c0 1.3-.7 2.4-1.8 2.9l-11.2 5.8c-.4.2-1.3.6-2.2.6zm-1.7-1.8c.3.2.7.3 1 .3v-5.7l-13.3-6.9v4.7a2 2 0 001.1 1.8l4.8 2.5V251c0-.4.3-.7.6-.7s.6.3.6.7v4.8l5.2 2.7zm2.3.4l1-.3 5.1-2.7V250l-6.2 3.2v5.7zm7.5-3.7l4.8-2.5c.7-.3 1.1-1 1.1-1.8v-4.7l-.8.4-.3.1c-.2 0-.5-.1-.6-.4-.2-.3 0-.7.3-.9l1.4-.7V239l-.1-.5-5.8 3v6.2l2.9-1.5.3-.1c.2 0 .5.1.6.4.2.3 0 .7-.3.9l-3.5 1.8v6zm-8.7-3.5v-6.2l-6.2-3.2v6.2l6.2 3.2zm1.2 0l6.2-3.2v-6.2l-6.2 3.2v6.2zm-8.7-3.9v-6.2l-5.8-3-.1.5v5.7l5.9 3zm8.1-3.5l6-3.1-6-3.1-6 3.1 6 3.1zm7.4-3.8l5.7-2.9-.3-.2-11.2-5.8c-.5-.3-1.1-.4-1.7-.4-.6 0-1.1.1-1.7.4l-4 2.1 5.7 3 4.9-2.6.3-.1c.2 0 .5.1.6.4.2.3 0 .7-.3.9l-4.1 2.1 6.1 3.1zm-14.8 0l6-3.1-5.7-3-5.7 3-.3.2 5.7 2.9z"/></svg>