<svg xmlns="http://www.w3.org/2000/svg" version="1.1" x="0" y="0" width="25" height="25" viewBox="0 0 25 25" enable-background="new 0 0 25 25" xml:space="preserve"><path fill="#FED428" d="M12.7 0.3C2.1 2.5 0.2 8.1 0.1 12.5c-0.4 6.9 6.2 12.4 12.6 12.2 6.7-0.4 10.5-2.7 12.1-9.7C25.5 11.5 23.2 1 12.7 0.3z"/><path fill="#882D0C" d="M11.1 13c-0.1-1.4-4-0.9-4.4-0.7 -2 1-3.3 2.7-3.1 3.3 0.8 0.3 2-1.8 5-2.2C9.2 13.4 11.3 13.5 11.1 13z"/><path fill="#882D0C" d="M13.5 17.1c-0.4 0-2.1 0.6-2.6 3.5 0.3 0.3 1.5-1.2 2.7-1.2 1.1 0 2.2 1.4 2.2 1.4s0.1-1.3 0.1-1.3C15.5 18.3 14.3 17.1 13.5 17.1z"/><path fill="#882D0C" d="M16.2 13c0-0.4 0.4-1.2 1.8-1.3 1.5-0.1 2.2 0.5 2.8 0.9 0.6 0.4 1.6 1.7 1.3 2 -0.2 0.2-2.1-1.1-3.8-1.5C17.9 13 16.6 13.1 16.2 13z"/></svg>