<svg xmlns="http://www.w3.org/2000/svg" width="50" height="50" viewBox="-12.2 -8 50 50"><path fill="#303c42" d="M6.6-6H-8c-2.3 0-4.2 1.8-4.2 3.9v26.8c0 2.1 1.9 3.8 4.2 3.8H6.6c2.3 0 4.1-1.7 4.1-3.8V-2c0-2.2-1.7-4-4.1-4z"/><path fill="#99bdff" d="M-8.3-4.6H7c1.1 0 2.6.9 2.6 2v22.1h-20.4V-2.4c0-1 1.4-2.3 2.6-2.3z"/><path fill="#f2f2f2" d="M6.8 27.2h-15c-1.3 0-2.7-1.1-2.7-2.2v-4.4H9.6v4.3c0 1-1.6 2.3-2.8 2.3z"/><path fill="#303c42" d="M33.6 5.5H19.1c-2.3 0-4.2 1.8-4.2 3.9v26.8c0 2.1 1.9 3.8 4.2 3.8h14.5c2.3 0 4.2-1.7 4.2-3.8V9.4c0-2.1-1.8-3.9-4.1-3.9z"/><path fill="#97e7e7" d="M18.8 6.9h15.1c1.2 0 2.7.9 2.7 2V31H16.2V9.1c0-1 1.4-2.3 2.6-2.3z"/><path fill="#f2f2f2" d="M34 38.7H18.7c-1.2 0-2.6-1.1-2.6-2.2V32h20.4v4.3c0 1.1-1.5 2.3-2.7 2.3z"/><path fill="#303c42" d="M1.2 22.8h-3.8a1 1 0 000 1.9h3.8c.6 0 1-.4 1-1 0-.5-.5-1-1-1zM28.3 34.3h-3.9a1 1 0 000 2h3.9c.5 0 1-.5 1-1 0-.6-.5-1-1-1z"/><linearGradient id="A" gradientUnits="userSpaceOnUse" x1="-15.146" y1="4.677" x2="41.104" y2="29.677"><stop offset="0" stop-color="#fff" stop-opacity=".2"/><stop offset="1" stop-color="#fff" stop-opacity="0"/></linearGradient><path fill="url(#A)" d="M6.6-6H-8c-2.3 0-4.2 1.8-4.2 3.9v26.8c0 2.1 1.9 3.8 4.2 3.8H6.6c2.3 0 4.2-1.7 4.2-3.8V-2c0-2.1-2-3.9-4.2-3.9zm27 11.6H19.1c-2.3 0-4.2 1.7-4.2 3.8v26.8c0 2.1 1.9 3.8 4.2 3.8h14.5c2.3 0 4.2-1.7 4.2-3.8V9.4c0-2.1-1.8-3.9-4.1-3.9z"/><g fill="#303c42"><path opacity=".8" d="M-.7 1A5.2 5.2 0 013 2.3c.5.4.8 1 1.1 1.5.3.6.4 1.2.4 1.9v6.8c0 .4-.1.7-.4 1-.2.2-.5.3-1 .3-.3 0-.6 0-.9-.3-.3-.3-.4-.6-.4-1v-2.3H-3v2.3c0 .4-.1.7-.4 1-.3.2-.6.3-1 .3-.3 0-.7 0-1-.3-.2-.3-.4-.6-.4-1V5.9a5 5 0 011.5-3.4A5.2 5.2 0 01-.7 1zm2.4 4.8a2.2 2.2 0 00-1.4-2 2.4 2.4 0 00-3.1 1.1 2 2 0 00-.2.8v1.9h4.7V5.8z"/><path opacity=".9" d="M30.1 22.8c.4 0 .7.2 1 .4.3.3.4.6.4 1a1.3 1.3 0 01-1.4 1.3h-7.3c-.3 0-.6 0-.8-.2-.2 0-.3-.3-.4-.5a1.4 1.4 0 010-1.4l5.7-8h-4.6c-.4 0-.7-.1-1-.4-.2-.2-.4-.6-.4-1 0-.3.2-.7.4-1 .3-.2.6-.3 1-.3h7.4c.2 0 .5 0 .7.2l.5.5.2.7c0 .2-.1.5-.3.7l-5.7 8H30z"/></g></svg>