<svg xmlns="http://www.w3.org/2000/svg" width="30" height="30" viewBox="235 235 30 30"><path fill="#303C42" d="M246.25 235h-8.75a2.5 2.5 0 0 0-2.5 2.5V255a2.5 2.5 0 0 0 2.5 2.5h8.75a2.5 2.5 0 0 0 2.5-2.5v-17.5a2.5 2.5 0 0 0-2.5-2.5z"/><path fill="#99BDFF" d="M237.5 236.25h8.75c.69 0 1.25.56 1.25 1.25v13.75h-11.25V237.5c0-.69.56-1.25 1.25-1.25z"/><path fill="#F2F2F2" d="M246.25 256.25h-8.75c-.69 0-1.25-.56-1.25-1.25v-2.5h11.25v2.5c0 .69-.56 1.25-1.25 1.25z"/><path fill="#303C42" d="M241.25 238.75h1.25c.35 0 .63-.28.63-.62a.62.62 0 0 0-.62-.62h-1.25c-.34 0-.62.28-.62.63s.27.61.61.61zm1.88 15h-2.5a.63.63 0 0 0 0 1.25h2.5c.35 0 .63-.28.63-.62a.64.64 0 0 0-.63-.63z"/><circle fill="#303C42" cx="245.63" cy="238.13" r=".63"/><path fill="#303C42" d="M262.5 242.5h-8.75a2.5 2.5 0 0 0-2.5 2.5v17.5a2.5 2.5 0 0 0 2.5 2.5h8.75a2.5 2.5 0 0 0 2.5-2.5V245a2.5 2.5 0 0 0-2.5-2.5z"/><path fill="#97E7E7" d="M253.75 243.75h8.75c.69 0 1.25.56 1.25 1.25v13.75H252.5V245c0-.69.56-1.25 1.25-1.25z"/><path fill="#F2F2F2" d="M262.5 263.75h-8.75c-.69 0-1.25-.56-1.25-1.25V260h11.25v2.5c0 .69-.56 1.25-1.25 1.25z"/><path fill="#303C42" d="M257.5 246.25h1.25c.35 0 .63-.28.63-.62a.62.62 0 0 0-.62-.62h-1.25a.62.62 0 0 0-.62.62.6.6 0 0 0 .61.62zm1.88 15h-2.5a.63.63 0 0 0 0 1.25h2.5c.35 0 .63-.28.63-.62a.64.64 0 0 0-.63-.63z"/><circle fill="#303C42" cx="261.88" cy="245.63" r=".63"/><path fill="#303C42" d="M240.63 248.75c.35 0 .63-.28.63-.62v-.63h1.25v.63c0 .35.28.63.63.63s.63-.28.63-.62v-3.75a1.87 1.87 0 1 0-3.74.01v3.75c-.03.32.25.6.6.6zm1.25-5c.35 0 .63.28.63.63v1.88h-1.25v-1.87a.62.62 0 0 1 .62-.64zm15 12.5h1.25c1.03 0 1.88-.84 1.88-1.87 0-.48-.18-.92-.48-1.25a1.87 1.87 0 0 0-1.39-3.12h-1.25a.62.62 0 0 0-.62.62v5a.6.6 0 0 0 .61.62zm.62-5h.63c.35 0 .63.28.63.63s-.28.63-.62.63h-.64v-1.26zm0 2.5h.63a.63.63 0 0 1 0 1.25h-.63v-1.25z"/><linearGradient id="a" gradientUnits="userSpaceOnUse" x1="-32.37" y1="-127.39" x2="-30.71" y2="-126.61" gradientTransform="translate(907.07 2895.86) scale(20.8333)"><stop offset="0" stop-color="#fff" stop-opacity=".2"/><stop offset="1" stop-color="#fff" stop-opacity="0"/></linearGradient><path fill="url(#a)" d="M246.25 235h-8.75a2.5 2.5 0 0 0-2.5 2.5V255a2.5 2.5 0 0 0 2.5 2.5h8.75a2.5 2.5 0 0 0 2.5-2.5v-17.5a2.5 2.5 0 0 0-2.5-2.5zm16.25 7.5h-8.75a2.5 2.5 0 0 0-2.5 2.5v17.5a2.5 2.5 0 0 0 2.5 2.5h8.75a2.5 2.5 0 0 0 2.5-2.5V245a2.5 2.5 0 0 0-2.5-2.5z"/></svg>