<svg xmlns="http://www.w3.org/2000/svg" viewBox="225 225 50 50">
  <path fill="#F4D44E" d="M229.8 236.6c-4.1 6.2-11.5 30.6 21.7 37.6a24.3 24.3 0 1 0-21.7-37.6z"/>
  <path fill="#E8C842" d="M255.8 271.8a24 24 0 0 1-19.3-7.7 24.3 24.3 0 0 1-2.4-30c1.7-2.5 3.7-4.6 6-6.3a24.3 24.3 0 0 0-13.2 29.3 24 24 0 0 0 24.7 17.1c4.8-.3 9.1-2 12.6-4.5a23.6 23.6 0 0 1-8.4 2.1z"/>
  <path fill="#656566" d="M248.8 258.2c.8.3 1.6.3 2.4 0a11 11 0 0 1 2.6-.6v-.2a3.8 3.8 0 1 0-7.6 0v.2c.9 0 1.8.3 2.6.6z"/>
  <path fill="#4F4F51" d="M248.7 257.3c0-1.7 1.1-3.1 2.5-3.6l-1.2-.2a3.8 3.8 0 0 0-3.8 3.8v.2c.8.1 1.7.3 2.4.6l.1-.8z"/>
  <path fill="#E8C842" d="M263.4 274.3h3.9c2 0 3.5-1.6 3.4-3.6-.1-2.9 0-6.9 3.2-12.3 1.5-2.4-1.5-5.1-3.8-3.4a23.2 23.2 0 0 0-9.3 16.4c-.2 1.5 1 2.9 2.6 2.9z"/>
  <path fill="#DBBC3B" d="M266 274.2c-.7-7.8 2-13.7 5.7-17.9.6-.6 1.3-.9 2-.9-.8-1-2.3-1.3-3.5-.4a23.2 23.2 0 0 0-9.3 16.4c-.2 1.5 1 2.9 2.6 2.9h2.6l-.1-.1z"/>
  <path fill="#E8C842" d="M236.6 274.3h-3.9c-2 0-3.5-1.6-3.4-3.6a20 20 0 0 0-3.2-12.3c-1.4-2.4 1.5-5.1 3.8-3.4 4.5 3.4 8.4 8.6 9.3 16.4.2 1.5-1 2.9-2.6 2.9z"/>
  <path fill="#DBBC3B" d="M233.7 270.8c-.3-3.1-.9-7.4-5.2-12.8a2.8 2.8 0 0 1 0-3.5c-1.9-.1-3.6 2-2.4 3.9 3.2 5.5 3.3 9.4 3.2 12.3-.1 2 1.5 3.6 3.4 3.6h3.9l.6-.1a3.7 3.7 0 0 1-3.5-3.4z"/>
  <path fill="#EAE9E8" d="M262.1 249.4a4 4 0 0 1-5.6-.6l-1.3-1.6a4 4 0 1 1 6.2-5l1.3 1.6a4 4 0 0 1-.6 5.6z"/>
  <path fill="#DBDBDB" d="M259.6 246.2l-1.3-1.6c-.9-1.2-1.2-2.7-.7-3.9-.6.1-1.2.4-1.8.8a4 4 0 0 0-.6 5.6l1.3 1.6a4 4 0 0 0 5.6.6c.5-.4.9-.9 1.2-1.5-1.3.2-2.7-.4-3.7-1.6z"/>
  <path fill="#EAE9E8" d="M237.9 249.4a4 4 0 0 0 5.6-.6l1.3-1.6a4 4 0 1 0-6.2-5l-1.3 1.6a4 4 0 0 0 .6 5.6z"/>
  <path fill="#DBDBDB" d="M244.2 241.5c-.5-.4-1.2-.7-1.8-.8a4 4 0 0 1-.6 3.9l-1.3 1.6a4 4 0 0 1-3.7 1.5 4 4 0 0 0 6.8 1l1.3-1.6a4 4 0 0 0-.7-5.6z"/>
  <path fill="#ED694A" d="M253.8 263.5v-6.2l-2.7.6c-.7.3-1.5.3-2.1 0-.9-.3-1.8-.6-2.7-.6v6.2c0 2.1 1.7 3.8 3.8 3.8s3.7-1.7 3.7-3.8z"/>
  <path fill="#D8553A" d="M248.7 263.5v-5.6c-.8-.3-1.6-.5-2.4-.5v6.2a3.8 3.8 0 0 0 5 3.6 4 4 0 0 1-2.6-3.7z"/>
  <path d="M255.9 249.2a4.6 4.6 0 0 0 3.7 1.8c1 0 2.1-.3 2.9-1 2-1.6 2.4-4.6.8-6.6l-1.3-1.6a4.7 4.7 0 1 0-7.4 5.9l1.3 1.5zm.4-7.1a3.3 3.3 0 0 1 4.6.5l1.3 1.6c1.1 1.4.9 3.5-.5 4.6a3.3 3.3 0 0 1-4.6-.5l-1.3-1.6a3.2 3.2 0 0 1 .5-4.6zm-18.3-.4l-1.3 1.6c-1.6 2-1.3 5 .8 6.6 2 1.6 5 1.3 6.6-.8l1.3-1.6c.8-1 1.1-2.2 1-3.5a4.7 4.7 0 0 0-8.4-2.3zm6.2 4.9l-1.3 1.6a3.3 3.3 0 0 1-4.6.5 3.3 3.3 0 0 1-.5-4.6l1.3-1.6a3.3 3.3 0 0 1 4.6-.5c1.4 1.2 1.7 3.2.5 4.6zm5.8 6.2c-2.5 0-4.5 2-4.5 4.5v3.3c0 .4.3.7.7.7s.7-.3.7-.7v-2.4c.6.1 1.1.2 1.7.5.9.4 1.8.4 2.7 0l1.7-.5v5.3a3 3 0 0 1-6 .4c-.1-.4-.4-.7-.8-.6-.4.1-.7.4-.6.8.4 3 3.7 4.8 6.4 3.4a4.6 4.6 0 0 0 2.6-4.1v-6.2a4.6 4.6 0 0 0-4.6-4.4zm-.8 4.5a8 8 0 0 0-2.2-.6 3 3 0 0 1 3-2.4c1.4 0 2.7 1 3 2.4-2.2.3-2.5 1.1-3.8.6z"/>
  <path d="M271.6 237.5a25 25 0 0 0-33.3-9.6c-.4.2-.5.6-.3 1 .2.3.6.5 1 .3 11.1-5.9 25-1.9 31.3 9.1 2.8 4.8 3.8 10.4 2.8 15.8a3.2 3.2 0 0 0-3.5.3c-5.5 4.2-8.8 10-9.6 16.9a23.2 23.2 0 0 1-20.1 0 24.2 24.2 0 0 0-9.6-16.9 3.2 3.2 0 0 0-3.5-.3c-1.5-8.7 2-17.8 9.4-23.2.3-.2.4-.7.2-1a.8.8 0 0 0-1-.2 24.9 24.9 0 0 0-9.8 25.5c-.6.9-.8 2.2-.1 3.5a20 20 0 0 1 3.1 11.9 4.2 4.2 0 0 0 4.2 4.4h3.9c1.4 0 2.7-.9 3.1-2.2 6.6 2.9 14 2.9 20.5 0a3.3 3.3 0 0 0 3.1 2.2h3.9c2.4 0 4.3-1.9 4.2-4.4v-2c0-.4-.3-.7-.7-.7-.4 0-.7.3-.7.7v2.1a2.7 2.7 0 0 1-2.7 2.8h-3.9a2 2 0 0 1-1.9-2.1c.7-6.3 3.6-11.8 9-15.9 1.6-1.2 3.8.7 2.7 2.4a24.8 24.8 0 0 0-2.9 7.1c-.1.4.2.8.6.9.4.1.8-.2.9-.6.5-2.2 1.4-4.4 2.7-6.7a3 3 0 0 0-.1-3.5c1.2-5.9.2-12.2-2.9-17.6zm-35 36h-3.9a2.7 2.7 0 0 1-2.7-2.8c.1-3.5-.2-7.5-3.3-12.7-1-1.7 1.1-3.7 2.7-2.4 5.2 3.9 8.3 9.3 9 15.9.2 1-.6 2-1.8 2z"/>
</svg>
