<?xml version="1.0" encoding="utf-8"?>
<!-- Generator: Adobe Illustrator 16.0.4, SVG Export Plug-In . SVG Version: 6.00 Build 0)  -->
<!DOCTYPE svg PUBLIC "-//W3C//DTD SVG 1.1//EN" "http://www.w3.org/Graphics/SVG/1.1/DTD/svg11.dtd">
<svg version="1.1" id="Layer_1" xmlns="http://www.w3.org/2000/svg" xmlns:xlink="http://www.w3.org/1999/xlink" x="0px" y="0px"
	 width="49.971px" height="50px" viewBox="-12.147 -7.954 49.971 50" enable-background="new -12.147 -7.954 49.971 50"
	 xml:space="preserve">
<rect id="transparent_bg" x="-12.117" y="-7.954" fill="#FFFFFF" fill-opacity="0" width="49.941" height="50"/>
<path fill="#303C42" d="M6.583-5.954H-7.984c-2.3,0-4.163,1.716-4.163,3.834v26.833c0,2.117,1.863,3.834,4.163,3.834H6.583
	c2.299,0,4.161-1.717,4.161-3.834V-2.121C10.744-4.237,8.882-5.954,6.583-5.954z"/>
<path fill="#99BDFF" d="M-8.254-4.606H6.854c1.189,0,2.694,0.899,2.694,1.995v22.115l-20.453-0.081V-2.29
	C-10.905-3.387-9.444-4.606-8.254-4.606z"/>
<path id="blue_white_pad" fill="#F2F2F2" d="M6.854,27.199H-8.254c-1.19,0-2.624-1.147-2.624-2.242v-4.414H9.558l-0.009,4.35
	C9.548,25.986,8.043,27.199,6.854,27.199z"/>
<path fill="#303C42" d="M33.634,5.546H19.067c-2.3,0-4.163,1.716-4.163,3.834v26.833c0,2.117,1.863,3.834,4.163,3.834h14.567
	c2.3,0,4.161-1.717,4.161-3.834V9.379C37.795,7.262,35.934,5.546,33.634,5.546z"/>
<path fill="#97E7E7" d="M18.797,6.893h15.107c1.188,0,2.695,0.9,2.695,1.995v22.115l-20.455-0.081V9.209
	C16.146,8.112,17.606,6.893,18.797,6.893z"/>
<path id="green_white_pad" fill="#F2F2F2" d="M33.896,38.725H18.788c-1.191,0-2.625-1.147-2.625-2.242v-4.414H36.6l-0.009,4.351
	C36.591,37.514,35.083,38.725,33.896,38.725z"/>
<path display="none" fill="#F2F2F2" d="M35.618,40.582H19.282c-1.288,0-2.691-0.973-2.691-2.162v-4.279l21.94-0.088v4.022
	C38.531,39.266,36.902,40.582,35.618,40.582z"/>
<ellipse id="blue_dot" display="none" fill="#303C42" cx="-0.562" cy="-3.347" rx="0.966" ry="0.966"/>
<path id="blue_dashes" fill="#303C42" d="M1.216,22.769h-3.854c-0.532,0.066-0.907,0.551-0.841,1.08
	c0.055,0.437,0.403,0.781,0.841,0.836h3.854c0.542,0,0.971-0.428,0.971-0.95C2.18,23.204,1.749,22.777,1.216,22.769z"/>
<path id="green_dashes" fill="#303C42" d="M28.271,34.286H24.42c-0.532,0.067-0.907,0.551-0.842,1.08
	c0.055,0.438,0.402,0.782,0.842,0.837h3.854c0.541,0,0.971-0.428,0.971-0.951C29.236,34.723,28.807,34.297,28.271,34.286z"/>
<circle id="green_dot" display="none" fill="#303C42" cx="26.483" cy="8.385" r="0.966"/>
<linearGradient id="SVGID_1_" gradientUnits="userSpaceOnUse" x1="-907.4585" y1="-66.7217" x2="-904.7574" y2="-65.4525" gradientTransform="matrix(20.8333 0 0 20.8333 18890.0293 1393.8633)">
	<stop  offset="0" style="stop-color:#FFFFFF;stop-opacity:0.2"/>
	<stop  offset="1" style="stop-color:#FFFFFF;stop-opacity:0"/>
</linearGradient>
<path fill="url(#SVGID_1_)" d="M6.582-5.954H-7.984c-2.3,0-4.163,1.716-4.163,3.834v26.833c0,2.117,1.861,3.834,4.163,3.834H6.582
	c2.298,0,4.163-1.717,4.163-3.834V-2.121C10.744-4.237,8.879-5.954,6.582-5.954z M33.634,5.546H19.067
	c-2.3,0-4.163,1.716-4.163,3.834v26.833c0,2.117,1.863,3.834,4.163,3.834h14.567c2.3,0,4.161-1.717,4.161-3.834V9.379
	C37.795,7.262,35.934,5.546,33.634,5.546z"/>
<path id="A" opacity="0.8" fill="#303C42" enable-background="new    " d="M-0.65,0.95c0.67,0,1.314,0.119,1.929,0.355
	c0.616,0.237,1.153,0.566,1.616,0.992c0.461,0.424,0.831,0.928,1.111,1.509c0.279,0.581,0.419,1.208,0.419,1.883v6.825
	c0,0.352-0.13,0.655-0.39,0.912c-0.258,0.256-0.576,0.391-0.953,0.404c-0.377,0-0.704-0.118-0.976-0.354
	c-0.273-0.236-0.409-0.537-0.409-0.902v-2.37h-4.678v2.309c0,0.352-0.14,0.659-0.418,0.921C-3.678,13.696-4,13.829-4.364,13.829
	c-0.365,0-0.686-0.122-0.966-0.364c-0.28-0.244-0.419-0.54-0.419-0.891V5.851c0.016-0.676,0.151-1.311,0.411-1.903
	c0.259-0.595,0.614-1.114,1.069-1.561c0.454-0.445,0.989-0.795,1.605-1.053C-2.05,1.079-1.378,0.95-0.65,0.95z M1.698,5.851
	c0-0.311-0.06-0.604-0.179-0.882C1.401,4.693,1.232,4.454,1.017,4.253C0.8,4.049,0.547,3.887,0.261,3.766
	c-0.287-0.121-0.597-0.182-0.933-0.182c-0.308,0-0.602,0.058-0.882,0.172c-0.278,0.115-0.523,0.267-0.732,0.455
	C-2.497,4.401-2.664,4.63-2.79,4.9C-2.915,5.17-2.979,5.454-2.979,5.75v1.823h4.678L1.698,5.851L1.698,5.851z"/>
<path id="Z" opacity="0.9" fill="#303C42" enable-background="new    " d="M30.1,22.832c0.402,0,0.734,0.136,1,0.402
	c0.262,0.272,0.396,0.585,0.396,0.948c0,0.39-0.135,0.715-0.396,0.979c-0.266,0.261-0.598,0.392-1,0.392h-7.336
	c-0.279-0.015-0.521-0.082-0.731-0.213c-0.208-0.125-0.366-0.291-0.479-0.492c-0.11-0.201-0.166-0.426-0.166-0.666
	c0-0.239,0.069-0.483,0.208-0.727l0.022-0.021l5.71-8.042h-4.606c-0.376,0-0.702-0.127-0.979-0.382
	c-0.279-0.253-0.418-0.576-0.418-0.966c0-0.376,0.139-0.699,0.417-0.968c0.278-0.27,0.603-0.404,0.979-0.404h7.338
	c0.266,0.015,0.502,0.089,0.717,0.224c0.217,0.133,0.387,0.305,0.502,0.514c0.116,0.208,0.178,0.436,0.178,0.685
	s-0.076,0.494-0.229,0.736l-5.757,8H30.1L30.1,22.832z"/>
</svg>
