<svg xmlns="http://www.w3.org/2000/svg" width="50" height="50" viewBox="-8.2 -6 50 50"><path fill="#A9A9A9" d="M10.6-6H-4a4.2 4.2 0 00-4.2 4.2v29.2c0 2.3 1.9 4.2 4.2 4.2h14.6c2.3 0 4.1-1.9 4.1-4.2V-1.8C14.7-4 13-6 10.6-6z"/><path fill="#F8F9FA" d="M-4-3.9h14.6c1.1 0 2 1 2 2.1v23H-6v-23c0-1.1 1-2 2-2z"/><path fill="#F8F9FA" d="M10.6 29.5H-4a2 2 0 01-2-2.1v-4.2h18.7v4.2c0 1.1-1 2-2.1 2z"/><path fill="#A9A9A9" d="M2.2.3h2.1c.6 0 1-.5 1-1 0-.6-.4-1-1-1h-2a1 1 0 00-1 1c0 .6.4 1 1 1zm3.2 25H1.2a1 1 0 000 2h4.2c.6 0 1-.4 1-1 0-.5-.5-1-1-1z"/><circle fill="#A9A9A9" cx="9.5" cy="-.7" r="1.1"/><path fill="#A9A9A9" d="M37.7 6.5H23a4.2 4.2 0 00-4.2 4.2V40c0 2.3 1.9 4.2 4.2 4.2h14.5c2.3 0 4.2-1.9 4.2-4.2V10.7c0-2.3-1.8-4.1-4.1-4.1z"/><path fill="#F8F9FA" d="M23 8.6h14.7c1.1 0 2 1 2 2.1v23H21v-23c0-1.1 1-2 2-2z"/><path fill="#F8F9FA" d="M37.7 42H23a2 2 0 01-2.1-2.1v-4.2h18.7V40c0 1.1-.9 2-2 2z"/><path fill="#A9A9A9" d="M29.3 12.8h2.1c.6 0 1-.5 1-1 0-.6-.4-1-1-1h-2a1 1 0 00-1 1c-.1.5.3 1 .9 1zm3.2 25h-4.2a1 1 0 000 2h4.2c.6 0 1-.4 1-1 0-.5-.5-1-1-1z"/><circle fill="#A9A9A9" cx="36.6" cy="11.8" r="1.1"/><linearGradient id="a" gradientUnits="userSpaceOnUse" x1="-485.2" y1="-102.2" x2="-482.5" y2="-100.9" gradientTransform="translate(10096.9 2134.9) scale(20.8333)"><stop offset="0" stop-color="#fff" stop-opacity=".2"/><stop offset="1" stop-color="#fff" stop-opacity="0"/></linearGradient><path fill="url(#a)" d="M10.6-6H-4a4.2 4.2 0 00-4.2 4.2v29.2c0 2.3 1.9 4.2 4.2 4.2h14.6c2.3 0 4.1-1.9 4.1-4.2V-1.8C14.7-4 13-6 10.6-6zm27 12.6H23.2a4.2 4.2 0 00-4.2 4.1V40c0 2.3 1.9 4.2 4.2 4.2h14.5c2.3 0 4.2-1.9 4.2-4.2V10.7c0-2.3-1.8-4.1-4.1-4.1z"/><path fill="#A9A9A9" d="M33.7 26.4c.3 0 .6.2.8.4.2.2.3.4.3.7 0 .4-.1.6-.3.9s-.5.3-.8.3h-5.9c-.2 0-.4 0-.6-.2a1 1 0 01-.4-.4v-.5-.6h.1l4.6-6.7h-3.7a1 1 0 01-.8-.3 1 1 0 01-.3-.8c0-.3 0-.6.3-.8.2-.3.5-.4.8-.4h5.9l.5.2.4.4.2.6c0 .2 0 .4-.2.6L30 26.4h3.7zM3.2 6.4c.5 0 1 0 1.5.2a4 4 0 012.5 3.7v5.6c0 .3 0 .5-.3.7a1 1 0 01-.7.4c-.3 0-.6-.1-.8-.3s-.3-.5-.3-.8v-2H1.4v2c0 .3-.1.5-.4.7s-.4.4-.7.4c-.3 0-.6-.1-.8-.3a1 1 0 01-.3-.8v-5.5a4.1 4.1 0 012.4-3.7 4 4 0 011.6-.3zm1.9 4c0-.3 0-.5-.2-.7 0-.3-.2-.4-.4-.6A2 2 0 002 9l-.4.5-.1.7v1.5H5v-1.4z"/></svg>