<svg xmlns="http://www.w3.org/2000/svg" width="30" height="30" viewBox="-12.2 -8 50 50"><path fill="#303C42" d="M6.6-8H-8a4.2 4.2 0 00-4.2 4.2v29.2c0 2.3 1.9 4.1 4.2 4.1H6.6c2.3 0 4.1-1.8 4.1-4.1V-3.8C10.7-6 9-8 6.6-8z"/><path fill="#99BDFF" d="M-8-5.9H6.6c1.1 0 2 1 2 2.1v23H-10v-23c0-1.1 1-2 2-2z"/><path fill="#F2F2F2" d="M6.6 27.5H-8a2 2 0 01-2-2.1v-4.2H8.6v4.2c0 1.1-1 2-2.1 2z"/><path fill="#303C42" d="M-1.8-1.7H.3c.6 0 1-.5 1-1 0-.6-.4-1-1-1h-2a1 1 0 00-1 1c0 .6.4 1 1 1zm3.2 25h-4.2a1 1 0 000 2h4.2c.6 0 1-.4 1-1 0-.5-.4-1-1-1z"/><circle fill="#303C42" cx="5.5" cy="-2.7" r="1.1"/><path fill="#303C42" d="M33.7 4.5H19a4.2 4.2 0 00-4.2 4.2V38c0 2.3 1.9 4.1 4.2 4.1h14.6c2.3 0 4.1-1.8 4.1-4.1V8.7c0-2.3-1.8-4.2-4.1-4.2z"/><path fill="#97E7E7" d="M19 6.6h14.7c1.1 0 2 1 2 2.1v23H17v-23c0-1.1 1-2 2-2z"/><path fill="#F2F2F2" d="M33.7 40H19a2 2 0 01-2.1-2.1v-4.2h18.7V38c0 1.1-.9 2-2 2z"/><path fill="#303C42" d="M25.3 10.8h2.1c.6 0 1-.5 1-1 0-.6-.4-1-1-1h-2a1 1 0 00-1 1c-.1.5.3 1 .9 1zm3.2 25h-4.2a1 1 0 000 2h4.2c.5 0 1-.4 1-1 0-.5-.5-1-1-1z"/><circle fill="#303C42" cx="32.6" cy="9.8" r="1.1"/><linearGradient id="a" gradientUnits="userSpaceOnUse" x1="-485.4" y1="-102.3" x2="-482.6" y2="-101" gradientTransform="translate(10096.9 2134.9) scale(20.8333)"><stop offset="0" stop-color="#fff" stop-opacity=".2"/><stop offset="1" stop-color="#fff" stop-opacity="0"/></linearGradient><path fill="url(#a)" d="M6.6-8H-8a4.2 4.2 0 00-4.2 4.2v29.2c0 2.3 1.9 4.1 4.2 4.1H6.6c2.3 0 4.1-1.8 4.1-4.1V-3.8C10.7-6 9-8 6.6-8zm27 12.5H19.2a4.2 4.2 0 00-4.2 4.2V38c0 2.3 1.9 4.1 4.2 4.1h14.6c2.3 0 4.1-1.8 4.1-4.1V8.7c0-2.3-1.8-4.2-4.1-4.2z"/><path fill="#303C42" d="M-.6 4.3a4.1 4.1 0 013.7 2.4c.3.5.4 1 .4 1.5V14c0 .2-.1.5-.3.7s-.5.3-.8.3c-.3 0-.6 0-.8-.2a1 1 0 01-.3-.8v-2h-3.7v2c0 .2-.1.5-.4.7s-.4.3-.7.3c-.3 0-.6 0-.8-.3a1 1 0 01-.3-.7V8.4a4.2 4.2 0 011.2-2.9A4 4 0 01-.6 4.3zm1.9 4a1.9 1.9 0 00-.5-1.2 2 2 0 00-.6-.4 1.8 1.8 0 00-1.5 0 2 2 0 00-.6.3l-.4.6-.1.7v1.5h3.7V8.4zM29.9 25.3c.3 0 .6 0 .8.3.2.2.3.5.3.8 0 .3-.1.6-.3.8s-.5.3-.8.3H24l-.6-.1a1 1 0 01-.5-1c0-.2 0-.4.2-.6l4.6-6.7H24c-.3 0-.6 0-.8-.3s-.3-.5-.3-.8c0-.3 0-.6.3-.8.2-.2.5-.3.8-.3h5.9c.2 0 .4 0 .5.2a1.2 1.2 0 01.4 1.6l-4.6 6.6h3.7z"/></svg>