<svg xmlns="http://www.w3.org/2000/svg" viewBox="231 231 50 50">
  <path fill="none" d="M231 231h50v50h-50z"/>
  <path fill="#3CB7DD" d="M231 264a12 12 0 0 0 11.8 12 12 12 0 0 0 11.8-12v-6.9h2.8v6.9a12 12 0 0 0 11.8 12c6.5 0 11.8-5.3 11.8-12 0-1.9-.4-3.7-1.2-5.3l-7.4-16.1-1-2.2a7.3 7.3 0 0 0-6.7-4.4 7.5 7.5 0 0 0-7.4 7.6v3l-1.4-.1-1.4.1v-3c0-4.1-3.3-7.6-7.4-7.6-3 0-5.5 1.8-6.7 4.4l-1 2.2-7.4 16.1c-.6 1.6-1 3.4-1 5.3zm38.3-9.3c5 0 9.1 4.1 9.1 9.2s-4.1 9.2-9.1 9.2-9.1-4.1-9.1-9.2 4.1-9.2 9.1-9.2zm-26.5 0c5 0 9.1 4.1 9.1 9.2s-4.1 9.2-9.1 9.2-9.1-4.1-9.1-9.2 4.1-9.2 9.1-9.2zm-3.6 6.2c.6 1.1.9 2.4 1.2 3.6.3 1.1.8 2.2 1.4 3a7.3 7.3 0 0 0 4.4 2.9 7.2 7.2 0 0 0 3.7-6.4c0-4-3.2-7.2-7.1-7.2-2 0-3.8.8-5.1 2.2.6.4 1.1 1.1 1.5 1.9zm26.6-.1c.6 1.1.9 2.4 1.2 3.6.3 1.1.8 2.2 1.4 3a7.3 7.3 0 0 0 4.4 2.9 7.2 7.2 0 0 0 3.7-6.4c0-4-3.2-7.2-7.1-7.2-2 0-3.8.8-5.1 2.2.6.5 1.1 1.1 1.5 1.9z"/>
</svg>
