<svg xmlns="http://www.w3.org/2000/svg" width="30" height="30" viewBox="235 235 30 30"><path fill="#303C42" d="M264.38 249.38h-.66a13.74 13.74 0 0 0-13.09-13.09v-.66a.62.62 0 0 0-.62-.62.62.62 0 0 0-.62.62v.66a13.74 13.74 0 0 0-13.09 13.09h-.66a.63.63 0 0 0 0 1.25h.66a13.74 13.74 0 0 0 13.09 13.09v.66a.63.63 0 0 0 1.25.01v-.66a13.74 13.74 0 0 0 13.09-13.09h.66c.35 0 .63-.28.63-.62a.66.66 0 0 0-.64-.64z"/><path fill="#BBDEFB" d="M260.63 250.63h1.84a12.49 12.49 0 0 1-11.84 11.84v-1.84a.62.62 0 0 0-.62-.62.63.63 0 0 0-.62.63v1.84a12.5 12.5 0 0 1-11.84-11.84h1.84c.35 0 .63-.28.63-.62a.62.62 0 0 0-.62-.62h-1.84a12.5 12.5 0 0 1 11.84-11.84v1.84a.63.63 0 0 0 1.25.01v-1.84a12.5 12.5 0 0 1 11.84 11.84h-1.84a.62.62 0 0 0-.62.62c-.03.32.25.6.6.6z"/><path opacity=".1" d="M241.92 259.51a12.44 12.44 0 0 1-2.81-8.88h-1.57l.01.09c.13 2.35.92 4.54 2.18 6.36l.03.04c.61.89 1.34 1.69 2.16 2.39zm7.46-21.98a12.5 12.5 0 0 0-11.84 11.84h1.73c.91-5.15 4.96-9.2 10.11-10.11v-1.73zm7.74 2.22l-.04-.03a12.5 12.5 0 0 0-6.36-2.18h-.09v1.58c.31-.02.62-.05.94-.05 3.02 0 5.78 1.08 7.94 2.86-.7-.83-1.5-1.56-2.39-2.18z"/><circle fill="#303C42" cx="250" cy="246.88" r="3.13"/><circle fill="#9BE7E7" cx="250" cy="246.88" r="1.88"/><path opacity=".1" d="M250.97 245.28c.17.28.28.62.28.97 0 1.03-.84 1.88-1.87 1.88-.36 0-.69-.1-.97-.28a1.88 1.88 0 0 0 3.48-.97 1.91 1.91 0 0 0-.92-1.6z"/><path fill="#303C42" d="M254.28 251.92c-1-.59-2.55-1.29-4.27-1.29s-3.28.7-4.28 1.29a2.88 2.88 0 0 0-1.35 2.49v.4c0 .8.6 1.45 1.34 1.45h8.57c.74 0 1.34-.65 1.34-1.44v-.4c0-1.06-.52-2.01-1.35-2.5z"/><path fill="#303C42" d="M254.28 251.92c-1-.59-2.55-1.29-4.27-1.29s-3.28.7-4.28 1.29a2.88 2.88 0 0 0-1.35 2.49v.4c0 .8.6 1.45 1.34 1.45h8.57c.74 0 1.34-.65 1.34-1.44v-.4c0-1.06-.52-2.01-1.35-2.5z"/><path fill="#9BE7E7" d="M254.38 254.81c0 .13-.07.2-.09.2h-8.57c-.01 0-.09-.06-.09-.19v-.4c0-.59.29-1.15.74-1.41.86-.51 2.2-1.12 3.64-1.12s2.78.61 3.64 1.12c.45.26.74.82.74 1.41v.39z"/><path opacity=".2" fill="#FFF" d="M250.69 255h3.6c.02 0 .09-.06.09-.19v-.4c0-.59-.29-1.15-.73-1.41a8.66 8.66 0 0 0-2.21-.91 3.71 3.71 0 0 0-.75 2.91z"/><path opacity=".2" fill="#FFF" d="M254.38 250.63c-.66 0-1.27.19-1.81.49.66.24 1.25.53 1.71.8a2.88 2.88 0 0 1 1.35 2.49v.4c0 .8-.6 1.45-1.34 1.45h-3.14a3.74 3.74 0 0 0 6.98-1.87 3.75 3.75 0 0 0-3.75-3.76z"/><linearGradient id="a" gradientUnits="userSpaceOnUse" x1="-32.14" y1="-127.28" x2="-30.94" y2="-126.72" gradientTransform="translate(907.07 2895.86) scale(20.8333)"><stop offset="0" stop-color="#fff" stop-opacity=".2"/><stop offset="1" stop-color="#fff" stop-opacity="0"/></linearGradient><path fill="url(#a)" d="M264.38 249.38h-.66a13.74 13.74 0 0 0-13.09-13.09v-.66a.62.62 0 0 0-.62-.62.62.62 0 0 0-.62.62v.66a13.74 13.74 0 0 0-13.09 13.09h-.66a.63.63 0 0 0 0 1.25h.66a13.74 13.74 0 0 0 13.09 13.09v.66a.63.63 0 0 0 1.25.01v-.66a13.74 13.74 0 0 0 13.09-13.09h.66c.35 0 .63-.28.63-.62a.66.66 0 0 0-.64-.64z"/></svg>