<?xml version="1.0" encoding="iso-8859-1"?><!--Generator: Adobe Illustrator 19.0.0, SVG Export Plug-In . SVG Version: 6.00 Build 0)--><svg xmlns="http://www.w3.org/2000/svg" viewBox="0 0 512 512" style="enable-background:new 0 0 512 512"><path style="fill:#67B0FD" d="M507.607 4.395a14.992 14.992 0 0 0-16.177-3.32l-482 192.798a15 15 0 1 0-.976 27.423l190.067 92.182 92.182 190.068a14.998 14.998 0 0 0 27.423-.975L510.928 20.573a15.002 15.002 0 0 0-3.321-16.178z"/><path style="fill:#6092F8" d="M507.607 4.395L198.522 313.477l92.182 190.068a14.998 14.998 0 0 0 27.423-.975L510.928 20.573a15.002 15.002 0 0 0-3.321-16.178z"/><g/><g/><g/><g/><g/><g/><g/><g/><g/><g/><g/><g/><g/><g/><g/></svg>