<svg xmlns="http://www.w3.org/2000/svg" version="1.1" x="0" y="0" width="25" height="25" viewBox="0 0 25 25" enable-background="new 0 0 25 25" xml:space="preserve"><path fill="#9E9E9E" d="M7.1 23.4c-1.5 1.9-4.5 1.8-6 0.1C-0.2 22-0.4 19 1.2 17.6c3.3-2.9 7.2-5.4 7.2-5.4l3.9 3.9C12.3 16.1 10 19.9 7.1 23.4z"/><path fill="#9E9E9E" d="M24.3 7.9c2.7 2.7-3.5 10-8.5 9.9 -4.9-0.2-8.8-4.3-8.7-9.2 0.2-4.9 7.7-10.4 10.3-7.7 2.6 2.7-6.1 4.4-2 8.6C19.6 13.7 21.7 5.2 24.3 7.9z"/><circle fill="#FFFFFF" cx="4.8" cy="19.9" r="1.6"/></svg>