<svg xmlns="http://www.w3.org/2000/svg" viewBox="231 231 50.1 50.1">
  <path fill="#FFF" d="M278.3 233.8c-1.8-1.8-4-2.7-6.6-2.7h-31.3c-2.6 0-4.8.9-6.6 2.8-1.8 1.8-2.7 4-2.7 6.6v31.3c0 2.6.9 4.8 2.8 6.6 1.8 1.8 4 2.8 6.6 2.8h31.3c2.6 0 4.8-.9 6.6-2.8 1.8-1.8 2.8-4 2.8-6.6v-31.2c-.2-2.8-1.1-5-2.9-6.8z"/>
  <path fill="#3cb7dd" d="M248.9 272.3h-9.2v-9.2l17.3-17.3 9.2 9.2-17.3 17.3zM271.2 250l-2.9 2.9-9.2-9.2 2.9-2.9c.6-.6 1.3-.9 2.2-.9.9 0 1.6.3 2.2.9l4.9 4.8c.6.6.9 1.3.9 2.2-.1.9-.4 1.6-1 2.2z"/>
</svg>
