<?xml version="1.0" encoding="iso-8859-1"?><!--Generator: Adobe Illustrator 19.0.0, SVG Export Plug-In . SVG Version: 6.00 Build 0)--><svg xmlns="http://www.w3.org/2000/svg" viewBox="0 0 512 512" style="enable-background:new 0 0 512 512"><path style="fill:#8C76A6" d="M256 512c139.695-52.258 232.276-185.739 232.276-334.887V86.716c-47.892 0-86.716-38.824-86.716-86.716H110.44c0 47.892-38.824 86.716-86.716 86.716v90.396C23.724 326.261 116.305 459.742 256 512z"/><path style="fill:#9794C3" d="M256 512c139.695-52.258 232.276-185.739 232.276-334.887V86.716c-47.892 0-86.716-38.824-86.716-86.716H256v512z"/><path style="fill:#FFFFFF" d="M223.642 346.281L146.64 269.28l42.426-42.427 34.576 34.576 99.292-99.292 42.426 42.426z"/><path style="fill:#FFFFFF" d="M256 313.923v-84.852l66.934-66.934 42.426 42.426z"/><g/><g/><g/><g/><g/><g/><g/><g/><g/><g/><g/><g/><g/><g/><g/></svg>