<svg xmlns="http://www.w3.org/2000/svg" viewBox="225 225 50 50">
  <path fill="#8C76A6" d="M250 275a34.94 34.94 0 0 0 23-32.7v-8.83a8.53 8.53 0 0 1-8.59-8.47h-28.83a8.53 8.53 0 0 1-8.59 8.47v8.83A34.96 34.96 0 0 0 250 275z"/>
  <path fill="#9794C3" d="M250 275a34.94 34.94 0 0 0 23-32.7v-8.83a8.53 8.53 0 0 1-8.59-8.47H250v50z"/>
  <path fill="#FFF" d="M259.58 244.07l-4.2-4.14-5.38 5.3-5.37-5.3-4.2 4.14 5.38 5.3-5.37 5.3 4.2 4.14 5.38-5.3 5.38 5.3 4.2-4.14-5.37-5.3 5.35-5.3z"/>
  <path fill="#FFF" d="M259.58 244.07l-4.2-4.14-5.38 5.3v8.29l5.38 5.3 4.2-4.14-5.37-5.3 5.37-5.31z"/>
</svg>
