<svg xmlns="http://www.w3.org/2000/svg" viewBox="225 225 50 50">
  <path fill="#A9A9A9" d="M250 275c13.8-5.1 23-18.1 23-32.7v-8.8c-4.7 0-8.6-3.8-8.6-8.5h-28.8c0 4.7-3.8 8.5-8.6 8.5v8.8c0 14.6 9.2 27.6 23 32.7z"/>
  <path fill="#BFBFBF" d="M250 275c13.8-5.1 23-18.1 23-32.7v-8.8c-4.7 0-8.6-3.8-8.6-8.5H250v50z"/>
  <path fill="#FFF" d="M259.6 244.1l-4.2-4.1-5.4 5.2-5.4-5.3-4.2 4.1 5.4 5.3-5.4 5.3 4.2 4.1 5.4-5.3 5.4 5.3 4.2-4.1-5.4-5.3 5.4-5.2z"/>
  <path fill="#FFF" d="M259.6 244.1l-4.2-4.1-5.4 5.2v8.3l5.4 5.3 4.2-4.1-5.4-5.3 5.4-5.3z"/>
</svg>
