<svg xmlns="http://www.w3.org/2000/svg" viewBox="231 231 50 50">
  <path fill="#19A83B" d="M256 231a25 25 0 0 0 0 50 25 25 0 0 0 0-50zm-9.2 23.8c-2 0-3.6-1.6-3.6-3.6s1.6-3.6 3.6-3.6 3.6 1.6 3.6 3.6-1.6 3.6-3.6 3.6zm15.2 12.9c.6.6.6 1.5 0 2.1l-1.7 1.7c-.6.6-1.5.6-2.1 0l-2.2-2.2-2.2 2.2c-.6.6-1.5.6-2.1 0l-1.7-1.7c-.6-.6-.6-1.5 0-2.1l2.2-2.2-2.2-2.2c-.6-.6-.6-1.5 0-2.1l1.7-1.7c.6-.6 1.5-.6 2.1 0l2.2 2.2 2.2-2.2c.6-.6 1.5-.6 2.1 0l1.7 1.7c.6.6.6 1.5 0 2.1l-2.2 2.2 2.2 2.2zm3.2-12.9c-2 0-3.6-1.6-3.6-3.6s1.6-3.6 3.6-3.6 3.6 1.6 3.6 3.6-1.6 3.6-3.6 3.6z"/>
</svg>
