<svg xmlns="http://www.w3.org/2000/svg" version="1.1" baseProfile="tiny" x="0" y="0" width="27" height="27" viewBox="0 0 27 27" xml:space="preserve"><path fill="#FFB00C" d="M25.3 22.8c-0.8-0.7-2-1.5-2.3-2.5 0 0 1.5-4.7 1.5-7 0-6.7-5.4-12.1-12.1-12.1C5.7 1.1 0.3 6.5 0.3 13.2c0 6.7 5.4 12.1 12.1 12.1 2 0 3.8-0.5 5.5-1.3 0 0 3 1.2 4.6 1.4 3.5 0 4.4-1 4.4-1.2C26.7 23.6 25.8 23.2 25.3 22.8z"/><path fill="#FFFFFF" d="M21.5 16.2c0.4-0.2 0.6-1 0.6-1s0.3-0.9-0.2-1.5c-0.3-0.6-1.4-1-1.4-0.9 0.1 0-1.1-0.4-0.9-0.3 0.2 0-1.1-0.1-0.6-1.1 0.7-0.8 2 0.1 2 0.3 0 0 1.1-1.2 1-1.1s-0.3-0.6-1.8-0.8c-1-0.2-2.4 0.2-2.9 1.2 -0.5 1 0 1.8 0 1.8 0.2 0.5 0.8 0.7 0.8 0.7s0.2 0.2 1.1 0.4c1 0.3 1.1 0.7 1.1 0.7s0.2 0.8-0.7 0.9c-1 0.2-1.7-0.7-1.7-0.7L17 15.9c0 0 0 0.2 0.8 0.6 0.8 0.4 1.6 0.4 1.6 0.4S20.8 17 21.5 16.2z"/><path fill="#FFFFFF" d="M6.6 16.2c0.4-0.2 0.6-1 0.6-1s0.3-0.9-0.2-1.5c-0.3-0.6-1.4-1-1.4-0.9 0.1 0-1.1-0.4-0.9-0.3 0.2 0-1.1-0.1-0.6-1.1 0.7-0.8 2 0.1 2 0.3 0 0 1.1-1.2 1.1-1.1S7 10 5.5 9.7c-1-0.2-2.4 0.2-2.9 1.2 -0.5 1 0 1.8 0 1.8 0.2 0.5 0.8 0.7 0.8 0.7s0.2 0.2 1.1 0.4c1 0.3 1.1 0.7 1.1 0.7s0.2 0.8-0.7 0.9c-1 0.2-1.7-0.7-1.7-0.7l-1.1 1.1c0 0 0 0.2 0.8 0.6 0.8 0.4 1.6 0.4 1.6 0.4S5.9 17 6.6 16.2z"/><path fill="#FFFFFF" d="M14.5 16.9l0-4.8h0l-1.8 4.8h-1.2L9.9 12h0l0 4.8H8.3V10h2.3l1.6 4.4h0l1.5-4.4h2.4v6.8H14.5z"/></svg>