<?xml version="1.0" encoding="iso-8859-1"?><!--Generator: Adobe Illustrator 19.0.0, SVG Export Plug-In . SVG Version: 6.00 Build 0)--><svg xmlns="http://www.w3.org/2000/svg" viewBox="0 0 512 512" style="enable-background:new 0 0 512 512"><path style="fill:#CAE8F9" d="M467 15.994H45c-24.902 0-45 20.099-45 45v300c0 24.899 20.098 45 45 45h46v75c0 6 3.6 11.4 9.302 13.799 5.398 2.401 11.997 1.201 16.198-3.3l85.8-85.499H467c24.902 0 45-20.101 45-45v-300c0-24.901-20.098-45-45-45z"/><path style="fill:#B7E0F6" d="M512 60.994v300c0 24.899-20.098 45-45 45H256v-390h211c24.902 0 45 20.099 45 45z"/><path style="fill:#FEDB41" d="M256 75.994c-74.399 0-135 60.599-135 135 0 74.399 60.601 135 135 135s135-60.601 135-135c0-74.402-60.601-135-135-135z"/><path style="fill:#FCBF29" d="M391 210.994c0 74.399-60.601 135-135 135v-270c74.399 0 135 60.598 135 135z"/><g><path style="fill:#57555C" d="M309.101 264.092c-14.7 14.401-33.9 21.901-53.101 21.901s-38.401-7.5-53.101-21.901a15.406 15.406 0 0 1 0-21.299c5.999-5.7 15.3-5.7 21.299 0 8.701 9 20.402 13.2 31.802 13.2s23.101-4.2 31.802-13.2c5.999-5.7 15.3-5.7 21.299 0a15.406 15.406 0 0 1 0 21.299z"/><circle style="fill:#57555C" cx="211" cy="180.999" r="15"/></g><g><circle style="fill:#3C3A41" cx="301" cy="180.999" r="15"/><path style="fill:#3C3A41" d="M309.101 264.092c-14.7 14.401-33.9 21.901-53.101 21.901v-30c11.4 0 23.101-4.2 31.802-13.2 5.999-5.7 15.3-5.7 21.299 0a15.406 15.406 0 0 1 0 21.299z"/></g><g/><g/><g/><g/><g/><g/><g/><g/><g/><g/><g/><g/><g/><g/><g/></svg>