<svg xmlns="http://www.w3.org/2000/svg" viewBox="0 0 512 512">
  <path fill="#CAE8F9" d="M467 16H45A45 45 0 0 0 0 61v300a45 45 0 0 0 45 45h46v75a15 15 0 0 0 9.3 13.8c5.4 2.4 12 1.2 16.2-3.3l85.8-85.5H467a45 45 0 0 0 45-45V61a45 45 0 0 0-45-45z"/>
  <path fill="#B7E0F6" d="M512 61v300a45 45 0 0 1-45 45H256V16h211a45 45 0 0 1 45 45z"/>
  <path fill="#FEDB41" d="M256 76c-74.4 0-135 60.6-135 135s60.6 135 135 135 135-60.6 135-135S330.4 76 256 76z"/>
  <path fill="#FCBF29" d="M391 211c0 74.4-60.6 135-135 135V76c74.4 0 135 60.6 135 135z"/>
  <path fill="#57555C" d="M309.1 264a76 76 0 0 1-53.1 22 76 76 0 0 1-53.1-22 15.4 15.4 0 0 1 0-21.2c6-5.7 15.3-5.7 21.3 0 8.7 9 20.4 13.2 31.8 13.2s23.1-4.2 31.8-13.2c6-5.7 15.3-5.7 21.3 0a15.4 15.4 0 0 1 0 21.3z"/>
  <circle cx="211" cy="181" r="15" fill="#57555C"/>
  <circle cx="301" cy="181" r="15" fill="#3C3A41"/>
  <path fill="#3C3A41" d="M309.1 264a76 76 0 0 1-53.1 22v-30a44 44 0 0 0 31.8-13.2c6-5.7 15.3-5.7 21.3 0a15.4 15.4 0 0 1 0 21.3z"/>
</svg>
