<svg xmlns="http://www.w3.org/2000/svg" viewBox="229.7 231 50 50">
  <rect id="trans_BG" x="229.698" y="230.998" opacity="0" fill="none" width="50" height="50"/>
  <path fill="#F7BC9C" d="M267.4 233.9c-6.8 0-12.3 3.6-12.3 10.5s5.5 12.5 12.3 12.5c6.8 0 12.3-5.6 12.3-12.5 0-7-5.5-10.5-12.3-10.5z"/>
  <path fill="#D7925E" d="M257.5 244.3c0-6.5 4.9-11.8 11.1-12.4l-1.2-.1c-6.8 0-12.3 5.6-12.3 12.5s5.5 12.5 12.3 12.5l1.2-.1a12.3 12.3 0 0 1-11.1-12.4z"/>
  <path fill="#3A484A" d="M273.9 247a.8.8 0 0 1-.8-.8v-1.3c0-.4.3-.8.8-.8.4 0 .8.3.8.8v1.3c0 .4-.3.8-.8.8z"/>
  <path fill="#F98084" d="M274.8 248.8h-1.7a.8.8 0 0 1-.8-.8c0-.4.3-.8.8-.8h1.7c.4 0 .8.3.8.8s-.4.8-.8.8z"/>
  <path fill="#3A484A" d="M260.8 247a.8.8 0 0 1-.8-.8v-1.3c0-.4.3-.8.8-.8.4 0 .8.3.8.8v1.3c-.1.4-.4.8-.8.8z"/>
  <path fill="#F98084" d="M261.7 248.8H260a.8.8 0 0 1-.8-.8c0-.4.3-.8.8-.8h1.7c.4 0 .8.3.8.8-.1.5-.4.8-.8.8z"/>
  <path fill="#3A484A" d="M267.4 248.7c-.7 0-1.3-.3-1.7-.8-.3-.3-.2-.8.1-1.1.3-.3.8-.2 1.1.1.1.2.4.3.6.3.2 0 .5-.1.6-.3a1 1 0 0 1 1.1-.1c.3.3.4.8.1 1.1-.6.6-1.3.8-1.9.8z"/>
  <path fill="#4E3C31" d="M279.1 240.5c-.8-10.2-5-8.6-11.7-8.6a33 33 0 0 1-8.6-.8c-.4-.1-.9.1-1.1.4-.8 1.6-2.7 6-2.7 12.9 0 0 3-5.3 12.3-5.3 4.4 0 4.1 1.4 11.8 1.4z"/>
  <path fill="#2F241D" d="M260.1 231.5l.1-.1-1.4-.3c-.4-.1-.9.1-1.1.4-.8 1.6-2.7 6-2.7 12.9 0 0 .7-1.3 2.5-2.5.4-5.5 1.9-9 2.6-10.4z"/>
  <path fill="#3A484A" d="M229.7 268v8a4 4 0 0 0 3.5 3.9l5.8.6-9.3-12.5zm24.7 0v8a4 4 0 0 1-3.5 3.9l-5.8.6 9.3-12.5z"/>
  <path fill="#FBC4AC" d="M254.4 268l-12.6-9.4-12.1 9.4v.5c0 6.9 5.5 12.5 12.3 12.5s12.3-5.6 12.3-12.5l.1-.5z"/>
  <path fill="#E3B098" d="M231.7 267.6l-2 .4v.5c0 6.9 5.5 12.5 12.3 12.5h1c-6-.6-10.9-6.3-11.3-13.4z"/>
  <path fill="#3A484A" d="M235.5 271.1a.8.8 0 0 1-.8-.8V269c0-.4.3-.8.8-.8s.8.3.8.8v1.3c-.1.5-.4.8-.8.8z"/>
  <path fill="#F98084" d="M236.3 273h-1.7a.8.8 0 0 1-.8-.8c0-.4.3-.8.8-.8h1.7c.4 0 .8.3.8.8s-.3.8-.8.8z"/>
  <path fill="#3A484A" d="M248.6 271.1a.8.8 0 0 1-.8-.8V269c0-.4.3-.8.8-.8.4 0 .8.3.8.8v1.3c0 .5-.4.8-.8.8z"/>
  <path fill="#F98084" d="M249.5 273h-1.7a.8.8 0 0 1-.8-.8c0-.4.3-.8.8-.8h1.7c.4 0 .8.3.8.8-.1.5-.4.8-.8.8z"/>
  <path fill="#3A484A" d="M242 272.9c-.7 0-1.3-.3-1.7-.8-.3-.3-.2-.8.1-1.1.3-.3.8-.2 1.1.1.1.2.4.3.6.3.2 0 .5-.1.6-.3a1 1 0 0 1 1.1-.1c.3.3.4.8.1 1.1-.5.6-1.2.8-1.9.8zm-12.3-4.9c6.6-.7 12.3-7.1 12.3-7.1s5.7 6.3 12.3 7.1c-.2-6.7-5.7-12-12.3-12-6.6.1-12 5.4-12.3 12z"/>
  <path fill="#323E40" d="M243.1 256.1H242c-6.7 0-12.1 5.3-12.3 12l2-.4c.5-6.2 5.4-11.1 11.4-11.6z"/>
  <path fill="#67B0FD" d="M249.7 248v-7.5a5 5 0 0 0-4.9-4.9h-10.1a5 5 0 0 0-4.9 4.9v6.9a5 5 0 0 0 4.9 4.9h17.4l-2.4-4.3z"/>
  <path fill="#FFF" d="M245 241.2h-10.6a.8.8 0 0 1-.8-.8c0-.4.3-.8.8-.8H245c.4 0 .8.3.8.8s-.4.8-.8.8zm0 3.5h-10.6a.8.8 0 0 1-.8-.8c0-.4.3-.8.8-.8H245c.4 0 .8.3.8.8 0 .4-.4.8-.8.8zm-4 3.4h-6.6a.8.8 0 0 1-.8-.8c0-.4.3-.8.8-.8h6.6c.4 0 .8.3.8.8s-.4.8-.8.8z"/>
  <path fill="#00E0AA" d="M259.7 272.6v-7.5a5 5 0 0 1 4.9-4.9h10.1a5 5 0 0 1 4.9 4.9v6.9a5 5 0 0 1-4.9 4.9h-17.4l2.4-4.3z"/>
  <path fill="#FFF" d="M275 265.8h-10.6a.8.8 0 0 1-.8-.8c0-.4.3-.8.8-.8H275c.4 0 .8.3.8.8s-.4.8-.8.8zm0 3.5h-10.6a.8.8 0 0 1-.8-.8c0-.4.3-.8.8-.8H275c.4 0 .8.3.8.8s-.4.8-.8.8zm0 3.4h-6.6a.8.8 0 0 1-.8-.8c0-.4.3-.8.8-.8h6.6c.4 0 .8.3.8.8s-.4.8-.8.8z"/>
</svg>
