<svg xmlns="http://www.w3.org/2000/svg" viewBox="231 231 50 50">
  <path fill="#19A83B" d="M249.3 275.7c4.2 4.2-1.1 5.2-1.1 5.2-1.7.6-2-1.2-2-1.2l-3.6-10.6c-.8-2.7-2.5-2.2-2.5-2.2-4.3 1.5-5.9-3.5-5.9-3.5l-2-5.8c-1.4-4.2 2.9-5.9 2.9-5.9l5.6-1.9c1.8-.6 2.1 1.1 2.1 1.1l4.5 13.5c.4 1.1-.4 3.6-.4 3.6.1 3.5 3.6 5.2 2.4 7.7zm20.9-23.3c1.2-1.3 1.8-3.3 1.1-5.1a5 5 0 0 0-4-3.4l-4.2-12.3c-.5-1.6-1.3.6-1.3.6-3.1 12.2-16.8 15.9-16.8 15.9-1.6.5-.9 1.8-.9 1.8l4 11.6c.5 1.3 1.9.9 1.9.9 15-5 23.3 2.7 23.3 2.7s1.7 1.1 1.1-.4l-4.2-12.3zm5.3-14.9l-.8-.5-4.2 5.8.8.5 4.2-5.8zm-2.5 14.7l6.3 3.5.5-.8-6.3-3.5-.5.8zm.1-4.8l6.9-2-.3-.9-6.9 2 .3.9z"/>
</svg>
