<svg xmlns="http://www.w3.org/2000/svg" viewBox="0 0 37.6 64.9">
  <style>
    .st0{fill:#1ea6c6}
  </style>
  <path d="M9.2 22.8c-1.1-1.3-1.7-3-1.7-4.7 0-4 3.3-7.3 7.3-7.3s7.3 3.3 7.3 7.3c0 1.7-.6 3.3-1.6 4.6l-1.2-.9c.9-1.1 1.3-2.3 1.3-3.7 0-3.2-2.6-5.9-5.9-5.9-3.2 0-5.9 2.6-5.9 5.9 0 1.4.5 2.7 1.4 3.8l-1 .9z" class="st0"/>
  <path d="M9.4 27.9c-3.6-2-5.8-5.7-5.8-9.8 0-6.2 5-11.2 11.2-11.2 6.2 0 11.2 5 11.2 11.2 0 3-1.2 5.8-3.3 7.9l-1.1-1c1.8-1.8 2.8-4.3 2.8-6.9 0-5.4-4.4-9.7-9.7-9.7-5.4 0-9.7 4.4-9.7 9.7 0 3.5 1.9 6.8 5 8.5l-.6 1.3z" class="st0"/>
  <path fill="#fcd09f" d="M32.6 33.2v15c0 .6 0 1.2-.1 1.8-.1.6-.2 1.2-.4 1.8-.2.8-.4 1.7-.5 2.5-.1.9-.2 1.7-.2 2.6H13.8v-2.7c0-.4-.1-.9-.4-1.2-.2-.4-.6-.6-.9-.8-.4-.2-.9-.5-1.3-.8-.9-.6-1.6-1.4-2-2.3l-3-6.3c-.5-1.1-.3-2.4.4-3.3l1-1.2c.6-.7.9-1.6.7-2.5v-.3c0-1.3 1-2.3 2.3-2.3h.3c.4 0 .8.1 1.2.3V18.1c0-.7.3-1.4.8-1.9s1.1-.8 1.9-.8c1.5 0 2.6 1.2 2.6 2.6v12.1c0-.7.3-1.4.8-1.9s1.1-.8 1.9-.8c1.5 0 2.6 1.2 2.6 2.6v2c0-.7.3-1.4.8-1.9s1.1-.8 1.9-.8c1.5 0 2.6 1.2 2.6 2.6v1.2c0-1.3 1-2.3 2.3-2.3.6 0 1.2.2 1.7.7.4.5.6 1.1.6 1.7z"/>
  <path fill="#e2b991" d="M12.2 33.5v8.3c-.3 0-.6-.1-.9-.4-.2-.2-.4-.5-.4-.9v-7.4c.5.1.9.2 1.3.4z"/>
</svg>
