<svg xmlns="http://www.w3.org/2000/svg" viewBox="231 230.9 50 50">
  <path fill="#8C76A6" d="M279.6 258.1c2.5-2.5 1.8-7.6-2.6-7.6h-11.5c.4-2.4 1.1-6.5 1-6.8-.2-3.6-2.6-8-2.7-8.2-.4-.8-2.5-1.8-4.7-1.4-2.8.6-3 2.3-3 2.8l.1 6.1a43.4 43.4 0 0 1-7.3 11.1 2 2 0 0 0-1.1-.3h-14.6c-1.2 0-2.2 1-2.2 2.2v20.1a2 2 0 0 0 2.1 1.9h13.1a2 2 0 0 0 2.1-2.1v-.7l.7.1c.8.5 1.9 1.2 3.2 1.2h19.5c7.3 0 6.5-6.5 5.9-7.3 1.2-1.3 2-3.7 1-5.6.8-.8 2.2-3.1 1-5.5zm-33.8 17.8h-12.7v-20h12.7v20zm30.4-18l-.1.5c3.4 1 1.6 4.8-.8 5.1l-.1.5c3.2.8 1.7 4.8-.8 5.1l-.1.5c2.6.4 2 4.9-2 4.9h-19.9c-1.4 0-2.7-1.6-3.7-1.6h-.9v-15.4l3.3-2.2c1.5-1.2 7.4-10.8 7.4-12l-.1-6.4s1.2-1.5 3.8-.4c0 0 2.2 4.1 2.4 7.3 0 0-1 6.7-1.5 8.8h13.8c3.1 0 2.4 4.8-.7 5.3z"/>
</svg>
