<svg xmlns="http://www.w3.org/2000/svg" viewBox="231 231 50 50">
  <path fill="#8C76A6" d="M280.9 252.4c-.2-.4-.5-.6-1-.6h-3.1a23 23 0 0 0-22.7-18.8c-12.7 0-23.1 10.3-23.1 23s10.4 23 23.1 23c8.2 0 15.9-4.4 20-11.5.6-1 .2-2.3-.8-2.9-1-.6-2.3-.2-2.9.8a19.1 19.1 0 0 1-16.4 9.4c-10.4 0-18.9-8.4-18.9-18.8s8.5-18.8 18.9-18.8c9 0 16.5 6.3 18.4 14.6h-3.1c-.4 0-.8.2-1 .6-.2.4-.1.8.1 1.1l5.3 6.3c.4.4 1 .5 1.5.1l.1-.1 5.3-6.3c.4-.3.5-.7.3-1.1zm-26.8-14.2c-1.2 0-2.1.9-2.1 2.1V253c-1 .7-1.6 1.8-1.6 3 0 2 1.6 3.7 3.7 3.7.6 0 1.1-.1 1.6-.4l7.3 4.2c1 .6 2.3.2 2.9-.8a2 2 0 0 0-.8-2.8l-7.3-4.2c-.1-1.1-.7-2.1-1.5-2.7v-12.7c-.1-1.1-1-2.1-2.2-2.1zm0 19.4c-.9 0-1.6-.7-1.6-1.6 0-.9.7-1.6 1.6-1.6.9 0 1.6.7 1.6 1.6 0 .9-.7 1.6-1.6 1.6z"/>
</svg>
