<svg xmlns="http://www.w3.org/2000/svg" viewBox="231 231 50 50">
  <path fill="#19A83B" d="M279.7 254.8l-23.4-23.3c-.3-.3-.7-.5-1.2-.5-.4 0-.8.2-1.2.5l-2.5 2.5c-.3.3-.5.7-.5 1.2 0 .4.2.8.5 1.2l19.8 19.6-19.7 19.7c-.3.3-.5.7-.5 1.2 0 .4.2.8.5 1.2l2.5 2.5c.3.3.7.5 1.2.5.4 0 .8-.2 1.2-.5l23.4-23.3c.3-.3.5-.7.5-1.2s-.2-.9-.6-1.3zM261 256c0-.4-.2-.8-.5-1.2l-23.4-23.3c-.3-.3-.7-.5-1.2-.5-.4 0-.8.2-1.2.5l-2.5 2.5c-.3.3-.5.7-.5 1.2 0 .4.2.8.5 1.2L252 256l-19.7 19.7c-.3.3-.5.7-.5 1.2 0 .4.2.8.5 1.2l2.5 2.5c.3.3.7.5 1.2.5s.8-.2 1.2-.5l23.4-23.3c.2-.5.4-.9.4-1.3z"/>
</svg>
