<svg xmlns="http://www.w3.org/2000/svg" viewBox="231 231 50 50">
  <path fill="#8C76A6" d="M279.5 254.8l-23.2-23.3c-.3-.3-.7-.5-1.1-.5-.4 0-.8.2-1.1.5l-2.5 2.5c-.3.3-.5.7-.5 1.2 0 .4.2.8.5 1.2l19.5 19.6-19.5 19.7c-.3.3-.5.7-.5 1.2 0 .4.2.8.5 1.2l2.5 2.5c.3.3.7.5 1.1.5.4 0 .8-.2 1.1-.5l23.2-23.3c.3-.3.5-.7.5-1.2s-.2-.9-.5-1.3zm-18.6 1.2c0-.4-.2-.8-.5-1.2l-23.2-23.3c-.3-.3-.7-.5-1.1-.5-.4 0-.8.2-1.1.5l-2.5 2.5c-.3.3-.5.7-.5 1.2 0 .4.2.8.5 1.2L252 256l-19.5 19.7c-.3.3-.5.7-.5 1.2 0 .4.2.8.5 1.2l2.5 2.5c.3.3.7.5 1.1.5s.8-.2 1.1-.5l23.2-23.3c.4-.5.5-.9.5-1.3z"/>
</svg>
