<svg xmlns="http://www.w3.org/2000/svg" width="25" height="25"><path fill="#FFF" d="M13 6.5c.4.5 0 1.1-.8 1.2-1.3.1-2.3 1.1-2.5 2.5-.1.7-.3 1-.8.9-.2 0-.4-.1-.5-.3-.2-.2-.2-.3-.1-.9.3-1.8 1.7-3.3 3.4-3.5.7-.2 1-.2 1.3.1z"/><path fill="#FFF" d="M7.3 17.1c-1-.5-2.4-1.5-3.2-2.2-.6-.5-1.8-2-2-2.4l-.2-.3.5-.7c.9-1.3 2.9-3.2 4.3-3.9.5-.4.5-.3.3.1-.9 2-.9 3.6 0 5.3.3.7.5 1 1.2 1.6.9.9 1.7 1.4 2.8 1.6.8.2 2.5.1 3.2-.1 2-.7 3.4-2.3 4-4.3.3-1 .2-2.3-.1-3.3-.4-1-.4-1.1-.2-1.1s1.1.6 1.8 1.1c1.2.9 3.4 3.4 3.2 3.8-.1.3-1.2 1.7-2 2.4-2.4 2.3-4.9 3.5-8 3.7-2 0-3.7-.4-5.6-1.3z"/><path fill="#909090" d="M13 6.5c-.2-.2-.6-.3-1.2-.2-1.8.3-3.2 1.8-3.5 3.5-.1.6-.1.7.1.9.1.2.3.3.5.3.4 0 .6-.2.8-.9.2-1.3 1.2-2.3 2.5-2.5.8-.1 1.2-.6.8-1.1zM7 13c-.9-1.7-.8-3.3 0-5.3.2-.4.1-.4-.4-.1-1.4.7-3.4 2.6-4.3 3.9l-.5.7.2.3c.2.4 1.5 1.9 2 2.4.8.7 2.2 1.7 3.2 2.2 1.8.9 3.5 1.2 5.7 1.2 3-.1 5.6-1.3 8-3.7.7-.7 1.8-2.1 2-2.4.1-.3-2.1-2.9-3.2-3.8-.7-.4-1.6-1-1.8-1-.2 0-.1.1.2 1.1.4 1 .4 2.3.1 3.3-.6 2-2 3.6-4 4.3-.8.3-2.4.3-3.2.1-1.1-.3-1.9-.8-2.8-1.6-.7-.6-.9-.9-1.2-1.6zM2.8 8.4c2.2-2.2 5.1-3.6 7.9-4 1.5-.2 3.5-.1 5 .3 1.6.4 3.6 1.4 5 2.5 1.8 1.4 3.9 4.1 3.9 5 0 .5-1.6 2.7-2.9 3.8-1.9 1.8-4.3 3.1-6.8 3.6-1.5.3-3.9.3-5.2 0-2.7-.6-4.9-1.8-6.9-3.7C1.2 14.4.1 12.8.1 12c.1-.6 1.2-2.1 2.7-3.6z"/><path fill="#FFF" stroke="#FFF" stroke-width="5" stroke-linecap="round" stroke-linejoin="round" stroke-miterlimit="10" d="M20.9 3.8L3.7 21.2"/><path fill="none" stroke="#909090" stroke-width="1.75" stroke-linecap="round" stroke-linejoin="round" stroke-miterlimit="10" d="M20.9 3.8L3.7 21.2"/></svg>