<svg xmlns="http://www.w3.org/2000/svg" version="1.1" x="0" y="0" width="25" height="25" viewBox="0 0 25 25" enable-background="new 0 0 25 25" xml:space="preserve"><path fill="#FFFFFF" d="M13 6.5c0.4 0.5 0 1.1-0.8 1.2 -1.3 0.1-2.3 1.1-2.5 2.5 -0.1 0.7-0.3 1-0.8 0.9 -0.2 0-0.4-0.1-0.5-0.3 -0.2-0.2-0.2-0.3-0.1-0.9 0.3-1.8 1.7-3.3 3.4-3.5C12.4 6.2 12.7 6.2 13 6.5z"/><path fill="#FFFFFF" d="M7.3 17.1c-1-0.5-2.4-1.5-3.2-2.2 -0.6-0.5-1.8-2-2-2.4l-0.2-0.3 0.5-0.7c0.9-1.3 2.9-3.2 4.3-3.9C7.2 7.2 7.2 7.3 7 7.7c-0.9 2-0.9 3.6 0 5.3 0.3 0.7 0.5 1 1.2 1.6 0.9 0.9 1.7 1.4 2.8 1.6 0.8 0.2 2.5 0.1 3.2-0.1 2-0.7 3.4-2.3 4-4.3 0.3-1 0.2-2.3-0.1-3.3 -0.4-1-0.4-1.1-0.2-1.1 0.2 0 1.1 0.6 1.8 1.1 1.2 0.9 3.4 3.4 3.2 3.8 -0.1 0.3-1.2 1.7-2 2.4 -2.4 2.3-4.9 3.5-8 3.7C10.9 18.4 9.2 18 7.3 17.1z"/><path fill="#00D44F" d="M13 6.5c-0.2-0.2-0.6-0.3-1.2-0.2C10 6.6 8.6 8.1 8.3 9.8c-0.1 0.6-0.1 0.7 0.1 0.9C8.5 10.9 8.7 11 8.9 11c0.4 0 0.6-0.2 0.8-0.9 0.2-1.3 1.2-2.3 2.5-2.5C13 7.5 13.4 7 13 6.5zM7 13c-0.9-1.7-0.8-3.3 0-5.3 0.2-0.4 0.1-0.4-0.4-0.1 -1.4 0.7-3.4 2.6-4.3 3.9l-0.5 0.7 0.2 0.3c0.2 0.4 1.5 1.9 2 2.4 0.8 0.7 2.2 1.7 3.2 2.2 1.8 0.9 3.5 1.2 5.7 1.2 3-0.1 5.6-1.3 8-3.7 0.7-0.7 1.8-2.1 2-2.4 0.1-0.3-2.1-2.9-3.2-3.8C19 8 18.1 7.4 17.9 7.4c-0.2 0-0.1 0.1 0.2 1.1 0.4 1 0.4 2.3 0.1 3.3 -0.6 2-2 3.6-4 4.3 -0.8 0.3-2.4 0.3-3.2 0.1 -1.1-0.3-1.9-0.8-2.8-1.6C7.5 14 7.3 13.7 7 13zM2.8 8.4c2.2-2.2 5.1-3.6 7.9-4 1.5-0.2 3.5-0.1 5 0.3 1.6 0.4 3.6 1.4 5 2.5 1.8 1.4 3.9 4.1 3.9 5 0 0.5-1.6 2.7-2.9 3.8 -1.9 1.8-4.3 3.1-6.8 3.6 -1.5 0.3-3.9 0.3-5.2 0 -2.7-0.6-4.9-1.8-6.9-3.7 -1.6-1.5-2.7-3.1-2.7-3.9C0.2 11.4 1.3 9.9 2.8 8.4z"/><line fill="#FFFFFF" stroke="#FFFFFF" stroke-width="4" stroke-linecap="round" stroke-linejoin="round" stroke-miterlimit="10" x1="20.9" y1="3.8" x2="3.7" y2="21.2"/><line fill="none" stroke="#00D44F" stroke-width="1.25" stroke-linecap="round" stroke-linejoin="round" stroke-miterlimit="10" x1="20.9" y1="3.8" x2="3.7" y2="21.2"/></svg>