<svg xmlns="http://www.w3.org/2000/svg" width="50" height="50" viewBox="-12.6 -12.6 50 50"><path d="M13.7.3c.9 1.1 0 2.1-1.7 2.3-2.5.3-4.5 2.3-5.1 5.2-.2 1.4-1 1.8-2 1.6-.4 0-1.2-.5-.8-2.2A9 9 0 0 1 11-.1c1.3-.3 2.2-.1 2.7.4zM2.1 21.8c-2.2-.9-4.9-2.6-6.5-4a26 26 0 0 1-4.2-5l-.6-.9 1.1-1.6A29 29 0 0 1 .7 2.4c1-.8 1.2-.6.8.2-1.8 4.1-1.8 7.3 0 10.8a8 8 0 0 0 2.4 3.3c1.8 1.8 3.5 2.9 5.7 3.3 1.6.4 5.1.2 6.5-.2 4.1-1.4 6.9-4.7 8.1-8.7.6-2 .5-4.7-.1-6.7-.8-2 1.8-1 3.3 0 2.4 1.8 6.9 6.9 6.5 7.7-.2.6-2.4 3.5-4.1 4.9-4.9 4.7-10 7.1-16.3 7.5-4-.1-7.5-.9-11.4-2.7z" fill="#fff"/><path fill="#909090" d="M13.7.3c-.4-.4-1.2-.6-2.4-.4A8.8 8.8 0 004.2 7c-.3 1.2-.3 1.4.1 1.8.2.4.6.6 1 .6.8 0 1.2-.4 1.6-1.8A6 6 0 0112 2.5c1.7-.2 2.5-1.2 1.7-2.2zM1.4 13.5c-2-4.2-1.7-6.7 0-10.8.4-.8.2-.8-.8-.2a30.2 30.2 0 00-8.8 7.9l-1 1.4.4.6a41 41 0 004.1 4.9 24.6 24.6 0 0018.1 6.9c6.1-.2 11.4-2.6 16.3-7.5 1.4-1.4 3.7-4.3 4.1-4.9a31 31 0 00-6.5-7.7c-1.4-.8-3.3-2-3.7-2-.4 0-.2.2.4 2.2.8 2 .8 4.7.2 6.7a13.1 13.1 0 01-8.2 8.8c-1.6.6-4.9.6-6.5.2-2.2-.6-3.9-1.6-5.7-3.3a7.3 7.3 0 01-2.4-3.2zm-8.5-9.3A29 29 0 019-4c3.1-.4 7.1-.2 10.2.6 3.3.8 7.3 2.8 10.2 5.1 3.7 2.9 8 8.3 8 10.2 0 1-3.3 5.5-5.9 7.7a28.4 28.4 0 01-13.9 7.3 27.7 27.7 0 01-24.7-7.5c-3.3-3.1-5.5-6.3-5.5-7.9.2-1.2 2.4-4.3 5.5-7.3z"/><g stroke-linecap="round" stroke-linejoin="round" stroke-miterlimit="10"><path fill="#fff" stroke="#fff" stroke-width="10.2" d="M29.8-5.2L-5.3 30.2"/><path fill="none" stroke="#909090" stroke-width="3.6" d="M29.8-5.2L-5.3 30.2"/></g></svg>