<svg xmlns="http://www.w3.org/2000/svg" width="50" height="50">
  <path fill="#20cbab" d="M0 20.7h8.2v24.8H0zM11.9 20.4s1.5-3.1 8.7-7.4c6.6-2.5 9.8-5.5 9.8-5.5s3.5-3.4 6.2-7.4c2.7-.3 3.5 4.7 3.6 5.2 0 .5.8 4.7-2.3 8.1-2.3 2.9-1.7 4-1.6 4.3.3 1.2 2.9 1.5 6.7 2.1 7.5 1.4 7.1 3.8 7.1 4.2-.4 2.6-2.8 4.5-3.7 5.2 1.1 1.4 1 2.1 1 2.9-.1.8-.5 1.6-1.3 2.3-1.7 1.5-2 1.6-2.5 1.9.8.6 1.3 1.7 1.3 2.1.2 1.1-.4 1.9-1 2.6a9.2 9.2 0 0 1-2.9 2.5c1.6 2.6.7 3.8.4 4.1-1.3 1.4-2.7 2.4-9.1 2.6-4.1-.2-7-.9-11.2-2.6-4.2-1.7-9.1-2-9.1-2"/>
</svg>
