<svg xmlns="http://www.w3.org/2000/svg" width="31.3" height="30.8" viewBox="240.4 240.3 31.3 30.8"><path fill="#FEFEFE" d="M256 256.6c-4.5 0-8.1-3.5-8.1-7.9s3.6-7.9 8.1-7.9 8.1 3.5 8.1 7.9-3.6 7.9-8.1 7.9z"/><path fill="#A9A9A9" d="M256 241.5c4.1 0 7.5 3.3 7.5 7.2s-3.4 7.2-7.5 7.2-7.5-3.3-7.5-7.2 3.4-7.2 7.5-7.2m0-1.2a8.6 8.6 0 00-8.7 8.5c0 4.7 3.9 8.5 8.8 8.5 4.8 0 8.8-3.8 8.8-8.5a8.8 8.8 0 00-8.9-8.5z"/><path fill="#FEFEFE" stroke="#A9A9A9" stroke-width="1.3" stroke-linejoin="round" stroke-miterlimit="10" d="M256 259.6c-5.1 0-15 2.4-15 7.2v3.6h30v-3.6c0-4.9-9.9-7.2-15-7.2z"/></svg>