<svg height="512" viewBox="0 0 511 511" width="512" xmlns="http://www.w3.org/2000/svg"><path d="M383.5 239.5h56v32h-56z" fill="#de3052"/><circle cx="471.5" cy="255.5" fill="#f94d66" r="32"/><path d="M127.5 271.5h-56v-32h56z" fill="#de3052"/><circle cx="39.5" cy="255.5" fill="#f94d66" r="32"/><path d="M271.5 383.5v56h-32v-56z" fill="#de3052"/><circle cx="255.5" cy="471.5" fill="#f94d66" r="32"/><path d="M239.5 127.5v-56h32v56z" fill="#de3052"/><circle cx="255.5" cy="39.5" fill="#f94d66" r="32"/><circle cx="255.5" cy="255.5" fill="#f94d66" r="128"/><path d="M255.5 127.5h-4a120 120 0 11-124 124 131 131 0 000 4 128 128 0 10128-128z" fill="#de3052"/><g fill="#f94d66"><path d="M199 334.7L136.8 397 114 374.3l62.3-62.2z"/><circle cx="102.8" cy="408.2" r="32"/><path d="M312 176.3l62.2-62.2 22.7 22.6-62.3 62.2z"/><circle cx="408.2" cy="102.8" r="32"/><path d="M176.3 199l-62.2-62.3 22.6-22.6 62.2 62.2z"/><circle cx="102.8" cy="102.8" r="32"/><path d="M334.7 312l62.2 62.2-22.6 22.6-62.2-62.2z"/><circle cx="408.2" cy="408.2" r="32"/></g><circle cx="223.5" cy="287.5" fill="#fbb9d7" r="32"/><path d="M223.5 255.5a32 32 0 00-8 1 32 32 0 010 62 32 32 0 008 1 32 32 0 000-64z" fill="#ed9c87"/><circle cx="303.5" cy="239.5" fill="#fbb9d7" r="24"/><path d="M303.5 215.5a24 24 0 00-8 1.4 24 24 0 010 45.2 24 24 0 008 1.4 24 24 0 100-48z" fill="#ed9c87"/><circle cx="239.5" cy="199.5" fill="#fbb9d7" r="16"/><path d="M239.5 183.5c-3 0-5.6.8-8 2.2a16 16 0 010 27.6 16 16 0 008 2.2 16 16 0 100-32z" fill="#ed9c87"/><path d="M175.5 224h16v15h-16z" fill="#fff"/><path d="M471.5 216c-13 0-24.5 6.3-31.7 16h-50.9a136 136 0 00-22.4-54.2l36-36a39.8 39.8 0 005.7.4 39.4 39.4 0 0028-67.4 39.2 39.2 0 00-55.9 0 39.5 39.5 0 00-11.1 33.8L306.8 171l10.6 10.6L375 124a39.5 39.5 0 005.3 6.7 39.5 39.5 0 006.7 5.3l-57.6 57.6 10.6 10.6 15.7-15.7c13.3 19.8 20.3 42.8 20.3 67s-7 47.2-20.3 67L340 306.8l-10.6 10.6L387 375a39.5 39.5 0 00-12 12l-57.6-57.6-10.6 10.6 15.7 15.7c-19.8 13.3-42.8 20.3-67 20.3s-47.2-7-67-20.3l15.7-15.7-10.6-10.6L136 387a39.5 39.5 0 00-5.3-6.7 39.5 39.5 0 1011.1 22.1l36-36A136 136 0 00232 389v50.9a39.5 39.5 0 1047 0v-50.9a136 136 0 0054.2-22.4l36 36a39.5 39.5 0 1033.2-33.3l-36-36A136 136 0 00389 279h50.9a39.5 39.5 0 1031.7-63zM390.9 85.4a24.3 24.3 0 0134.7 0 24.3 24.3 0 010 34.7 24.5 24.5 0 01-34.7-34.7zM120.1 425.6a24.3 24.3 0 01-34.7 0 24.3 24.3 0 010-34.7 24.4 24.4 0 0134.7 0 24.5 24.5 0 010 34.7zM255.5 496a24.5 24.5 0 110-49 24.5 24.5 0 010 49zm8.5-63a39.5 39.5 0 00-17 0v-42.3a133.7 133.7 0 0017 0zm161.6-42a24.3 24.3 0 010 34.6 24.3 24.3 0 01-34.7 0 24.5 24.5 0 0134.7-34.7zm-34.9-127a134.4 134.4 0 000-17H433a39.4 39.4 0 000 17zm80.8 16a24.5 24.5 0 110-49 24.5 24.5 0 010 49z"/><path d="M71.2 279h50.9a136 136 0 0022.1 53.8l-22 21.3 10.5 10.8 48.8-47.5-10.4-10.7-16 15.5a119 119 0 01-20.1-66.7c0-24.2 7-47.2 20.3-67l15.7 15.7 10.6-10.6L124 136a39.5 39.5 0 006.7-5.3 39.5 39.5 0 005.3-6.7l57.6 57.6 10.6-10.6-15.7-15.7a119 119 0 0167-20.3c19.3 0 37.8 4.4 54.8 13.2l6.9-13.4c-12.2-6.2-25-10.5-38.2-12.8V71.2a39.5 39.5 0 10-47 0v50.9a136 136 0 00-54.2 22.4l-36-36a39.5 39.5 0 10-33.2 33.3l36 36A136 136 0 00122 232H71.2a39.5 39.5 0 100 47zM255.5 15a24.5 24.5 0 110 49 24.5 24.5 0 010-49zM247 78a39.5 39.5 0 0017 0v42.3a139.4 139.4 0 00-8.5-.3c-2.8 0-5.7 0-8.5.3zM85.4 120a24.3 24.3 0 010-34.6 24.3 24.3 0 0134.7 0 24.5 24.5 0 01-34.7 34.7zm34.9 127a133.7 133.7 0 000 17H78a39.5 39.5 0 000-17zm-80.8 33a24.5 24.5 0 110-49 24.5 24.5 0 010 49z"/><path d="M223.5 248a39.5 39.5 0 100 79 39.5 39.5 0 000-79zm0 64a24.5 24.5 0 110-49 24.5 24.5 0 010 49zm80-41a31.5 31.5 0 100-63 31.5 31.5 0 000 63zm0-48a16.5 16.5 0 110 33 16.5 16.5 0 010-33zm-64-47a23.5 23.5 0 100 47 23.5 23.5 0 000-47zm0 32a8.5 8.5 0 110-17 8.5 8.5 0 010 17zm-80 32h16v15h-16zm184 24h16v15h-16z"/><g><path d="M327.5 280h16v15h-16z" fill="#fff"/></g></svg>