<svg xmlns="http://www.w3.org/2000/svg" width="500" height="500">
  <path fill="#F0F0F0" d="M249.95 39.15c-2.15 0-7.42.59-10.35 6.35L40.29 444.32a11.39 11.39 0 0 0 .49 11.23c.98 1.66 4 5.47 9.86 5.47h398.73c5.76 0 8.79-3.81 9.86-5.47.98-1.66 3.13-6.05.49-11.23L260.3 45.49a11.27 11.27 0 0 0-10.35-6.34z"/>
  <path fill="#A9A9A9" d="M449.31 500H50.69a50.26 50.26 0 0 1-43.06-24.02 50.25 50.25 0 0 1-2.25-49.22L204.69 27.93A50.5 50.5 0 0 1 250 0a50.23 50.23 0 0 1 45.21 27.93l199.41 398.83a50.25 50.25 0 0 1-2.25 49.22A50.26 50.26 0 0 1 449.31 500zM250 39.06c-2.15 0-7.42.59-10.35 6.35L40.34 444.24c-2.64 5.18-.49 9.57.49 11.23s4 5.47 9.86 5.47h398.72c5.76 0 8.79-3.81 9.86-5.47.98-1.66 3.13-6.05.49-11.23L260.35 45.41A11.28 11.28 0 0 0 250 39.06zm19.53 279.5V195.41c0-10.74-8.79-19.53-19.53-19.53s-19.53 8.79-19.53 19.53v123.15c0 10.74 8.79 19.53 19.53 19.53s19.53-8.79 19.53-19.53zM250 360.55c-14.55 0-26.37 11.82-26.37 26.37s11.82 26.37 26.37 26.37 26.37-11.82 26.37-26.37-11.82-26.37-26.37-26.37z"/>
</svg>
