<svg xmlns="http://www.w3.org/2000/svg" version="1.1" x="0" y="0" width="25" height="25" viewBox="0 0 25 25" enable-background="new 0 0 25 25" xml:space="preserve"><path fill="#FED428" d="M12.7 0.3C2.1 2.5 0.2 8.1 0.1 12.5c-0.4 6.9 6.2 12.4 12.6 12.2 6.7-0.4 10.5-2.7 12.1-9.7C25.5 11.5 23.2 1 12.7 0.3z"/><path fill="#872C0C" stroke="#872C0C" stroke-width="0.25" stroke-linejoin="round" stroke-miterlimit="10" d="M19.6 16.2c-1.3 2-1.6 1.9-4 3.1 1.4 1 3.2-0.5 3.2-0.5S20.9 16.9 19.6 16.2z"/><path fill="#872E0C" d="M9.7 13c-1.1 0-1.7-1-1.8-1.8 0.2-0.3-2.3-0.6-3.6 0.5 -0.6-0.1-0.5-0.3-0.1-0.9s3.3-1.6 4.7-1.6c1 0 2.1 0.4 2.4 1.2C11.7 11.8 10.8 13 9.7 13z"/><path fill="#872E0C" d="M20.1 13c-1.1 0-1.7-1-1.8-1.8 0.2-0.3-2.3-0.6-3.6 0.5 -0.6-0.1-0.5-0.3-0.1-0.9 0.4-0.6 3.3-1.6 4.7-1.6 1 0 2.1 0.4 2.4 1.2C22.1 11.8 21.2 13 20.1 13z"/></svg>