<svg xmlns="http://www.w3.org/2000/svg" xmlns:xlink="http://www.w3.org/1999/xlink" width="27" height="27">
  <path fill="#FED428" d="M3.56 9.37C2 13.35 3 17.86 6.07 20.81c3.58 3.39 9.01 4.02 13.45 1.99 3.33-1.52 5.55-5.52 5.35-9.16-.33-5.97-4.78-10.93-10.83-11.33-9.41 1.94-8.8 2.77-10.48 7.06z"/>
  <path fill="#872C0C" stroke="#872C0C" stroke-linejoin="round" stroke-miterlimit="10" stroke-width=".23" d="M15.88 20.88c1.73 1.24 4.93-2 3.55-2.75-1.15 1.77-2.03 1.99-3.55 2.75z"/>
  <defs>
    <path id="a" d="M12.83 7.95C12.32 6.43 9.78 7.2 8.97 6c-.73-.77-1.74-3.65-3.22-2.33C4.66 4.62 4.51 6.18 3 6.58c-.95.3-3.85.83-2.58 2.46.61 1.04 1.81 1.78 1.78 3.07-.03 1.35-.46 4.11 1.84 3.29l2.03-.72c.66-.24 1.41.17 2.05.4.61.2 1.41.67 2.06.42.94-.37.74-1.41.72-2.21-.02-.9-.19-1.71.4-2.47.52-.7 1.85-1.88 1.53-2.87z"/>
  </defs>
  <clipPath id="b">
    <use overflow="visible" xlink:href="#a"/>
  </clipPath>
  <g fill="none" stroke-miterlimit="10" stroke-width="3.32" clip-path="url(#b)">
    <path stroke="#EE6455" d="M-1.25 13.51C1.62 5.99 9.43 1.56 17.35 2.93c7.89 1.5-22.14 20.13-18.6 10.58z"/>
    <path stroke="#FFEE2C" d="M6.69 30.2C2.65 27.32.53 22.43 1.17 17.51c.66-4.81 4.01-8.99 8.56-10.68 8.55-3.2 1.06 26.24-3.04 23.37z"/>
    <path stroke="#29FFC2" d="M4.58 21.7c-1.16-4.91 1.5-9.93 6.22-11.72 4.75-1.72 10.03.34 12.38 4.81.71 1.39-17.37 11.79-18.6 6.91z"/>
    <path stroke="#74A6FA" d="M7.58 19.29c0-3.64 3.05-6.67 6.67-6.67s-6.67 10.3-6.67 6.67z"/>
  </g>
  <path fill="none" stroke="#A629BC" stroke-miterlimit="10" stroke-width="1.12" d="M12.85 8.09c-.44-1.36-2.66-.87-3.57-1.69-.8-.74-1.55-3.39-3.05-2.6-1.22.65-1.25 2.51-2.7 2.93-.96.28-3.48.61-2.79 2.18.48 1.08 1.9 1.81 1.87 3.07-.02 1-.5 4.11 1.5 3.4 1.27-.44 2.34-1.06 3.64-.61.56.21 1.14.49 1.72.61 1.13.4 1.55-.71 1.53-1.59-.02-.89-.29-2.09.28-2.83.53-.7 1.89-1.9 1.57-2.87z"/>
  <defs>
    <path id="c" d="M26.85 7.95c-.45-1.38-2.76-.9-3.69-1.75-.83-.77-1.61-3.5-3.16-2.69-1.27.66-1.3 2.59-2.81 3.03-.99.28-4.03.82-2.76 2.51.6 1.04 1.82 1.77 1.79 3.07-.03 1.22-.48 4.11 1.71 3.32l2.06-.73c.7-.25 1.28.07 1.94.29.57.2 1.35.64 1.98.56 1.1-.15 1.02-1.25.99-2.07-.02-.96-.23-1.88.38-2.67.55-.7 1.91-1.88 1.57-2.87z"/>
  </defs>
  <clipPath id="d">
    <use overflow="visible" xlink:href="#c"/>
  </clipPath>
  <g fill="none" stroke-miterlimit="10" stroke-width="3.32" clip-path="url(#d)">
    <path stroke="#EE6455" d="M12.78 13.51C15.65 5.99 23.46 1.56 31.39 2.93c7.88 1.5-22.16 20.13-18.61 10.58z"/>
    <path stroke="#FFEE2C" d="M20.7 30.2c-4.04-2.88-6.16-7.77-5.53-12.69.65-4.81 4.01-8.99 8.56-10.67 8.57-3.21 1.08 26.23-3.03 23.36z"/>
    <path stroke="#29FFC2" d="M18.36 21.8c-1.16-4.91 1.5-9.93 6.22-11.73 4.75-1.72 10.04.34 12.39 4.81.7 1.41-17.37 11.82-18.61 6.92z"/>
    <path stroke="#74A6FA" d="M21.56 19.22c0-3.64 3.03-6.67 6.67-6.67 3.62 0-6.67 10.29-6.67 6.67z"/>
  </g>
  <path fill="none" stroke="#A629BC" stroke-miterlimit="10" stroke-width="1.12" d="M26.37 8.09c-.44-1.36-2.66-.87-3.56-1.68-.81-.74-1.54-3.38-3.05-2.6-1.23.64-1.25 2.5-2.7 2.92-.96.28-3.48.61-2.79 2.18.47 1.08 1.91 1.8 1.87 3.07-.03 1.08-.51 4.11 1.55 3.38l1.96-.69c.67-.24 1.16-.05 1.8.17.56.21 1.22.56 1.81.61 1.15.12 1.26-.98 1.25-1.81-.02-.86-.27-1.95.28-2.67.54-.7 1.91-1.91 1.58-2.88z"/>
  <path fill="#A629BC" d="M12.9 9.87c.64.46 1.32 0 1.32 0l.74.86h-2.77c0 .01.16-.22.71-.86z"/>
</svg>
