<svg xmlns="http://www.w3.org/2000/svg" width="22" height="22" viewBox="0 0 90 90"><path d="M90 43.8c0 24.2-19.8 43.8-44.2 43.8 -7.7 0-15-2-21.4-5.5L0 90l8-23.5c-4-6.6-6.3-14.4-6.3-22.6C1.6 19.6 21.4 0 45.8 0 70.2 0 90 19.6 90 43.8zM45.8 7c-20.5 0-37.1 16.5-37.1 36.9 0 8.1 2.6 15.5 7.1 21.6L11.1 79.1l14.3-4.5c5.9 3.9 12.9 6.1 20.4 6.1 20.5 0 37.1-16.5 37.1-36.9S66.3 7 45.8 7zM68.1 53.9c-0.3-0.4-1-0.7-2.1-1.3 -1.1-0.5-6.4-3.1-7.4-3.5 -1-0.4-1.7-0.5-2.4 0.5 -0.7 1.1-2.8 3.5-3.4 4.2 -0.6 0.7-1.3 0.8-2.3 0.3 -1.1-0.5-4.6-1.7-8.7-5.3 -3.2-2.8-5.4-6.4-6-7.4 -0.6-1.1-0.1-1.7 0.5-2.2 0.5-0.5 1.1-1.3 1.6-1.9 0.5-0.6 0.7-1.1 1.1-1.8 0.4-0.7 0.2-1.3-0.1-1.9 -0.3-0.5-2.4-5.8-3.3-8 -0.9-2.1-1.8-1.8-2.4-1.8 -0.6 0-1.4-0.1-2.1-0.1 -0.7 0-1.9 0.3-2.9 1.3 -1 1.1-3.8 3.7-3.8 9 0 5.3 3.9 10.4 4.4 11.1 0.5 0.7 7.5 11.9 18.5 16.2C58.2 65.8 58.2 64.3 60.2 64.2c2-0.2 6.4-2.6 7.3-5.1C68.4 56.5 68.4 54.4 68.1 53.9z" fill="#FFF"/></svg>