<svg height="511pt" viewBox="0 1 511 511.99894" width="511pt" xmlns="http://www.w3.org/2000/svg"><path d="m480.601562 256c0 141.382812-82.71875 256-224.101562 256-141.386719 0-256-114.617188-256-256 0-141.386719 114.613281-256 256-256 141.382812 0 224.101562 114.617188 224.101562 256zm0 0" fill="#ed85c5"/><path d="m437.292969 75.699219c-48.289063-48.464844-112.578125-75.160157-180.976563-75.160157-68.898437 0-124.949218 56.605469-124.949218 126.183594s56.050781 126.183594 124.949218 126.183594c70.886719 0 128.558594 58.234375 128.558594 129.816406 0 36.527344-15.109375 70.996094-41.691406 95.613282-2.980469 2.761718-3.605469 7.238281-1.570313 10.75 2.179688 3.765624 6.804688 5.375 10.835938 3.738281 31.621093-12.808594 60.019531-31.683594 84.511719-56.171875 48.359374-48.363282 74.945312-112.703125 74.824218-181.121094-.121094-67.324219-26.972656-132.140625-74.492187-179.832031zm0 0" fill="#74d5f2"/><path d="m437.292969 75.699219c-48.289063-48.464844-112.578125-75.160157-180.976563-75.160157-4.398437 0-8.746094.234376-13.03125.683594 61.289063 4.445313 118.289063 30.496094 162.113282 74.476563 47.515624 47.691406 74.367187 112.511719 74.488281 179.832031.125 68.417969-26.460938 132.757812-74.824219 181.121094-19.222656 19.222656-40.867188 34.96875-64.574219 47.054687-.203125 1.820313.15625 3.707031 1.125 5.378907 2.179688 3.765624 6.804688 5.375 10.835938 3.738281 31.621093-12.808594 60.019531-31.683594 84.511719-56.171875 48.359374-48.363282 74.945312-112.703125 74.824218-181.121094-.121094-67.324219-26.972656-132.140625-74.492187-179.832031zm0 0" fill="#74d5f2"/><path d="m297.75 385.382812c0 17.089844-13.855469 30.945313-30.945312 30.945313-17.089844 0-30.941407-13.855469-30.941407-30.945313 0-17.089843 13.851563-30.945312 30.941407-30.945312 17.089843 0 30.945312 13.855469 30.945312 30.945312zm0 0" fill="#74d5f2"/><path d="m266.804688 354.4375c-5.832032 0-11.289063 1.617188-15.945313 4.425781 8.984375 5.414063 14.992187 15.261719 14.992187 26.519531 0 11.253907-6.007812 21.105469-14.992187 26.519532 4.65625 2.808594 10.113281 4.425781 15.945313 4.425781 17.089843 0 30.945312-13.855469 30.945312-30.945313 0-17.089843-13.855469-30.945312-30.945312-30.945312zm0 0" fill="#74d5f2"/><path d="m297.75 116.78125c0 17.089844-13.855469 30.945312-30.945312 30.945312-17.089844 0-30.941407-13.855468-30.941407-30.945312s13.851563-30.945312 30.941407-30.945312c17.089843 0 30.945312 13.855468 30.945312 30.945312zm0 0" fill="#ed85c5"/><path d="m266.804688 85.835938c-5.832032 0-11.289063 1.617187-15.945313 4.425781 8.984375 5.414062 14.992187 15.265625 14.992187 26.519531s-6.007812 21.105469-14.992187 26.519531c4.65625 2.808594 10.113281 4.425781 15.945313 4.425781 17.089843 0 30.945312-13.855468 30.945312-30.945312s-13.855469-30.945312-30.945312-30.945312zm0 0" fill="#ed85c5"/></svg>