<svg xmlns="http://www.w3.org/2000/svg" viewBox="164.28 79.17 65 65">
  <path fill="none" d="M229.28 142.17a2 2 0 0 1-2 2h-61c-1.1 0-2-.9-2-2v-61c0-1.1.9-2 2-2h61a2 2 0 0 1 2 2v61z"/>
  <path fill="#FFF" d="M207.61 112.17c0 6.79-5.5 12.27-12.28 12.27-6.78 0-12.27-5.49-12.27-12.27s5.49-12.28 12.27-12.28c6.79 0 12.28 5.49 12.28 12.28z"/>
  <path fill="#F61C0D" d="M215.77 89.17h-38c-7.46 0-13.5 6.05-13.5 13.5v19c0 7.45 6.04 13.49 13.5 13.49h38c7.46 0 13.5-6.04 13.5-13.49v-19c.01-7.46-6.03-13.5-13.5-13.5zm-9.12 23.92l-17.78 8.48a.712.712 0 0 1-1.02-.64v-17.49c0-.53.56-.88 1.03-.64l17.78 9.01c.53.27.52 1.03-.01 1.28z"/>
</svg>
