<svg width="0" height="0" style="display:none"><symbol xmlns="http://www.w3.org/2000/svg" viewBox="0 0.5 50 50" id="video"><path fill="none" d="M0 0h50v50H0z"></path><circle fill="#b8b3ad" cx="24.7" cy="25" r="9.4"></circle><path fill="#333531" d="M16.6 46.6H8.3c-1.4 0-2.7-.6-3.6-1.6-.9-1-1.5-2.4-1.5-3.9v-8.3c0-.9-.7-1.6-1.6-1.6-.8 0-1.5.7-1.6 1.6v8.4c0 2.4.9 4.6 2.4 6.2C3.9 49 6 50 8.2 50h8.4c.9 0 1.6-.8 1.6-1.7 0-.9-.7-1.6-1.6-1.7zM16.7 0H8.6C6.2 0 4.1 1 2.5 2.5.9 4.1 0 6.2 0 8.5v8.6c0 .9.7 1.6 1.6 1.6s1.6-.7 1.6-1.6V8.5c0-1.4.6-2.8 1.6-3.7 1-1 2.3-1.6 3.8-1.6h8.1c.9 0 1.6-.7 1.6-1.6 0-.8-.7-1.5-1.6-1.6zm31 2.6C46.2.9 44.1 0 41.8 0h-8.4c-.9 0-1.6.8-1.6 1.7 0 .9.7 1.6 1.6 1.7h8.3c1.4 0 2.7.6 3.6 1.6.9 1 1.5 2.4 1.5 3.9v8.3c0 .9.7 1.6 1.6 1.6.8 0 1.5-.7 1.6-1.6V8.8c.1-2.4-.9-4.6-2.3-6.2zm.7 28.7c-.9 0-1.6.7-1.6 1.6v8.6c0 1.4-.6 2.8-1.6 3.7-1 1-2.3 1.6-3.8 1.6h-8.1c-.9 0-1.6.7-1.6 1.6 0 .9.7 1.6 1.6 1.6h8.1c2.4 0 4.5-1 6.1-2.5 1.6-1.6 2.5-3.7 2.5-6v-8.6c0-.9-.7-1.6-1.6-1.6z"></path></symbol><symbol xmlns="http://www.w3.org/2000/svg" viewBox="155 0 50 50" id="5secs"><path fill="none" d="M155 0h50v50h-50z"></path><path fill="#333531" d="M205 41.5c0 4.7-3.8 8.5-8.5 8.5h-33c-4.7 0-8.5-3.8-8.5-8.5v-33c0-4.7 3.8-8.5 8.5-8.5h33c4.7 0 8.5 3.8 8.5 8.5v33zm-17.7-15.8c-.4-.9-.8-1.6-1.5-2.2-.6-.6-1.3-1.1-2.2-1.5-.8-.4-1.7-.5-2.6-.5-1.2 0-2.5.4-3.9 1.1l.9-4.8h7c.7 0 1.3-.2 1.7-.5s.6-.7.6-1.2c0-1.2-.8-1.8-2.3-1.8h-7.8c-.8 0-1.5.2-1.8.6-.4.4-.6 1-.8 1.8l-1.2 7.1c-.1.6-.2 1-.2 1 0 .4.2.8.6 1.2.4.4.8.5 1.3.5.4 0 1-.3 1.7-.8s1.2-.9 1.6-1.1c.4-.2 1-.3 1.8-.3.7 0 1.3.2 1.9.5s1 .8 1.3 1.5.5 1.5.5 2.4c0 .9-.2 1.7-.5 2.3-.3.7-.7 1.2-1.3 1.6-.6.4-1.2.6-2 .6s-1.6-.2-2.2-.7c-.7-.5-1.2-1.2-1.6-2-.4-1-1-1.4-1.8-1.4-.5 0-.9.2-1.2.5-.3.3-.5.7-.5 1.1 0 .6.2 1.4.7 2.2.5.8 1.2 1.6 2.3 2.2 1.1.6 2.5 1 4.3 1 1.6 0 3-.3 4.2-1 1.2-.7 2.1-1.6 2.8-2.8.6-1.2 1-2.5 1-3.9-.3-.9-.4-1.8-.8-2.7z"></path></symbol><symbol xmlns="http://www.w3.org/2000/svg" viewBox="155 0 50 50" id="youtube"><path fill="none" d="M155 0h50v50h-50z"></path><path fill="#333531" d="M205 41.5c0 4.7-3.8 8.5-8.5 8.5h-33c-4.7 0-8.5-3.8-8.5-8.5v-33c0-4.7 3.8-8.5 8.5-8.5h33c4.7 0 8.5 3.8 8.5 8.5v33z"></path><path fill="#FFF" d="M183.9 32c0-.2-.1-.4-.1-.6-.1-.2-.3-.3-.5-.4-.3 0-.5.1-.7.3-.1.1-.1.2-.1.2v6l.1.1c.2.2.4.3.6.4.4.1.7-.1.8-.5v-.3c-.1-1.7-.1-3.4-.1-5.2zm0 0c0-.2-.1-.4-.1-.6-.1-.2-.3-.3-.5-.4-.3 0-.5.1-.7.3-.1.1-.1.2-.1.2v6l.1.1c.2.2.4.3.6.4.4.1.7-.1.8-.5v-.3c-.1-1.7-.1-3.4-.1-5.2zm6.6-8.9c-7-.1-14-.1-21 0-2.4.1-4.4 2-4.4 4.5v10.9c0 2.4 1.9 4.4 4.4 4.5 7 .2 14 .2 21 0 2.4-.1 4.4-2 4.4-4.5V27.6c0-2.5-2-4.5-4.4-4.5zm-19 16.4h-2V28.1h-2.1v-1.9h6.2v1.9h-2.1v11.4zm7.3-4.7v4.7H177v-1.1l-.1.1c-.4.4-.8.8-1.4 1-.3.1-.6.1-.8.1-.4-.1-.7-.3-.8-.6-.1-.3-.2-.7-.2-1v-8.3h1.8v7.8c.1.3.3.5.6.4.4-.1.6-.4.9-.7v-7.5h1.8v5.1zm6.8 3.7c-.2.7-.8 1.1-1.5 1.1-.6 0-1.1-.2-1.5-.7l-.2-.2v.7h-1.8V26.2h1.8v4.4s.1-.2.2-.3c.3-.3.6-.6 1-.7.7-.2 1.5 0 1.9.8.2.5.3 1 .3 1.5v5.6c-.1.4-.1.7-.2 1zm6.6-.3c-.3.9-1 1.4-1.9 1.6-.6.1-1.2.1-1.7-.2-.7-.3-1.2-.9-1.4-1.7-.1-.4-.1-.7-.1-1.1v-4.4c0-.8.2-1.5.7-2.1.6-.7 1.4-.9 2.2-.9.3 0 .5.1.8.1.8.3 1.3.9 1.5 1.8.1.3.1.7.1 1v2.5H189v2.5c0 .4.4.8.8.8s.8-.4.8-.8V36h1.8s0 1.5-.2 2.2zm-1.6-6.3c0-.4-.4-.8-.8-.8s-.8.4-.8.8v1.4h1.6v-1.4zm-6.8-.4c-.1-.2-.3-.3-.5-.4-.3 0-.5.1-.7.3-.1.1-.1.2-.1.2v6l.1.1c.2.2.4.3.6.4.4.1.7-.1.8-.5V32c-.1-.2-.2-.4-.2-.5zm4.5-21.1v9.9h-1.8v-1.1l-.6.6c-.3.3-.7.5-1.2.6-.7.1-1.3-.1-1.5-.8-.1-.2-.1-.5-.1-.7v-8.5h1.8v7.9c.1.3.3.5.6.4.4-.1.6-.4.9-.7v-7.5h1.9zm-15.1 1.7c-.4-1.7-1.2-5.2-1.2-5.2h-2.1s1.6 5.3 2.3 7.7v5.7h1.9v-5.7c.7-2.4 2.3-7.7 2.3-7.7h-2s-.8 3.6-1.2 5.2zm5.8-1.9c-1.5 0-2.6 1.2-2.6 2.6v5.1c0 1.5 1.2 2.6 2.6 2.6 1.5 0 2.6-1.2 2.6-2.6v-5.1c0-1.4-1.1-2.6-2.6-2.6zm.8 7.8c0 .4-.3.8-.8.8-.4 0-.8-.3-.8-.8v-5.3c0-.4.3-.8.8-.8s.8.3.8.8V18z"></path></symbol><symbol xmlns="http://www.w3.org/2000/svg" viewBox="183.1 231 50 50" id="laugh"><g fill="#f2f1f0"><path d="M208 281c-11 0-20-9.1-20-20.3v-9.4c0-11.2 9-20.3 20-20.3s20 9.1 20 20.3v9.4c0 11.2-9 20.3-20 20.3z"></path><path d="M208 231c-11 0-20 9.1-20 20.3v3.9l.3.1c2.4.7 4.9 1.1 7.4 1.1 6.5 0 12.6-2.3 17.4-6.6 3.6 3.1 7.9 5.2 12.4 6l.3.1 2.2.1v-4.7c0-11.2-9-20.3-20-20.3z"></path></g><path fill="#333531" d="M195.7 253.3c-2.2 0-4.4-.3-6.5-1l-1.1-.3v-1.2c.2-11.1 9-19.8 19.9-19.8 11 0 20 9.1 20 20.3v1.6h-1.8c-5-1-9.5-3.5-13-7.3-4.6 4.9-10.9 7.7-17.5 7.7z"></path><path fill="#dbd9d6" d="M208 277.9c-11 0-20-9.1-20-20.3v3.1c0 11.2 9 20.3 20 20.3s20-9.1 20-20.3v-3.1c0 11.2-9 20.3-20 20.3z"></path><path fill="#333531" d="M206.3 260.7h-10.6v-3.1h4.8l-1.5-2.3 2.6-1.7 4.7 7.1zm14 0h-10.8l6.5-8.7 2.5 1.9-2.8 3.8h4.6v3z"></path><g fill="#b8b3ad"><path d="M208 274.8c-5.1 0-9.2-4.2-9.2-9.4v-1.6h18.5v1.6c-.1 5.1-4.2 9.4-9.3 9.4z"></path><path d="M198.8 263.8v1.6c0 .5.1 1.1.1 1.6h18.2c.1-.5.1-1 .1-1.6v-1.6h-18.4z"></path></g></symbol><symbol xmlns="http://www.w3.org/2000/svg" viewBox="231 231 50 50" id="hashtag"><path fill="none" d="M231 231h50v50h-50z"></path><path fill="#333531" d="M263.4 255.9v20.7c0 2.4-2 4.4-4.4 4.4h-20.5c-2.4 0-4.4-2-4.4-4.4v-41.2c0-2.4 2-4.4 4.4-4.4h11.7c.8 0 1.5.7 1.5 1.5l10.3 22c.8-.1 1.4.5 1.4 1.4z"></path><path fill="#f2f1f0" d="M260.5 257.3v17.8H237v-38.3h13.5l9.6 20.5h.4z"></path><path fill="#b8b3ad" d="M273.7 231h-23.5c-2.4 0-4.4 2-4.4 4.4V253c0 2.4 2 4.4 4.4 4.4h3.8v4.4c0 1.3 1.6 2 2.5 1l5.4-5.4h11.7c2.4 0 4.4-2 4.4-4.4v-17.6c.1-2.5-1.9-4.4-4.3-4.4z"></path><path fill="#f2f1f0" d="M270.8 239.7h-2l.4-.8c.4-.7.1-1.6-.7-2-.7-.4-1.6-.1-2 .7l-1.1 2.1h-2.6l.4-.8c.4-.7.1-1.6-.7-2-.7-.4-1.6-.1-2 .7l-1.1 2.1h-3.5c-.8 0-1.5.7-1.5 1.5s.7 1.5 1.5 1.5h2l-1.5 2.9h-3.5c-.8 0-1.5.7-1.5 1.5s.7 1.5 1.5 1.5h2l-.4.8c-.4.7-.1 1.6.7 2 .7.4 1.6.1 2-.7l1.1-2.1h2.6l-.4.8c-.4.7-.1 1.6.7 2 .7.4 1.6.1 2-.7l1.1-2.1h3.5c.8 0 1.5-.7 1.5-1.5s-.7-1.5-1.5-1.5h-2l1.5-2.9h3.5c.8 0 1.5-.7 1.5-1.5s-.7-1.5-1.5-1.5zm-8.3 5.9h-2.6l1.5-2.9h2.6l-1.5 2.9z"></path></symbol><symbol xmlns="http://www.w3.org/2000/svg" viewBox="230.9 231 50 50" id="person"><path fill="#b8b3ad" d="M249 263.4l-3.9 11.7L256 281l-2.1-10.3-4.9-7.3zm17.2 11.7l-3.2-11.7-5.4 8.8-1.6 8.8 10.2-5.9z"></path><path fill="#fff5f5" d="M263 263.4l-7 17.6-7-17.6h2.6v-1.7c0-.8.7-1.5 1.5-1.5h5.8c.8 0 1.5.7 1.5 1.5v1.7h2.6z"></path><path fill="#333531" d="M256 231h-11.7c-1.1 0-1.8 1.1-1.3 2.1l1.9 3.7h-.6c-.8 0-1.5.7-1.5 1.5v8.8c0 .8.7 1.5 1.5 1.5 3.5 0 6.5-2.5 7.2-5.9h9.1c.7 3.3 3.6 5.9 7.2 5.9.8 0 1.5-.7 1.5-1.5v-2.9c-.1-7.3-6-13.2-13.3-13.2z"></path><path fill="#dbd9d6" d="M247.2 254.1h-2.9c-2.4 0-4.4-2-4.4-4.4s2-4.4 4.4-4.4h2.9c.8 0 1.5.7 1.5 1.5v5.9c0 .8-.7 1.4-1.5 1.4zm20.5 0h-2.9c-.8 0-1.5-.7-1.5-1.5v-5.9c0-.8.7-1.5 1.5-1.5h2.9c2.4 0 4.4 2 4.4 4.4s-2 4.5-4.4 4.5z"></path><path fill="#f2f1f0" d="M266.2 245.4v7.6c0 5.7-4.6 10.3-10.2 10.3s-10.2-4.6-10.2-10.3v-7.6c1.7-.6 2.9-2.3 2.9-4.1 0-.8.7-1.5 1.5-1.5h11.7c.8 0 1.5.7 1.5 1.5-.1 1.8 1.1 3.5 2.8 4.1z"></path><path fill="#b8b3ad" d="M260.4 253c0 2.4-2 4.4-4.4 4.4-2.4 0-4.4-2-4.4-4.4 0-.8.7-1.5 1.5-1.5s1.5.7 1.5 1.5.7 1.5 1.5 1.5 1.5-.7 1.5-1.5.7-1.5 1.5-1.5 1.3.7 1.3 1.5z"></path><path fill="#333531" d="M275 270.7c0-4-3.3-7.3-7.3-7.3H263l1.6 10.8c.1.6-.2 1.1-.6 1.4l-8 5.4h17.5c.8 0 1.5-.7 1.5-1.5v-8.8zm-26-7.3h-4.7c-4 0-7.3 3.3-7.3 7.3v8.8c0 .8.7 1.5 1.5 1.5H256l-8-5.3c-.5-.3-.7-.9-.6-1.4l1.6-10.9z"></path></symbol></svg>