<svg width="0" height="0" class="hidden"><symbol viewBox="0 0 469.333 469.333" xmlns="http://www.w3.org/2000/svg" id="keyhole"><path d="M414.379 0H54.953C24.641 0 0 24.66 0 54.953V414.38c0 30.293 24.64 54.953 54.953 54.953H414.38c30.312 0 54.953-24.66 54.953-54.953V54.953C469.332 24.66 444.692 0 414.379 0zM256 252.074V320c0 11.777-9.535 21.332-21.332 21.332s-21.336-9.555-21.336-21.332v-67.926c-24.766-8.832-42.664-32.297-42.664-60.074 0-35.285 28.715-64 64-64s64 28.715 64 64c0 27.777-17.898 51.242-42.668 60.074zm0 0"></path></symbol><symbol xmlns="http://www.w3.org/2000/svg" viewBox="0 0 459 459" id="fotos_clw"><path d="M459 408V51c0-28.05-22.95-51-51-51H51C22.95 0 0 22.95 0 51v357c0 28.05 22.95 51 51 51h357c28.05 0 51-22.95 51-51zM140.25 267.75l63.75 76.5 89.25-114.75L408 382.5H51l89.25-114.75z"></path></symbol><symbol xmlns="http://www.w3.org/2000/svg" viewBox="0 0 561 561" id="add"><path d="M357 280.5c56.1 0 102-45.9 102-102s-45.9-102-102-102-102 45.9-102 102 45.9 102 102 102zm-229.5-51V153h-51v76.5H0v51h76.5V357h51v-76.5H204v-51h-76.5zm229.5 102c-68.8 0-204 33.2-204 102v51h408v-51c0-68.8-135.1-102-204-102z"></path></symbol></svg>