<svg width="0" height="0" class="hidden"><symbol xmlns="http://www.w3.org/2000/svg" viewBox="231 231 50 50" id="add_post"><path d="M256 231a25 25 0 0 0 0 50 25 25 0 0 0 0-50zm10.9 27.1H258v8.9c0 1.2-.9 2.1-2.1 2.1-1.1 0-2.1-.9-2.1-2.1v-8.9h-8.9c-1.1 0-2.1-.9-2.1-2.1 0-1.1.9-2.1 2.1-2.1h8.9V245c0-1.1.9-2.1 2.1-2.1s2.1.9 2.1 2.1v8.9h8.9c1.2 0 2.1.9 2.1 2.1s-.9 2.1-2.1 2.1z"></path></symbol><symbol xmlns="http://www.w3.org/2000/svg" viewBox="0 0 438.536 438.536" id="edit-clw"><path d="M414.41 24.123C398.333 8.042 378.963 0 356.315 0H82.228C59.58 0 40.21 8.042 24.126 24.123 8.045 40.207.003 59.576.003 82.225v274.084c0 22.647 8.042 42.018 24.123 58.102 16.084 16.084 35.454 24.126 58.102 24.126h274.084c22.648 0 42.018-8.042 58.095-24.126 16.084-16.084 24.126-35.454 24.126-58.102V82.225c-.001-22.649-8.043-42.021-24.123-58.102zM155.316 365.445H73.089v-82.228l155.316-155.311 82.221 82.224-155.31 155.315zm199.853-199.853l-26.262 26.269-82.228-82.229 26.262-26.265c5.331-5.325 11.8-7.993 19.417-7.993 7.611 0 14.086 2.664 19.41 7.993l43.4 43.398c5.324 5.327 7.994 11.798 7.994 19.414.001 7.613-2.661 14.083-7.993 19.413z"></path><path d="M100.502 294.642v15.981h27.408v27.415h15.986l14.848-14.849-43.397-43.4zm41.399-42.257c-3.237 3.23-3.521 6.084-.859 8.562 2.474 2.67 5.33 2.382 8.566-.855l83.081-83.083c3.237-3.23 3.519-6.086.855-8.561-2.478-2.667-5.328-2.383-8.562.855l-83.081 83.082z"></path></symbol><symbol xmlns="http://www.w3.org/2000/svg" viewBox="0 0 469.333 469.333" id="eye"><path d="M234.667 170.667c-35.307 0-64 28.693-64 64s28.693 64 64 64 64-28.693 64-64-28.694-64-64-64z"></path><path d="M234.667 74.667C128 74.667 36.907 141.013 0 234.667c36.907 93.653 128 160 234.667 160 106.773 0 197.76-66.347 234.667-160-36.907-93.654-127.894-160-234.667-160zm0 266.666c-58.88 0-106.667-47.787-106.667-106.667S175.787 128 234.667 128s106.667 47.787 106.667 106.667-47.787 106.666-106.667 106.666z"></path></symbol><symbol xmlns="http://www.w3.org/2000/svg" viewBox="0 0 459 459" id="fotos_clw"><path d="M459 408V51c0-28.05-22.95-51-51-51H51C22.95 0 0 22.95 0 51v357c0 28.05 22.95 51 51 51h357c28.05 0 51-22.95 51-51zM140.25 267.75l63.75 76.5 89.25-114.75L408 382.5H51l89.25-114.75z"></path></symbol><symbol xmlns="http://www.w3.org/2000/svg" viewBox="0 0 511.626 511.626" id="invite"><path d="M49.106 178.729c6.472 4.567 25.981 18.131 58.528 40.685 32.548 22.554 57.482 39.92 74.803 52.099 1.903 1.335 5.946 4.237 12.131 8.71 6.186 4.476 11.326 8.093 15.416 10.852 4.093 2.758 9.041 5.852 14.849 9.277 5.806 3.422 11.279 5.996 16.418 7.7 5.14 1.718 9.898 2.569 14.275 2.569h.575c4.377 0 9.137-.852 14.277-2.569 5.137-1.704 10.615-4.281 16.416-7.7 5.804-3.429 10.752-6.52 14.845-9.277 4.093-2.759 9.229-6.376 15.417-10.852 6.184-4.477 10.232-7.375 12.135-8.71 17.508-12.179 62.051-43.11 133.615-92.79 13.894-9.703 25.502-21.411 34.827-35.116 9.332-13.699 13.993-28.07 13.993-43.105 0-12.564-4.523-23.319-13.565-32.264-9.041-8.947-19.749-13.418-32.117-13.418H45.679c-14.655 0-25.933 4.948-33.832 14.844C3.949 79.562 0 91.934 0 106.779c0 11.991 5.236 24.985 15.703 38.974 10.466 13.99 21.604 24.983 33.403 32.976z"></path><path d="M483.072 209.275c-62.424 42.251-109.824 75.087-142.177 98.501-10.849 7.991-19.65 14.229-26.409 18.699-6.759 4.473-15.748 9.041-26.98 13.702-11.228 4.668-21.692 6.995-31.401 6.995h-.578c-9.707 0-20.177-2.327-31.405-6.995-11.228-4.661-20.223-9.229-26.98-13.702-6.755-4.47-15.559-10.708-26.407-18.699-25.697-18.842-72.995-51.68-141.896-98.501C17.987 202.047 8.375 193.762 0 184.437v226.685c0 12.57 4.471 23.319 13.418 32.265 8.945 8.949 19.701 13.422 32.264 13.422h420.266c12.56 0 23.315-4.473 32.261-13.422 8.949-8.949 13.418-19.694 13.418-32.265V184.437c-8.186 9.132-17.7 17.417-28.555 24.838z"></path></symbol></svg>