<svg width="0" height="0" style="display:none"><symbol viewBox="0 0 515.556 515.556" xmlns="http://www.w3.org/2000/svg" id="group"><path d="M486.245 337.232c-44.199-27.886-94.804-43.186-147.101-46.048 12.091 5.66 24.059 11.637 35.408 18.798 27.345 17.228 44.337 48.428 44.337 81.405v91.947h96.667v-91.947c0-21.995-11.233-42.748-29.311-54.155z"></path><path d="M357.356 337.232c-97.957-61.801-230.103-61.801-328.029 0C11.234 348.623 0 369.376 0 391.387v91.947h386.667v-91.947c0-22.011-11.234-42.764-29.311-54.155zm-67.541-84.791c10.416 3.153 21.165 5.338 32.409 5.338 62.179 0 112.778-50.599 112.778-112.778S384.403 32.222 322.224 32.222c-11.244 0-21.993 2.185-32.409 5.338 29.553 26.562 48.52 64.665 48.52 107.44s-18.966 80.878-48.52 107.441z"></path><path d="M273.081 65.254c44.043 44.043 44.043 115.449 0 159.492s-115.449 44.043-159.492 0-44.043-115.449 0-159.492 115.449-44.042 159.492 0"></path></symbol><symbol xmlns="http://www.w3.org/2000/svg" viewBox="155 0 50 50" id="1on1"><path d="M198.75 0h-37.5A6.256 6.256 0 0 0 155 6.25v28.125a6.256 6.256 0 0 0 6.25 6.25h3.125v7.812a1.563 1.563 0 0 0 2.563 1.2l10.815-9.013h20.997a6.256 6.256 0 0 0 6.25-6.25V6.25A6.256 6.256 0 0 0 198.75 0zm-17.188 25h-12.5a1.563 1.563 0 0 1 0-3.124h12.5a1.563 1.563 0 0 1 0 3.124zm9.376-9.375h-21.875a1.563 1.563 0 0 1 0-3.124h21.875a1.563 1.563 0 0 1 0 3.124z"></path></symbol><symbol xmlns="http://www.w3.org/2000/svg" viewBox="0 0 459 459" id="fotos_clw"><path d="M459 408V51c0-28.05-22.95-51-51-51H51C22.95 0 0 22.95 0 51v357c0 28.05 22.95 51 51 51h357c28.05 0 51-22.95 51-51zM140.25 267.75l63.75 76.5 89.25-114.75L408 382.5H51l89.25-114.75z"></path></symbol><symbol xmlns="http://www.w3.org/2000/svg" viewBox="0 0 469.333 469.333" id="eye"><path d="M234.667 170.667c-35.307 0-64 28.693-64 64s28.693 64 64 64 64-28.693 64-64-28.694-64-64-64z"></path><path d="M234.667 74.667C128 74.667 36.907 141.013 0 234.667c36.907 93.653 128 160 234.667 160 106.773 0 197.76-66.347 234.667-160-36.907-93.654-127.894-160-234.667-160zm0 266.666c-58.88 0-106.667-47.787-106.667-106.667S175.787 128 234.667 128s106.667 47.787 106.667 106.667-47.787 106.666-106.667 106.666z"></path></symbol><symbol viewBox="0 0 24 24" xmlns="http://www.w3.org/2000/svg" id="star"><path d="M5.574 15.362l-1.267 7.767a.75.75 0 0 0 1.103.777L12 20.264l6.59 3.643a.75.75 0 0 0 1.103-.777l-1.267-7.767 5.36-5.494a.75.75 0 0 0-.423-1.265l-7.378-1.127L12.678.433c-.247-.526-1.11-.526-1.357 0L8.015 7.476.637 8.603a.75.75 0 0 0-.423 1.265z"></path></symbol><symbol xmlns="http://www.w3.org/2000/svg" viewBox="0 0 511.626 511.626" id="invite"><path d="M49.106 178.729c6.472 4.567 25.981 18.131 58.528 40.685 32.548 22.554 57.482 39.92 74.803 52.099 1.903 1.335 5.946 4.237 12.131 8.71 6.186 4.476 11.326 8.093 15.416 10.852 4.093 2.758 9.041 5.852 14.849 9.277 5.806 3.422 11.279 5.996 16.418 7.7 5.14 1.718 9.898 2.569 14.275 2.569h.575c4.377 0 9.137-.852 14.277-2.569 5.137-1.704 10.615-4.281 16.416-7.7 5.804-3.429 10.752-6.52 14.845-9.277 4.093-2.759 9.229-6.376 15.417-10.852 6.184-4.477 10.232-7.375 12.135-8.71 17.508-12.179 62.051-43.11 133.615-92.79 13.894-9.703 25.502-21.411 34.827-35.116 9.332-13.699 13.993-28.07 13.993-43.105 0-12.564-4.523-23.319-13.565-32.264-9.041-8.947-19.749-13.418-32.117-13.418H45.679c-14.655 0-25.933 4.948-33.832 14.844C3.949 79.562 0 91.934 0 106.779c0 11.991 5.236 24.985 15.703 38.974 10.466 13.99 21.604 24.983 33.403 32.976z"></path><path d="M483.072 209.275c-62.424 42.251-109.824 75.087-142.177 98.501-10.849 7.991-19.65 14.229-26.409 18.699-6.759 4.473-15.748 9.041-26.98 13.702-11.228 4.668-21.692 6.995-31.401 6.995h-.578c-9.707 0-20.177-2.327-31.405-6.995-11.228-4.661-20.223-9.229-26.98-13.702-6.755-4.47-15.559-10.708-26.407-18.699-25.697-18.842-72.995-51.68-141.896-98.501C17.987 202.047 8.375 193.762 0 184.437v226.685c0 12.57 4.471 23.319 13.418 32.265 8.945 8.949 19.701 13.422 32.264 13.422h420.266c12.56 0 23.315-4.473 32.261-13.422 8.949-8.949 13.418-19.694 13.418-32.265V184.437c-8.186 9.132-17.7 17.417-28.555 24.838z"></path></symbol></svg>