<svg version="1" xmlns="http://www.w3.org/2000/svg" width="533.333" height="533.333" viewBox="0 0 400.000000 400.000000"><path d="M93.1 55.1c-8.7 2.6-15.3 9.4-24.6 25.3-10 17.2-11.8 18.5-32 23.6-14.6 3.8-25 8.6-29.8 13.9-9.8 10.8-6.7 22.6 11.2 42.6 3.9 4.4 8.4 10 9.9 12.5l2.7 4.5V199c0 24.7 1.2 31 7.1 37.9 6.7 7.8 13.7 7.9 34.6.1 24-8.8 29.3-9 47.8-1.8 16.3 6.4 25.7 8.5 31 6.9 5.6-1.7 11.3-7 14.1-13.4 2.3-5 2.4-6.2 2.4-27.2 0-23.9.3-25.3 6.3-31.8l2.6-2.7h51.3l2.5 3.7c4.5 6.9 5 9.9 4.3 28-1.1 26 2.1 36.7 12.5 42.1 6.6 3.4 12.2 2.5 33.8-5.2 10-3.6 19.8-6.6 21.7-6.6 3.8 0 12.5 2.7 28.5 8.8 17.5 6.7 25.9 6.5 33.1-.7 6-6 7-11 6.8-35.2-.2-24.1.2-25.2 9.7-35.9 14.6-16.4 19.4-25.1 19.4-35.1 0-5.5-.5-7.2-2.9-11.1-5.1-8.1-10.8-11-28.9-14.9-23.1-4.9-23.1-4.8-35-24.1C320.8 60.9 313.9 55 302.9 55c-11.3.1-20.3 7.5-30.8 25.5-3.5 6.1-8.2 12.7-10.3 14.7-3.9 3.8-4.5 4.1-25.3 9.7-30.8 8.5-39.2 24.3-23.8 44.9 1.4 1.8 2.3 3.5 2.1 3.7-.9.9-17.6 2.6-20.7 2-7.5-1.3-7.3-1.1-3.6-6.9 4.3-6.7 6.9-15.6 6-20.4-2.3-12.4-11.6-19.4-31.2-23.3-23.4-4.7-25-5.7-35.6-23.5-13.2-22.1-24.3-30-36.6-26.3zm32.4 39.6c1.1 2 4 5.8 6.5 8.3 5.5 5.7 11.7 8.2 28.5 11.6 15 3 21.7 6.1 24 11.1 3.6 7.5.3 14.8-14.3 31.8-8.8 10.2-11.6 14.9-12.7 20.8-.5 2.3-1.4 3.9-2.6 4.2-1 .4-5.9 3.3-10.9 6.5-9.7 6.5-22.5 18.1-28.9 26.4l-4.1 5.3-5.3-.8c-9.6-1.6-17.9.2-44.5 9.6-8.8 3.1-10.8 3.5-13.1 2.6-6.1-2.6-7.4-8.7-7.2-33.7.1-21.2-.5-25.2-4.9-31.4l-2-2.8 4.5-6c13.9-18.4 36.1-38.9 56-51.8 5.6-3.6 27.4-15.3 28.5-15.4.3 0 1.4 1.7 2.5 3.7zm204.6.5c.7 1.2 3.4 4.6 6.2 7.5 5.9 6.3 10.9 8.4 28.2 11.9 20.2 4.1 26.3 8.5 25.2 18.1-.6 5.6-4.9 12.5-15.6 24.9-8.4 9.9-13.1 17.8-13.1 22.4 0 2-1.2 3.1-6 5.8-12.2 6.7-28.4 20.7-37.1 32-2.3 3-2.7 3.2-5.7 2.1-7-2.4-17.5-.7-36 5.9-19.7 7-24 7.6-27.1 3.6-3.6-4.6-4.2-9.5-4-31.3l.3-20.9-3.1-6.3-3.2-6.3 5.7-7.1c13.2-16.6 32-33.9 49.5-45.7 8.1-5.5 32-18.7 33.9-18.8.4 0 1.3 1 1.9 2.2zM277.5 284.2c-8.3 11.3-16.3 17.5-33.8 26.4-8.6 4.4-14.7 8-14.4 8.7.2.7 1.8 2 3.6 3.1 12.2 7.1 31 1.7 46.2-13.4 12.3-12.1 16.1-23 10.3-29.9-1.4-1.7-3.3-3.1-4.2-3.1-1 0-4.4 3.7-7.7 8.2z"/></svg>